<?xml version="1.0" encoding="UTF-8"?>
<svg width="152px" height="152px" viewBox="0 0 152 152" version="1.1" xmlns="http://www.w3.org/2000/svg" xmlns:xlink="http://www.w3.org/1999/xlink">
    <!-- Generator: Sketch 49.1 (51147) - http://www.bohemiancoding.com/sketch -->
    <title>pc22</title>
    <desc>Created with Sketch.</desc>
    <defs></defs>
    <g id="Page-1" stroke="none" stroke-width="1" fill="none" fill-rule="evenodd">
        <g id="创物云PC端" transform="translate(-1419.000000, -10224.000000)" fill="#FFFFFF" fill-rule="nonzero">
            <g id="Group-64" transform="translate(157.000000, 10160.000000)">
                <g id="Group-59" transform="translate(1264.000000, 66.000000)">
                    <g id="互联网" transform="translate(33.000000, 38.000000)">
                        <path d="M67.8845963,10.9450538 C83.6653104,26.7891789 81.0846382,52.1304809 64.4556267,64.9496524 C55.3507041,71.9689474 45.0484484,74.5393787 33.6861061,72.1021008 C22.3927819,69.6791077 14.1535205,63.1370179 8.52238075,53.1647138 C6.62136358,55.7516811 4.89161941,58.3178703 3.91510854,61.287502 C2.80205274,64.6728701 3.86170076,66.1289861 7.47378258,66.2613603 C8.06854658,66.2829176 8.66673076,66.1863858 9.26421335,66.1721008 C10.3347359,66.1470804 11.1197156,66.8015058 11.1963632,67.7587729 C11.2702044,68.6833144 10.6682492,69.4877755 9.6415754,69.6062976 C7.61094138,69.8403981 5.57916731,69.8141657 3.64605285,69.0381881 C1.03880827,67.991142 -0.355317795,65.4161222 0.078170618,62.5558355 C0.593042232,59.1577409 2.21860181,56.2316566 4.08199681,53.4140518 C4.80839464,52.3154932 5.5877617,51.2474093 6.40387401,50.2123107 C6.79807393,49.7119899 6.85016622,49.2946952 6.64758515,48.6903972 C2.13590313,35.2252846 4.48750971,23.0014939 13.8537708,12.2806566 C19.8872662,5.37460269 27.7034752,1.45679429 36.8875885,0.307675514 C47.040057,-0.962389418 56.0998155,1.73167198 64.1942007,7.79543132 C64.6786413,8.15835646 65.0739813,8.20164431 65.6397174,8.02364472 C68.5304878,7.11338826 71.4673871,6.37178112 74.5301322,6.46199294 C75.6464327,6.49506482 76.7991278,6.64501389 77.8588636,6.97824358 C80.8755675,7.92711281 82.5137555,10.8276572 81.8557617,13.8929551 C81.6568639,14.8213924 81.4022783,15.7422977 81.1030547,16.6438967 C80.7384964,17.742109 79.8579266,18.2062411 78.8765046,17.897166 C77.8647394,17.5786541 77.4713287,16.6712546 77.8056313,15.5135649 C78.0147897,14.7897058 78.2271051,14.0593535 78.3429535,13.3174001 C78.6484036,11.3583661 77.7847593,10.126481 75.7787683,10.0113354 C74.1382124,9.91679476 72.4717859,10.1025861 70.8291254,10.2772959 C69.85849,10.3807536 68.9122348,10.7040272 67.8845963,10.9450538 Z M57.1313127,38.2973353 C46.6431385,38.2973353 36.2192464,38.2973353 25.7782534,38.2973353 C25.7526458,38.4751617 25.7127435,38.6037265 25.7189699,38.7300405 C25.9971462,44.404469 27.3176941,49.8263564 29.824262,54.9461813 C29.9710675,55.2464257 30.5238244,55.5215631 30.8889089,55.5235543 C37.9079482,55.5574054 44.9273382,55.5404366 51.9465528,55.5619939 C52.5726248,55.5638986 52.9248177,55.383042 53.1344145,54.7979637 C54.0306823,52.29636 55.0917335,49.842546 55.8259364,47.2967022 C56.6623068,44.3974564 57.090358,41.4023714 57.1313127,38.2973353 Z M26.9316501,34.6617636 C37.1574336,34.6617636 47.1109166,34.6617636 57.0572961,34.6617636 C57.4621952,30.6617083 54.7777769,20.2609413 52.5991972,17.4085329 C43.5294412,22.2621377 35.0969824,28.0481623 26.9316501,34.6617636 Z M8.00847386,34.6683433 C8.47774279,34.694922 8.76819667,34.72531 9.05865056,34.7256564 C12.9136542,34.7287731 16.7682194,34.7302449 20.623223,34.7264356 C21.8301151,34.7253101 22.1498599,34.4612544 22.2420299,33.2607096 C22.6494721,27.9505915 23.878464,22.8421945 26.0267879,17.9528341 C26.0973843,17.7919765 26.1071187,17.6047999 26.1648236,17.3414368 C25.7130941,17.3414368 25.3526577,17.34161 24.9919581,17.3414368 C21.6690148,17.3406576 18.3456329,17.365678 15.0233035,17.3144252 C14.4415187,17.3054213 14.1323853,17.4487905 13.8206209,17.901235 C11.2655563,21.6112617 9.52862099,25.6624832 8.65050661,30.0581892 C8.3521601,31.5531779 8.22429719,33.0813249 8.00847386,34.6683433 Z M74.8034851,34.6790787 C74.6898292,33.6113411 74.6190574,32.66732 74.484968,31.7321298 C73.7598857,26.6772367 71.9063127,22.0532306 68.9684489,17.8569083 C68.7960357,17.6107737 68.4301621,17.3449864 68.1537397,17.3443804 C64.6999518,17.3376275 61.2459885,17.3784911 57.7918498,17.4063686 C57.4429018,17.4090524 57.0937783,17.4068014 56.5589994,17.4068014 C59.1266924,23.0038313 60.3934818,28.7240584 60.710245,34.6790787 C65.4322254,34.6790787 70.037919,34.6790787 74.8034851,34.6790787 Z M56.5861855,55.5484881 C57.1592005,55.5484881 57.520777,55.5484881 57.8824412,55.5484881 C61.0384964,55.5484881 64.1996379,55.4488395 67.3479757,55.6023382 C68.4595406,55.6566211 68.9217938,55.2594119 69.4347361,54.4714869 C71.7232882,50.9572077 73.3411304,47.1727258 74.1668018,43.0788225 C74.4857573,41.4971717 74.6237054,39.8801981 74.8451414,38.2708431 C69.9916148,38.2708431 65.3664523,38.2708431 60.6988442,38.2708431 C60.419791,44.2696707 59.1093283,49.9529299 56.5861855,55.5484881 Z M22.1734505,38.7211232 C18.1869008,42.2427614 14.5621028,45.8278594 11.270029,49.7335473 C11.1305901,49.8990799 11.1005976,50.3066781 11.2082023,50.4983566 C12.1092934,52.1007856 13.0446742,53.6843409 13.9987346,55.2562953 C14.1096718,55.439143 14.3974071,55.6281377 14.6027068,55.6273585 C18.2537262,55.6181815 21.9043949,55.5807808 25.5555019,55.5445922 C25.7408943,55.5426875 25.9259359,55.4999192 26.2257734,55.4610467 C23.8188297,50.1419246 22.5351148,44.6287865 22.1734505,38.7211232 Z M45.067391,17.391997 C45.1309716,17.409745 45.0138079,17.3487091 44.8966441,17.348536 C40.1733482,17.3429952 35.4497015,17.3298357 30.7264056,17.3716517 C30.4121857,17.3743355 29.9463369,17.7346634 29.81444,18.0394963 C29.0324419,19.8480618 28.2006318,21.6515194 27.6302477,23.5289993 C26.9141982,25.8850693 26.4336163,28.3108328 25.8530593,30.6993687 C32.3668738,26.1880842 38.7486158,21.7683101 45.067391,17.391997 Z M50.6795881,59.0853635 C44.446844,59.0853635 38.3965105,59.0853635 32.161574,59.0853635 C34.7224267,62.9653384 37.7273792,66.2028352 41.4383836,68.8133511 C45.1420216,66.1482926 48.1486403,62.9634337 50.6795881,59.0853635 Z M50.6537174,13.8523511 C48.1019853,9.96311269 45.1026454,6.77877332 41.4211949,4.16834397 C37.7344827,6.82682277 34.6935742,9.98120701 32.2305919,13.8523511 C38.43843,13.8523511 44.4400036,13.8523511 50.6537174,13.8523511 Z M17.1000665,13.8940806 C20.6917147,13.8940806 23.9740541,13.8726964 27.2555167,13.911742 C27.9218418,13.9196204 28.2178205,13.6482923 28.5808003,13.1467594 C30.2759039,10.8053207 32.0158209,8.49418346 33.7895015,6.20979807 C34.3622534,5.47174055 35.0862834,4.84804949 35.9398425,3.96722871 C28.4844208,5.30776622 22.389274,8.53097812 17.1000665,13.8940806 Z M17.2844942,59.0273579 C19.9910123,63.134334 31.3369551,69.117578 35.6847307,68.7857335 C35.6279904,68.696474 35.5922976,68.6025393 35.5258229,68.5405512 C32.7245916,65.9304682 30.4014867,62.9469844 28.4693369,59.6671521 C28.1763397,59.1694286 27.843528,59.0077918 27.283843,59.0161897 C25.355815,59.0450194 23.4269977,59.027358 21.4984435,59.027358 C20.117472,59.0273579 18.7362374,59.0273579 17.2844942,59.0273579 Z M47.1369627,68.9508333 C54.4375107,67.6151439 60.5252033,64.3842269 65.6756734,59.1408585 C65.4144227,59.0754073 65.3251468,59.0335047 65.2356076,59.0330718 C61.9446738,59.0288296 58.6534769,59.0099562 55.3633325,59.0561875 C55.0358703,59.0608626 54.6182551,59.3960836 54.4056766,59.6920857 C53.4467052,61.0293334 52.6251556,62.4684806 51.6054099,63.7560338 C50.222246,65.5020052 48.7034142,67.1428737 47.1369627,68.9508333 Z M47.2827158,4.04921583 C49.6219571,6.91261926 51.9414664,9.75186805 54.285268,12.6209855 C56.3521211,11.6922017 58.5456969,10.7064513 60.8390724,9.67576808 C56.6637977,6.73929485 52.1406273,4.87722549 47.2827158,4.04921583 Z M17.412357,38.2441778 C14.2441997,38.2441778 11.2113594,38.2441778 8.18448252,38.2441778 C8.00321193,40.2568888 8.8726443,44.9724919 9.61500299,46.1587516 C12.175768,43.5594905 14.7415318,40.9555543 17.412357,38.2441778 Z M65.4401181,13.8747742 C65.4901933,13.7991071 65.5405316,13.7232668 65.5906946,13.6475131 C65.0240815,13.1917788 64.3816101,12.2887947 63.9061146,12.3676651 C62.6648452,12.5738017 61.4968031,13.2098731 60.2992946,13.6740919 C60.3275332,13.7410148 60.3558595,13.8080244 60.3839227,13.8747743 C62.069292,13.8747742 63.7548365,13.8747742 65.4401181,13.8747742 Z" id="Shape"></path>
                    </g>
                </g>
            </g>
        </g>
    </g>
</svg>