<?xml version="1.0" encoding="UTF-8"?>
<svg width="152px" height="152px" viewBox="0 0 152 152" version="1.1" xmlns="http://www.w3.org/2000/svg" xmlns:xlink="http://www.w3.org/1999/xlink">
    <!-- Generator: Sketch 49.1 (51147) - http://www.bohemiancoding.com/sketch -->
    <title>pc23</title>
    <desc>Created with Sketch.</desc>
    <defs></defs>
    <g id="Page-1" stroke="none" stroke-width="1" fill="none" fill-rule="evenodd">
        <g id="创物云PC端" transform="translate(-1239.000000, -10224.000000)" fill="#FFFFFF" fill-rule="nonzero" stroke="#FFFFFF" stroke-width="0.5">
            <g id="Group-64" transform="translate(157.000000, 10160.000000)">
                <g id="Group-60" transform="translate(1084.000000, 66.000000)">
                    <g id="房地产行业" transform="translate(36.000000, 36.000000)">
                        <path d="M75.6179289,72.5127499 L68.6091317,72.5127499 L68.6091317,23.9303179 C68.6026214,21.1037844 66.8592278,18.5746184 64.2269056,17.5729597 L45.4953077,10.5770895 L45.4953077,1.38806951 C45.4953077,0.62145992 44.8763836,4.49185245e-08 44.112902,0 L6.08291996,0 C5.31943833,5.77900013e-16 4.70051418,0.621459889 4.70051418,1.38806951 L4.70051418,72.5127499 L1.3827404,72.5127499 C0.888774698,72.5126298 0.432280404,72.7771681 0.18526303,73.2066876 C-0.0617543434,73.6362071 -0.0617543434,74.1654316 0.18526303,74.5949511 C0.432280404,75.0244706 0.888774698,75.2890089 1.3827404,75.2888888 L75.6179289,75.2888888 C76.3812798,75.2887033 77,74.6672978 77,73.9008194 C77,73.134341 76.3812798,72.5129354 75.6179289,72.5127499 Z M7.46532565,2.77613894 L42.7304962,2.77613894 L42.7304962,72.5127499 L7.46532565,72.5127499 L7.46532565,2.77613894 Z M45.4953077,72.5127499 L45.4953077,13.5475582 L63.2453974,20.2241724 C64.8066348,20.8131801 65.8416161,22.3112069 65.8443203,23.9858407 L65.8443203,72.5682726 L45.4953077,72.5127499 Z" id="Shape"></path>
                        <path d="M20.0544158,13.6888889 L15.0522161,13.6888889 C14.5651855,13.6887682 14.1151002,13.9547132 13.8715509,14.3865167 C13.6280016,14.8183202 13.6280016,15.3503588 13.8715509,15.7821623 C14.1151002,16.2139658 14.5651855,16.4799107 15.0522161,16.47979 L20.0407858,16.47979 C20.7934196,16.4796035 21.4034531,15.8548937 21.4034531,15.0843395 C21.4034531,14.3137853 20.7934196,13.6890755 20.0407858,13.6888889 L20.0544158,13.6888889 Z M34.583966,13.6888889 L29.5817663,13.6888889 C28.8291326,13.6890755 28.219099,14.3137853 28.219099,15.0843395 C28.219099,15.8548937 28.8291326,16.4796035 29.5817663,16.47979 L34.5703361,16.47979 C35.3229698,16.4796035 35.9330034,15.8548937 35.9330034,15.0843395 C35.9330034,14.3137853 35.3229698,13.6890755 34.5703361,13.6888889 L34.583966,13.6888889 Z M20.0544158,29.3039808 L15.0522161,29.3039808 C14.2995823,29.3041673 13.6895487,29.9288772 13.6895487,30.6994313 C13.6895487,31.4699855 14.2995823,32.0946954 15.0522161,32.0948819 L20.0407858,32.0948819 C20.7934196,32.0946954 21.4034531,31.4699855 21.4034531,30.6994313 C21.4034531,29.9288772 20.7934196,29.3041673 20.0407858,29.3039808 L20.0544158,29.3039808 Z M34.583966,29.3039808 L29.5817663,29.3039808 C29.0947357,29.3038601 28.6446505,29.569805 28.4011011,30.0016085 C28.1575518,30.433412 28.1575518,30.9654507 28.4011011,31.3972541 C28.6446505,31.8290576 29.0947357,32.0950026 29.5817663,32.0948819 L34.5703361,32.0948819 C35.3229698,32.0946954 35.9330034,31.4699855 35.9330034,30.6994313 C35.9330034,29.9288772 35.3229698,29.3041673 34.5703361,29.3039808 L34.583966,29.3039808 Z M20.0544158,44.9051181 L15.0522161,44.9051181 C14.2994535,44.9051181 13.6892188,45.5298826 13.6892188,46.3005687 C13.6892188,47.0712548 14.2994535,47.6960193 15.0522161,47.6960193 L20.0407858,47.6960193 C20.7935484,47.6960193 21.4037831,47.0712548 21.4037831,46.3005687 C21.4037831,45.5298826 20.7935484,44.9051181 20.0407858,44.9051181 L20.0544158,44.9051181 Z M34.583966,44.9051181 L29.5817663,44.9051181 C28.8290037,44.9051181 28.2187691,45.5298826 28.2187691,46.3005687 C28.2187691,47.0712548 28.8290037,47.6960193 29.5817663,47.6960193 L34.5703361,47.6960193 C35.3230987,47.6960193 35.9333333,47.0712548 35.9333333,46.3005687 C35.9333333,45.5298826 35.3230987,44.9051181 34.5703361,44.9051181 L34.583966,44.9051181 Z M20.0544158,60.5202099 L15.0522161,60.5202099 C14.2994535,60.5202099 13.6892188,61.1449744 13.6892188,61.9156605 C13.6892188,62.6863466 14.2994535,63.3111111 15.0522161,63.3111111 L20.0407858,63.3111111 C20.7935484,63.3111111 21.4037831,62.6863466 21.4037831,61.9156605 C21.4037831,61.1449744 20.7935484,60.5202099 20.0407858,60.5202099 L20.0544158,60.5202099 Z M34.583966,60.5202099 L29.5817663,60.5202099 C28.8290037,60.5202099 28.2187691,61.1449744 28.2187691,61.9156605 C28.2187691,62.6863466 28.8290037,63.3111111 29.5817663,63.3111111 L34.5703361,63.3111111 C35.3230987,63.3111111 35.9333333,62.6863466 35.9333333,61.9156605 C35.9333333,61.1449744 35.3230987,60.5202099 34.5703361,60.5202099 L34.583966,60.5202099 Z" id="Shape"></path>
                    </g>
                </g>
            </g>
        </g>
    </g>
</svg>