<?xml version="1.0" encoding="UTF-8"?>
<svg width="152px" height="152px" viewBox="0 0 152 152" version="1.1" xmlns="http://www.w3.org/2000/svg" xmlns:xlink="http://www.w3.org/1999/xlink">
    <!-- Generator: Sketch 49.1 (51147) - http://www.bohemiancoding.com/sketch -->
    <title>pc24</title>
    <desc>Created with Sketch.</desc>
    <defs></defs>
    <g id="Page-1" stroke="none" stroke-width="1" fill="none" fill-rule="evenodd">
        <g id="创物云PC端" transform="translate(-1058.000000, -10224.000000)" fill="#FFFFFF" fill-rule="nonzero" stroke="#FFFFFF">
            <g id="Group-64" transform="translate(157.000000, 10160.000000)">
                <g id="Group-61" transform="translate(903.000000, 66.000000)">
                    <g id="广告" transform="translate(34.000000, 41.000000)">
                        <path d="M74.7691524,0 L6.23094039,0 C2.7898945,0 0,2.79588303 0,6.24396539 L0,59.3186464 C0,62.7669145 2.78989441,65.5631692 6.23094039,65.5631692 L74.7691524,65.5631692 C78.2101056,65.5631692 81,62.7669146 81,59.3186464 L81,6.2439653 C81,2.79588303 78.2101056,0 74.7691524,0 Z M78.5637202,59.8006663 C78.5637202,61.5559658 77.1433295,62.9791741 75.3916624,62.9791741 L5.60870833,62.9791741 C3.85722671,62.9791741 2.43655786,61.5559658 2.43655786,59.8006663 L2.43655786,5.76166673 C2.43655786,4.00636717 3.85713405,2.58315888 5.60870833,2.58315888 L75.3916624,2.58315888 C77.1432367,2.58315888 78.5637202,4.00627431 78.5637202,5.76166673 L78.5637202,59.8006663 Z M52.4417474,31.5684529 L52.4015197,31.5387272 C52.2641522,31.401339 52.1110273,31.2890318 51.9488189,31.2023629 L36.0281882,19.379172 C35.6866234,18.9731383 35.1676487,18.713782 34.5867566,18.713782 C33.5604863,18.713782 32.7266416,19.5227841 32.7266416,20.5211943 L32.7266416,45.1492658 C32.7266416,46.1478618 33.5604863,46.9568639 34.5867566,46.9568639 C34.6265209,46.9568639 34.6655436,46.9552847 34.7045664,46.9529623 C34.9694761,46.9401432 35.229844,46.8701021 35.4666686,46.7420032 C35.6412977,46.6505968 35.798779,46.5329947 35.9340146,46.3947704 L51.9490968,34.5017242 C52.1113054,34.4149624 52.2642449,34.3027481 52.4017977,34.1653599 L52.4420254,34.1351697 C52.7873906,33.7890517 52.9579413,33.3335062 52.9576632,32.8729443 C52.9576632,32.8660702 52.958034,32.8591033 52.9584047,32.8519506 C52.958034,32.8450765 52.9576632,32.8380167 52.9576632,32.8308639 C52.957756,32.3704881 52.7871126,31.9148496 52.4417474,31.5684529 Z M34.9741107,44.024893 L34.9741107,21.6791013 L50.0189078,32.8520436 L34.696039,44.024893 L34.9741107,44.024893 Z" id="Shape"></path>
                    </g>
                </g>
            </g>
        </g>
    </g>
</svg>