<?xml version="1.0" encoding="UTF-8"?>
<svg width="152px" height="152px" viewBox="0 0 152 152" version="1.1" xmlns="http://www.w3.org/2000/svg" xmlns:xlink="http://www.w3.org/1999/xlink">
    <!-- Generator: Sketch 49.1 (51147) - http://www.bohemiancoding.com/sketch -->
    <title>pc25</title>
    <desc>Created with Sketch.</desc>
    <defs></defs>
    <g id="Page-1" stroke="none" stroke-width="1" fill="none" fill-rule="evenodd">
        <g id="创物云PC端" transform="translate(-878.000000, -10224.000000)" fill="#FFFFFF" fill-rule="nonzero">
            <g id="Group-64" transform="translate(157.000000, 10160.000000)">
                <g id="Group-62" transform="translate(723.000000, 66.000000)">
                    <g id="电商-2" transform="translate(30.000000, 36.000000)">
                        <path d="M38.3363229,72.5784753 C38.3363229,74.8396232 40.1693454,76.6726457 42.4304933,76.6726457 C44.6916412,76.6726457 46.5246637,74.8396232 46.5246637,72.5784753 C46.5246637,70.3173275 44.6916412,68.4843049 42.4304933,68.4843049 C40.1693454,68.4843049 38.3363229,70.3173275 38.3363229,72.5784753 Z" id="Shape"></path>
                        <path d="M62.529148,72.5784753 C62.529148,74.8396232 64.3621705,76.6726457 66.6233184,76.6726457 C68.8844663,76.6726457 70.7174888,74.8396232 70.7174888,72.5784753 C70.7174888,70.3173275 68.8844663,68.4843049 66.6233184,68.4843049 C64.3621705,68.4843049 62.529148,70.3173275 62.529148,72.5784753 Z" id="Shape"></path>
                        <path d="M78.7476458,64.3901345 L32.7105605,64.3901345 C27.8645516,64.3901345 23.8262108,61.1706278 23.0185426,56.3413677 L12.1150225,6.84145182 C12.1150225,6.03657517 11.3073543,5.23169844 10.4996861,5.23169844 L1.61533634,4.02438342 C0.807668134,4.02438342 0,2.8170684 0,1.60975338 C0,0.804876655 1.21150224,0 2.42300448,0 L10.9035202,1.20731502 C13.3265246,1.60975338 15.3456951,3.62194506 15.7495291,6.0365751 L26.6530493,55.536491 C27.4607175,58.3535594 29.883722,60.3657512 32.7105605,60.3657512 L78.7476458,60.3657512 C79.959148,60.3657512 80.7668161,61.1706278 80.7668161,62.3779429 C80.7668161,63.5852579 79.959148,64.3901345 78.7476458,64.3901345 Z" id="Shape"></path>
                        <path d="M68.1671688,52.8520179 L34.2786837,52.8520179 C33.0683807,52.8520179 32.261512,52.0406278 32.261512,50.8235426 C32.261512,49.6064574 33.0683807,48.7950672 34.2786837,48.7950672 L68.1671687,48.7950672 C70.9912091,48.7950672 73.4118152,46.7665919 74.2186838,43.9267265 L78.6564617,23.6419731 C79.059896,22.0191928 78.6564617,19.9907175 77.4461586,18.3679372 C76.2358556,16.7451569 74.6221183,16.3394618 72.6049465,16.3394618 L26.2099968,16.3394618 C24.9996938,16.3394618 24.1928251,15.5280717 24.1928251,14.3109865 C24.1928251,13.0939013 24.9996938,12.2825112 26.2099968,12.2825112 L72.6049465,12.2825112 C75.8324212,12.2825112 78.6564617,13.4995964 80.6736334,15.9337668 C82.6908052,18.3679372 83.4976739,21.6134978 82.6908051,24.4533632 L78.2530273,44.7381166 C77.0427243,49.6064574 73.0083809,52.8520179 68.1671688,52.8520179 Z" id="Shape"></path>
                    </g>
                </g>
            </g>
        </g>
    </g>
</svg>