<?xml version="1.0" encoding="UTF-8"?>
<svg width="159px" height="159px" viewBox="0 0 159 159" version="1.1" xmlns="http://www.w3.org/2000/svg" xmlns:xlink="http://www.w3.org/1999/xlink">
    <!-- Generator: Sketch 49.1 (51147) - http://www.bohemiancoding.com/sketch -->
    <title>pc26</title>
    <desc>Created with Sketch.</desc>
    <defs></defs>
    <g id="Page-1" stroke="none" stroke-width="1" fill="none" fill-rule="evenodd">
        <g id="创物云PC端" transform="translate(-694.000000, -10160.000000)" fill="#FFFFFF" fill-rule="nonzero">
            <g id="Group-64" transform="translate(157.000000, 10160.000000)">
                <g id="Group-54" transform="translate(537.000000, 0.000000)">
                    <g id="汽车" transform="translate(39.000000, 45.000000)">
                        <path d="M74.6481514,29.4928049 L70.8779074,11.7580531 C69.4991427,5.27220898 62.9859558,1.15701281e-15 56.3563089,1.15701281e-15 L26.6466514,0 C20.0170046,0 13.5038176,5.27533541 12.1250529,11.7580531 L8.35203056,29.4928049 C4.15438101,31.3638016 1.22494029,35.3764053 0.887600189,39.9183026 L0.0323262661,51.2952781 C-0.334186688,56.1837464 2.44672725,60.5892385 6.80737426,62.3725793 C7.81105938,66.3007693 11.3512777,69.1666667 15.5459174,69.1666667 C19.4410722,69.1666667 22.7602947,66.7340699 24.0227152,63.2222745 L58.980245,63.2222745 C60.2426655,66.7315224 63.5589939,69.1666667 67.4540329,69.1666667 C71.648904,69.1666667 75.194795,66.3007693 76.1954702,62.3725793 C80.5563488,60.5892385 83.3342528,56.1837464 82.9676241,51.2952781 L82.1157073,39.9181867 C81.7751258,35.3762895 78.8459167,31.3638016 74.6481514,29.4928049 Z M75.1449002,59.2747469 C73.9805329,59.5452413 73.1359094,60.5561215 73.0743222,61.7545876 C72.9637663,63.9911455 71.1751925,65.4073041 69.0265887,65.9819889 C65.4134381,66.9488674 62.8292095,64.9259491 62.6357657,62.7411511 C62.5159486,61.3583411 61.7087172,60.2983644 60.320344,60.2983644 L22.6794905,60.1800231 C21.2910016,60.1800231 20.1327698,61.2402314 20.0099428,62.6231572 C19.3378096,66.5551683 15.6966438,66.3583188 13.8550495,66.1003302 C11.652499,65.7917396 10.036184,63.9943877 9.92562813,61.754935 C9.86716668,60.5592479 9.0224273,59.548252 7.85817573,59.2750943 C4.78611216,58.5622675 2.81069319,55.8304594 3.0504431,52.6347812 L3.95364393,40.622908 C4.18714251,37.5012221 6.54030362,34.6682102 9.67997414,33.737112 C10.7028763,33.4297951 11.446321,32.5479093 11.5753993,31.4846903 C11.5907961,31.3310319 11.6030671,31.1772577 11.6152225,31.0238309 C11.6214738,30.944049 11.6214738,30.8640354 11.6368706,30.7932854 L15.7195652,11.5976786 C16.6625893,7.16671181 21.2830137,3.42402361 25.8142988,3.42402361 L57.1886613,3.42402361 C61.7170523,3.42402361 66.3404865,7.16671189 67.2836263,11.5976786 L71.3631953,30.7902748 C71.3785921,30.8701725 71.3785921,30.9499544 71.3847276,31.0269573 C71.3939888,31.1743629 71.4063757,31.3248949 71.4246666,31.4756584 C71.550735,32.5387616 72.2973054,33.4267845 73.3233332,33.7339855 C76.4597623,34.6682102 78.8128077,37.5015694 79.046422,40.6200131 L79.9464972,52.6316548 C80.1892571,55.8268698 78.2140697,58.5618043 75.1449002,59.2747469 Z M59.1960316,46.3164908 C59.1960316,43.6061045 61.3931411,41.4085692 64.1030909,41.4085692 C66.8131564,41.4085692 69.0102659,43.6061045 69.0102659,46.3164908 C69.0102659,49.0271086 66.8131564,51.2249913 64.1030909,51.2249913 C61.3930253,51.2249913 59.1960316,49.0273402 59.1960316,46.3164908 Z M21.9545682,31.8903162 L61.0427195,31.8903162 C61.9853963,31.8903162 62.7939011,31.5411977 63.2913445,30.9417331 C63.8294216,30.3220046 64.044745,29.4723094 63.9053636,28.5529064 C63.8934398,28.491883 63.8818633,28.4308597 63.8676242,28.3696047 L60.7955606,15.0227445 C60.4117986,12.9191179 58.328718,11.1585885 56.1849763,11.1585885 L26.8125431,11.1585884 C24.6685698,11.1585884 22.5858364,12.9161072 22.1988331,15.0227444 L19.1297794,28.3668256 C19.1153088,28.427849 19.1036165,28.4889881 19.09204,28.5500115 C18.9495329,29.4696461 19.1677505,30.3192254 19.6737606,30.9039844 C20.206165,31.5413135 21.0150172,31.8903162 21.9545682,31.8903162 Z M25.6147195,15.0849256 L57.3915979,15.0849256 L60.079668,27.7248646 L22.9235237,27.7248646 L25.6147195,15.0849256 Z M13.9674576,46.3164908 C13.9674576,43.5917461 16.1757963,41.3829788 18.8999852,41.3829788 C21.6242899,41.3829788 23.8327443,43.5917461 23.8327443,46.3164908 C23.8327443,49.0414671 21.624174,51.2505818 18.8999852,51.2505818 C16.1757963,51.2508133 13.9674576,49.0416986 13.9674576,46.3164908 Z" id="Shape"></path>
                    </g>
                </g>
            </g>
        </g>
    </g>
</svg>