<?xml version="1.0" encoding="UTF-8"?>
<svg width="152px" height="152px" viewBox="0 0 152 152" version="1.1" xmlns="http://www.w3.org/2000/svg" xmlns:xlink="http://www.w3.org/1999/xlink">
    <!-- Generator: Sketch 49.1 (51147) - http://www.bohemiancoding.com/sketch -->
    <title>pc27</title>
    <desc>Created with Sketch.</desc>
    <defs></defs>
    <g id="Page-1" stroke="none" stroke-width="1" fill="none" fill-rule="evenodd">
        <g id="创物云PC端" transform="translate(-337.000000, -10224.000000)" fill="#FFFFFF" fill-rule="nonzero">
            <g id="Group-64" transform="translate(157.000000, 10160.000000)">
                <g id="Group-56" transform="translate(182.000000, 66.000000)">
                    <g id="保险" transform="translate(38.000000, 29.000000)">
                        <path d="M50.6716604,30.5581395 C50.1248439,30.5581395 49.7602996,30.7460963 49.3957553,31.12201 L30.6217228,51.9852159 L22.7840199,43.3392027 C22.4194756,42.963289 21.8726591,42.7753322 21.5081148,42.7753322 C21.1435705,42.7753322 20.596754,42.963289 20.2322097,43.3392027 C19.5031211,44.0910299 19.5031211,45.4067276 20.2322097,46.1585548 L29.3458177,56.3082226 C29.7103621,56.6841362 30.2571786,56.872093 30.6217228,56.872093 C30.6217228,56.872093 30.6217228,56.872093 30.6217228,56.872093 C30.6217228,56.872093 30.6217228,56.872093 30.6217228,56.872093 C31.1685393,56.872093 31.5330837,56.6841362 31.8976279,56.3082226 L51.9475656,34.129319 C52.6766542,33.3774918 52.6766542,32.061794 51.9475656,31.3099668 C51.5830211,30.7460964 51.2184769,30.5581395 50.6716604,30.5581395 Z" id="Shape"></path>
                        <path d="M69.8975,15.5160368 C58.4,15.5160368 43.07,0 36.5,0 C29.93,0 14.6,15.5160368 3.10250003,15.5160368 C3.10250003,15.5160368 0,16.2729166 0,20.0573159 C0,23.8417151 0,56.0091085 0,56.0091085 C0,56.0091085 6.93500002,80.9861434 36.5,90.8255814 C66.065,80.9861434 73,56.0091086 73,56.0091086 C73,56.0091086 73,24.0309351 73,20.057316 C73,16.2729167 69.8975,15.5160368 69.8975,15.5160368 Z M69.35,55.4414487 C68.255,58.658188 60.7725,78.337064 36.5,86.8519622 C12.045,78.147844 4.74500002,58.658188 3.65000003,55.4414487 L3.65000003,20.0573159 C3.65000003,19.489656 3.8325,19.300436 3.8325,19.111216 C11.315,18.7327761 19.1625,13.6238371 26.28,9.08255805 C30.1125,6.8119186 34.8575,3.78439925 36.5,3.78439925 C38.1425,3.78439925 42.8875,6.8119186 46.72,9.27177816 C53.655,13.8130572 61.685,18.9219962 69.1675,19.3004361 C69.35,19.4896561 69.35,19.6788761 69.35,20.246536 L69.35,55.4414487 Z" id="Shape"></path>
                    </g>
                </g>
            </g>
        </g>
    </g>
</svg>