<?xml version="1.0" encoding="UTF-8"?>
<svg width="152px" height="152px" viewBox="0 0 152 152" version="1.1" xmlns="http://www.w3.org/2000/svg" xmlns:xlink="http://www.w3.org/1999/xlink">
    <!-- Generator: Sketch 49.1 (51147) - http://www.bohemiancoding.com/sketch -->
    <title>pc28</title>
    <desc>Created with Sketch.</desc>
    <defs></defs>
    <g id="Page-1" stroke="none" stroke-width="1" fill="none" fill-rule="evenodd">
        <g id="创物云PC端" transform="translate(-157.000000, -10224.000000)" fill="#FFFFFF" fill-rule="nonzero">
            <g id="Group-64" transform="translate(157.000000, 10160.000000)">
                <g id="Group-55" transform="translate(2.000000, 66.000000)">
                    <g id="金融-2" transform="translate(32.000000, 32.000000)">
                        <path d="M85,44.1999237 C84.879374,45.1771436 84.7554079,46.1548406 84.6388855,47.1325377 C83.4371109,57.2091637 79.1760742,65.7877993 71.8955705,72.8301766 C65.613285,78.9059269 58.0824633,82.6155453 49.478891,84.0386217 C46.8979338,84.4652966 44.2438758,84.4668235 41.6206423,84.6115933 C40.6459003,84.6648441 40.0157631,83.988711 39.997631,83.0471825 C39.9807396,82.1488846 40.6319672,81.4825809 41.6009833,81.4269443 C43.3232437,81.3288406 45.0540931,81.3129035 46.7673829,81.1340646 C53.9711593,80.3830177 60.4878257,77.8130438 66.2243358,73.4098283 C74.5982988,66.9828897 79.8456248,58.5167679 81.2018083,48.0641413 C83.2196215,32.5107894 77.6975469,19.9389125 65.1363161,10.4996744 C64.8880976,10.3130101 64.6215562,10.1495358 64.3571142,9.98663396 C64.2946063,9.94846131 64.2039459,9.9562867 64.0293055,9.92603487 C64.1177709,10.2969776 64.1782747,10.6203 64.2724661,10.9333157 C64.918445,13.0694574 65.5755894,15.2019726 66.2201368,17.3383051 C66.5598746,18.4634441 66.1905529,19.3511491 65.2849037,19.6328633 C64.3204684,19.9327095 63.4965089,19.3967654 63.1834921,18.21933 C62.1470449,14.3162554 61.1187316,10.4110255 60.0985588,6.5036657 C59.7870689,5.31201091 60.4298985,4.43785717 61.6522864,4.29671378 C65.414214,3.86154554 69.1751872,3.41148997 72.9373057,2.97107299 C73.2186303,2.9386542 73.5015558,2.92208654 73.7847414,2.92144854 C74.7263685,2.91782214 75.3937242,3.5051084 75.4408676,4.36656974 C75.4903013,5.28366772 74.8885074,5.97506989 73.922068,6.06677969 C71.4164067,6.30488161 68.909123,6.52800076 66.4030799,6.75942247 C66.2425633,6.77421437 66.0846234,6.80914235 65.7061403,6.869646 C66.075462,7.15765867 66.2938103,7.34432294 66.5281912,7.50817905 C76.1040242,14.2052847 81.9790061,23.3147111 84.2247108,34.7613536 C84.5449804,36.3917076 84.6201808,38.0695865 84.8169615,39.7245619 C84.8598105,40.0851026 84.9379692,40.4416351 85,40.7998855 L85,44.1999237 Z M41.3100113,0 C41.4863695,0.0830255195 41.6628232,0.165955607 41.8391814,0.249267422 C42.5785882,0.599692373 43.0504038,1.39635563 42.9323545,2.09520147 C42.7993223,2.88661599 42.2491571,3.2583222 41.2624861,3.35489901 C39.1826422,3.55816839 37.086193,3.68604677 35.0336426,4.05288596 C19.850896,6.76553009 7.3220166,19.0619913 4.19194397,34.2535618 C0.994782679,49.771604 7.10739014,65.2488015 20.0231507,74.3346563 C20.3869373,74.5899359 20.7628437,74.8294693 21.2990759,74.9716624 C21.2109922,74.6339299 21.1311156,74.2938115 21.0332025,73.9585602 C20.3447564,71.5990131 19.637033,69.2451919 18.9675778,66.8798235 C18.5536895,65.4192424 19.3961627,64.3869584 20.7614123,64.6366076 C21.5889982,64.7879621 21.8647011,65.4224871 22.0510797,66.1419461 C23.0143698,69.8605351 23.9851991,73.577788 24.9545968,77.2947546 C25.0043169,77.486095 25.0746502,77.6723776 25.1177855,77.8654358 C25.3711573,78.9899067 24.7959889,79.863965 23.6552908,80.0012911 C19.7537383,80.4718484 15.8503504,80.9270608 11.9452176,81.3669178 C11.5344784,81.412725 11.0832762,81.3993645 10.695059,81.2753988 C10.0031773,81.0542838 9.62335815,80.2922622 9.74236179,79.5669818 C9.86165174,78.8367389 10.4685035,78.3169228 11.2971392,78.2471623 C13.4395865,78.0666057 15.5827973,77.8927292 17.7249584,77.7089279 C18.0299589,77.6823979 18.331333,77.612542 18.8186086,77.5325703 C18.5160893,77.2796764 18.3479382,77.1201147 18.1610824,76.987083 C8.77439549,70.2998069 3.00877862,61.2731197 0.783210039,49.9866115 C0.46713941,48.3833601 0.387740025,46.7340152 0.191913658,45.1071922 C0.141525586,44.6895834 0.0646074322,44.2754101 0,43.8596145 L0,40.6300172 C0.134940782,39.39914 0.241442841,38.1647318 0.409212215,36.9385308 C1.36276829,29.981374 3.78750335,23.5803927 7.91779828,17.8942898 C15.2914436,7.74322716 25.2597882,1.92972302 37.7055464,0.35910923 C38.6238881,0.243350661 39.5416572,0.119862129 40.459808,9.54316317e-05 L41.3099158,9.54316317e-05 L41.3100113,0 Z M45.1155513,53.3307267 C45.0926476,53.8074077 45.064018,54.1417047 45.0631591,54.4760018 C45.0586738,56.4023847 44.9576114,58.3361158 45.09761,60.2516195 C45.1877932,61.4801109 43.7249168,62.6361697 42.6062635,62.6487667 C41.3167869,62.6627951 40.1542349,61.5242003 40.1528034,60.2616399 C40.1503222,58.2222659 40.1314266,56.1827011 40.1635872,54.144186 C40.1734167,53.5203494 39.9904736,53.310877 39.3479303,53.3175572 C36.4312435,53.3481907 33.5134116,53.3324445 30.596343,53.3299633 C29.3285296,53.329009 28.2503393,52.1787715 28.2567333,50.8439693 C28.2633181,49.5243407 29.3605947,48.3679002 30.6287899,48.3651326 C33.5178014,48.3593113 36.4068129,48.3447103 39.2955382,48.3767753 C39.964707,48.384219 40.1992788,48.1812359 40.1633009,47.510447 C40.1151078,46.6068048 40.1178753,45.6967688 40.1625375,44.792745 C40.1946026,44.1440007 39.9391313,43.9743233 39.3225454,43.9793812 C36.4053815,44.0050523 33.4880267,43.9927416 30.5706719,43.9901649 C29.3094432,43.9885426 28.2735293,42.9097834 28.2561607,41.5889142 C28.2383149,40.2132672 29.2628724,39.0905141 30.5596017,39.0853608 C32.5138573,39.0776308 34.4682082,39.0863151 36.4223684,39.0799212 C36.7497,39.0789669 37.0772224,39.0377404 37.5544776,39.0049119 C37.3439547,38.6117336 37.2128312,38.3442387 37.0620487,38.088482 C34.5760464,33.8716445 32.0882308,29.6557613 29.5995563,25.4408324 C28.9434616,24.3297219 28.9071975,23.6444274 29.4761628,22.9510211 C30.1532525,22.1261101 31.4976978,21.7499186 32.4803607,22.1243923 C33.55063,22.5321717 34.2044343,23.3831355 34.7408573,24.3324894 C37.1629203,28.6181331 39.5732451,32.9106479 41.9896776,37.1995363 C42.1547749,37.4927023 42.334855,37.7776611 42.5886086,38.201473 C42.8157366,37.8515252 43.0022107,37.5957684 43.1569058,37.3218797 C45.5511027,33.0856695 47.9206781,28.8347629 50.3512345,24.6193569 C50.8079718,23.8273698 51.4126287,23.0631533 52.1113814,22.4805432 C53.3431217,21.4536988 55.4362307,21.9996632 56.0446094,23.4842931 C56.2122833,23.8921679 56.1028229,24.5598076 55.8692055,24.9631016 C53.332815,29.3469445 50.7456548,33.7014899 48.1738591,38.0649104 C48.0187821,38.3280154 47.8752525,38.5975143 47.6499376,39.0004266 C48.0981815,39.0344003 48.4204552,39.0784897 48.7426335,39.0797303 C50.7257095,39.0866014 52.7085946,39.0769628 54.6905254,39.0859334 C55.9215976,39.0916593 56.9462505,40.2290135 56.9428149,41.5604756 C56.9403337,42.9246708 55.9513724,43.9880654 54.6723933,43.9897832 C51.783191,43.9930279 48.8937023,44.0163132 46.0053588,43.9742278 C45.2428575,43.9631578 45.0039913,44.2130932 45.0491306,44.9453401 C45.0997096,45.7633801 45.0980872,46.5896271 45.0497986,47.4080488 C45.0064725,48.1309434 45.2286381,48.3933804 45.9984877,48.3812606 C48.8300492,48.3364077 51.6630421,48.3616971 54.4950808,48.3641783 C55.6364469,48.3654189 56.6501251,49.163132 56.8941446,50.2410322 C57.1592546,51.411024 56.5211966,52.773406 55.4616156,53.2234616 C55.2154011,53.3272912 54.9134544,53.3257643 54.6365109,53.3265277 C51.8043768,53.333208 48.971861,53.3307267 46.1394407,53.3307267 L45.1154558,53.3307267 L45.1155513,53.3307267 Z" id="Shape"></path>
                    </g>
                </g>
            </g>
        </g>
    </g>
</svg>