<?xml version="1.0" encoding="UTF-8"?>
<svg width="152px" height="152px" viewBox="0 0 152 152" version="1.1" xmlns="http://www.w3.org/2000/svg" xmlns:xlink="http://www.w3.org/1999/xlink">
    <!-- Generator: Sketch 49.1 (51147) - http://www.bohemiancoding.com/sketch -->
    <title>pc20</title>
    <desc>Created with Sketch.</desc>
    <defs></defs>
    <g id="Page-1" stroke="none" stroke-width="1" fill="none" fill-rule="evenodd">
        <g id="创物云PC端" transform="translate(-518.000000, -10224.000000)" fill="#FFFFFF" fill-rule="nonzero" stroke="#FFFFFF">
            <g id="Group-64" transform="translate(157.000000, 10160.000000)">
                <g id="Group-63" transform="translate(363.000000, 66.000000)">
                    <g id="教育" transform="translate(37.000000, 40.000000)">
                        <path d="M37.598888,68.1600037 C37.5788038,68.1600037 37.5585082,68.1589601 37.5378955,68.1579165 L37.4993127,68.1560903 L37.4636896,68.1576556 C37.4386372,68.1589601 37.4199272,68.1600037 37.4010058,68.1600037 C36.8550327,68.1600037 36.319736,67.9745083 35.8528312,67.623737 C27.8026616,61.564354 18.4196412,60.292498 11.9658483,60.292498 C8.00217889,60.292498 4.62993629,60.7572799 2.49889708,61.1470548 C2.39192229,61.1666218 2.2829391,61.1766662 2.17480156,61.1766662 C0.975563498,61.1766662 0,59.9701639 0,58.4872451 L0,4.47928128 C0,3.27356176 0.661615759,2.20624626 1.60885,1.88365142 C5.27939581,0.63397137 9.00353477,0.000260925014 12.6777803,0.000260925014 C20.3452931,0.000260925014 26.5854535,2.77564641 30.4701603,5.10399088 C34.3359457,7.42098643 36.7105322,9.77881182 37.0756418,10.1518896 L37.0756418,11.5896739 L37.7202388,10.3414287 L37.7429657,10.3435159 L37.8756271,10.2025029 C37.8997281,10.1770658 40.3322417,7.62004819 44.5300505,5.10399088 C48.4147574,2.77538549 54.6550236,0 62.3230649,0 C65.9975219,0 69.7213437,0.633579983 73.3914666,1.8833905 C74.3392294,2.20598534 75.0006338,3.27317038 74.9999995,4.47875949 L74.9999995,58.4871147 C74.9999995,59.9700336 74.0246474,61.1765358 72.8260436,61.1765358 C72.7173775,61.1765358 72.6083944,61.1666218 72.5023709,61.1470548 C70.3700633,60.7571494 66.9966579,60.2923675 63.0333056,60.2923675 C56.5795127,60.2923675 47.1965979,61.564354 39.1461113,67.6238675 C38.6796293,67.9746388 38.1446497,68.1600037 37.598888,68.1600037 Z M62.3230649,2.16763402 C59.1247091,2.16763402 55.9165227,2.66933232 52.787616,3.65864062 C50.2744485,4.45423547 47.8047263,5.5660333 45.4470529,6.96311828 C41.4751384,9.31950878 39.1216931,11.7408618 39.0233863,11.8428711 L38.4774132,12.4280554 L38.5112392,65.5574602 L39.142623,65.1139412 C45.6517003,60.5416514 53.9131768,58.1249945 63.0341512,58.1249945 C67.1059582,58.1249945 70.5697425,58.6026906 72.7584973,59.003423 L73.2434778,59.0921268 L73.2434778,4.3124399 L73.0833328,4.04006707 L72.9313271,3.97536545 L72.924879,3.97314786 C69.4057046,2.77499417 65.8387509,2.16763402 62.3230649,2.16763402 Z M11.9667997,58.1247335 C21.0876685,58.1247335 29.3491449,60.5413904 35.8583279,65.1136802 L36.4898174,65.5571992 L36.522375,12.4280553 L35.9825328,11.8483499 C35.7308461,11.5881086 33.438182,9.26772142 29.5541094,6.96403138 C27.1999243,5.56851182 24.7302021,4.45619221 22.2135463,3.65811884 C19.0856967,2.668941 15.8775102,2.16750356 12.6780974,2.16750356 C9.16251703,2.16750356 5.59556338,2.77486371 2.07638898,3.97275647 L2.04827111,3.9822791 L2.0377005,3.98788832 L1.9100073,4.04019746 L1.82279959,4.20338636 L1.75768453,4.33657253 L1.75768453,59.0918659 L2.24266505,59.0029012 C4.42793155,58.6024296 7.88896743,58.1247335 11.9667997,58.1247335 Z" id="Shape"></path>
                    </g>
                </g>
            </g>
        </g>
    </g>
</svg>