<?xml version="1.0" encoding="UTF-8"?>
<svg width="152px" height="152px" viewBox="0 0 152 152" version="1.1" xmlns="http://www.w3.org/2000/svg" xmlns:xlink="http://www.w3.org/1999/xlink">
    <!-- Generator: Sketch 49.1 (51147) - http://www.bohemiancoding.com/sketch -->
    <title>pc21</title>
    <desc>Created with Sketch.</desc>
    <defs></defs>
    <g id="Page-1" stroke="none" stroke-width="1" fill="none" fill-rule="evenodd">
        <g id="创物云PC端" transform="translate(-1599.000000, -10224.000000)" fill="#FFFFFF" fill-rule="nonzero">
            <g id="Group-64" transform="translate(157.000000, 10160.000000)">
                <g id="Group-58" transform="translate(1444.000000, 66.000000)">
                    <g id="其他-2" transform="translate(37.000000, 37.000000)">
                        <path d="M33.3124073,35.1170184 L35.1603681,35.1170184 L35.1603681,33.2689308 L35.1603681,17.5606938 C35.1603681,7.86463968 27.3000977,0.00436934673 17.6040436,0.00436934673 C7.90811623,0.00436934673 0.0478458961,7.86451287 0.0478458961,17.5606938 C0.0478458961,27.256748 7.90811623,35.1170183 17.6040436,35.1170183 L33.3124073,35.1170184 Z M3.74389427,17.5606938 C3.74389427,9.90590749 9.94938416,3.7004176 17.6040437,3.7004176 C25.2589568,3.7004176 31.4641931,9.90590749 31.4641931,17.5606938 L31.464193,33.2689308 L33.3122805,31.4209701 L17.6041705,31.4209701 C9.94938416,31.4209701 3.74389427,25.2154802 3.74389427,17.5606938 Z M33.3124073,42.5091149 L31.4643198,40.6611542 L31.4643198,56.3693912 C31.4643198,64.0241775 25.2589567,70.2295406 17.6041704,70.2295406 C9.94938404,70.2295406 3.74402095,64.0240507 3.74402095,56.3693912 C3.74402095,48.7147316 9.94951084,42.5092417 17.6041704,42.5092417 L33.3124073,42.5092417 L33.3124073,42.5091149 Z M0.0478458961,56.3693912 C0.0478458961,66.0654453 7.90811623,73.9257157 17.6040436,73.9257157 C27.3000977,73.9257157 35.1603681,66.0654453 35.1603681,56.3693912 L35.1603681,40.6611542 L35.1603681,38.8130667 L33.3124073,38.8130667 L17.6041705,38.8130667 C7.90811623,38.8129399 0.0478458961,46.6732101 0.0478458961,56.3693912 Z M42.5525915,40.6611542 L40.704504,42.5091149 L56.4128677,42.5091149 C64.0677809,42.5091149 70.2730171,48.7146048 70.2730171,56.3692644 C70.2730171,64.0239239 64.0676541,70.2294138 56.4128677,70.2294138 C48.7580814,70.2294138 42.5527183,64.0239239 42.5527183,56.3692644 L42.5527184,40.6611542 L42.5525915,40.6611542 Z M56.4128677,73.9257157 C66.1087951,73.9257157 73.9690654,66.0654453 73.9690654,56.3693912 C73.9690654,46.673337 66.1087951,38.8130667 56.4128677,38.8130667 L40.704504,38.8130667 L38.8565432,38.8130667 L38.8565432,40.6611542 L38.8565432,56.3693912 C38.8564164,66.0654454 46.7166868,73.9257157 56.4128677,73.9257157 Z M40.704504,31.4209701 L42.5525915,33.2689308 L42.5525915,17.5606938 C42.5525915,9.90590749 48.7580814,3.7004176 56.4127409,3.7004176 C64.0676541,3.7004176 70.2728903,9.90590749 70.2728903,17.5606938 C70.2728903,25.2154802 64.0675273,31.4209701 56.4127409,31.4209701 L40.704504,31.4209701 Z M73.9690654,17.5606938 C73.9690654,7.86463968 66.1087951,0.00436934673 56.4128677,0.00436934673 C46.7168136,0.00436934673 38.8565432,7.86451287 38.8565432,17.5606938 L38.8565432,33.2689308 L38.8565432,35.1168915 L40.704504,35.1168915 L56.4128677,35.1168915 C66.1087951,35.1170184 73.9690654,27.2567481 73.9690654,17.5606938 Z" id="Shape"></path>
                    </g>
                </g>
            </g>
        </g>
    </g>
</svg>