<?xml version="1.0" encoding="UTF-8"?>
<svg width="368px" height="138px" viewBox="0 0 368 138" version="1.1" xmlns="http://www.w3.org/2000/svg" xmlns:xlink="http://www.w3.org/1999/xlink">
    <!-- Generator: Sketch 49.1 (51147) - http://www.bohemiancoding.com/sketch -->
    <title>pcdalogo</title>
    <desc>Created with Sketch.</desc>
    <defs>
        <linearGradient x1="0%" y1="50.0506461%" x2="100%" y2="50.0506461%" id="linearGradient-1">
            <stop stop-color="#003C81" offset="0%"></stop>
            <stop stop-color="#2492D4" offset="50%"></stop>
            <stop stop-color="#99DCFE" offset="100%"></stop>
        </linearGradient>
        <linearGradient x1="-1.30582855%" y1="22.4629134%" x2="100%" y2="22.4629134%" id="linearGradient-2">
            <stop stop-color="#006D74" offset="0%"></stop>
            <stop stop-color="#009398" offset="100%"></stop>
        </linearGradient>
        <linearGradient x1="-178.733294%" y1="22.4629134%" x2="846.299585%" y2="22.4629134%" id="linearGradient-3">
            <stop stop-color="#006D74" offset="0%"></stop>
            <stop stop-color="#009398" offset="100%"></stop>
        </linearGradient>
        <linearGradient x1="-404.55372%" y1="22.4629134%" x2="615.811826%" y2="22.4629134%" id="linearGradient-4">
            <stop stop-color="#006D74" offset="0%"></stop>
            <stop stop-color="#009398" offset="100%"></stop>
        </linearGradient>
        <linearGradient x1="-371.807684%" y1="22.4629134%" x2="646.61106%" y2="22.4629134%" id="linearGradient-5">
            <stop stop-color="#006D74" offset="0%"></stop>
            <stop stop-color="#009398" offset="100%"></stop>
        </linearGradient>
        <linearGradient x1="-603.227099%" y1="22.4629134%" x2="416.248243%" y2="22.4629134%" id="linearGradient-6">
            <stop stop-color="#006D74" offset="0%"></stop>
            <stop stop-color="#009398" offset="100%"></stop>
        </linearGradient>
        <linearGradient x1="0%" y1="50%" x2="99.0403721%" y2="50%" id="linearGradient-7">
            <stop stop-color="#013F5F" offset="0%"></stop>
            <stop stop-color="#00748A" offset="53.1272579%"></stop>
            <stop stop-color="#054644" offset="100%"></stop>
        </linearGradient>
        <linearGradient x1="0%" y1="50%" x2="100%" y2="50%" id="linearGradient-8">
            <stop stop-color="#003F85" offset="0%"></stop>
            <stop stop-color="#0079B7" offset="41.537333%"></stop>
            <stop stop-color="#95D4F5" offset="100%"></stop>
        </linearGradient>
    </defs>
    <g id="Page-1" stroke="none" stroke-width="1" fill="none" fill-rule="evenodd">
        <g id="创物云PC端" transform="translate(-129.000000, -62.000000)">
            <g id="Group-76" transform="translate(129.000000, 62.000000)">
                <g id="Group-4">
                    <g id="Group" transform="translate(161.000000, 13.000000)" fill="url(#linearGradient-1)">
                        <path d="M129.2462,25.2733 C132.9632,30.0713 132.0842,36.9983 127.2852,40.7143 L105.1602,57.8493 L105.1502,57.8363 C104.6782,58.2043 104.0912,58.4313 103.4452,58.4313 C101.9002,58.4313 100.6482,57.1783 100.6482,55.6343 C100.6482,54.7353 101.0802,53.9433 101.7392,53.4313 L101.7282,53.4183 L123.8522,36.2833 C126.2062,34.4603 126.6382,31.0593 124.8142,28.7053 C123.9322,27.5653 122.6562,26.8363 121.2252,26.6543 C119.8062,26.4793 118.3802,26.8593 117.2362,27.7423 L107.7932,35.0563 L107.7912,35.0543 C107.3312,35.3853 106.7712,35.5863 106.1612,35.5863 C104.6172,35.5863 103.3642,34.3343 103.3642,32.7893 C103.3642,31.9253 103.7652,31.1633 104.3802,30.6493 L104.3612,30.6253 L113.8052,23.3103 C116.1282,21.5083 119.0172,20.7223 121.9322,21.0933 C124.8502,21.4643 127.4462,22.9493 129.2462,25.2733 Z M101.5137,42.5204 L93.3057,42.5204 L93.3057,63.9814 L93.2987,63.9814 C93.2987,65.5264 92.0467,66.7794 90.5017,66.7794 C88.9567,66.7794 87.7047,65.5264 87.7047,63.9814 L87.7007,63.9814 L87.7007,42.5204 L76.6777,42.5204 L76.6777,42.5144 C75.1327,42.5144 73.8807,41.2624 73.8807,39.7174 C73.8807,38.1724 75.1327,36.9194 76.6777,36.9194 L76.6777,36.9144 L87.7007,36.9144 L87.7007,22.5584 L86.9277,22.5584 C80.8587,22.5584 75.9217,17.6204 75.9217,11.5504 L75.9277,11.5504 C75.9277,10.0054 77.1797,8.7534 78.7247,8.7534 C80.2687,8.7534 81.5217,10.0054 81.5217,11.5504 L81.5267,11.5504 C81.5267,14.5294 83.9497,16.9524 86.9277,16.9524 L87.7007,16.9524 L87.7007,2.8024 L87.7047,2.8024 C87.7047,1.2574 88.9567,0.0054 90.5017,0.0054 C92.0467,0.0054 93.2987,1.2574 93.2987,2.8024 L93.3057,2.8024 L93.3057,16.9524 L101.5137,16.9524 L101.5137,16.9584 C103.0587,16.9584 104.3107,18.2094 104.3107,19.7544 C104.3107,21.2994 103.0587,22.5514 101.5137,22.5514 L101.5137,22.5584 L93.3057,22.5584 L93.3057,36.9144 L101.5137,36.9144 L101.5137,36.9194 C103.0587,36.9194 104.3107,38.1724 104.3107,39.7174 C104.3107,41.2624 103.0587,42.5144 101.5137,42.5144 L101.5137,42.5204 Z M130.0489,8.204 C136.1179,8.204 141.0549,13.141 141.0549,19.211 L141.0549,54.281 C141.0549,60.35 136.1179,65.287 130.0489,65.287 L124.1479,65.287 L124.1479,65.275 C122.6349,65.239 121.4179,64.007 121.4179,62.485 C121.4179,60.963 122.6349,59.73 124.1479,59.694 L124.1479,59.683 L130.0489,59.683 C133.0279,59.683 135.4499,57.26 135.4499,54.281 L135.4499,19.211 C135.4499,16.233 133.0279,13.81 130.0489,13.81 L112.7869,13.81 C106.7179,13.81 101.7809,8.872 101.7809,2.803 L101.7859,2.803 C101.7859,1.258 103.0379,0.006 104.5829,0.006 C106.1279,0.006 107.3799,1.258 107.3799,2.803 L107.3859,2.803 C107.3859,5.781 109.8089,8.204 112.7869,8.204 L130.0489,8.204 Z M46.4229,22.8007 C45.1139,22.8007 44.0249,21.8987 43.7189,20.6857 L43.7059,20.6897 L43.6429,20.4387 C41.4539,11.7047 33.6269,5.6067 24.6109,5.6067 C15.4849,5.6067 7.6359,11.7967 5.5239,20.6597 L5.5109,20.6567 C5.2179,21.8887 4.1179,22.8077 2.7969,22.8077 C1.2519,22.8077 -0.0001,21.5557 -0.0001,20.0107 C-0.0001,19.7867 0.0329,19.5717 0.0819,19.3627 L0.0699,19.3617 C2.7859,7.9617 12.8779,-0.0003 24.6109,-0.0003 C36.2029,-0.0003 46.2659,7.8437 49.0809,19.0747 L49.0519,19.0837 C49.1529,19.3727 49.2199,19.6797 49.2199,20.0037 C49.2199,21.5487 47.9669,22.8007 46.4229,22.8007 Z M55.2393,-0.0001 C61.3083,-0.0001 66.2453,4.9379 66.2453,11.0079 L66.2453,54.2809 C66.2453,60.3509 61.3083,65.2869 55.2393,65.2869 C49.1693,65.2869 44.2313,60.3509 44.2313,54.2809 L44.2313,30.8199 L44.2373,30.8199 C44.2373,29.2749 45.4893,28.0229 47.0343,28.0229 C48.5783,28.0229 49.8313,29.2749 49.8313,30.8199 L49.8363,30.8199 L49.8363,54.2809 C49.8363,57.2599 52.2603,59.6829 55.2393,59.6829 C58.2183,59.6829 60.6393,57.2599 60.6393,54.2809 L60.6393,11.0079 C60.6393,8.0289 58.2183,5.6059 55.2393,5.6059 L55.2393,5.5999 L55.2383,5.5999 C53.6933,5.5999 52.4403,4.3479 52.4403,2.8029 C52.4403,1.2579 53.6933,0.0059 55.2383,0.0059 L55.2393,0.0059 L55.2393,-0.0001 Z M168.7715,22.5585 L159.0055,52.2835 C158.7585,52.9095 158.6345,53.5765 158.6345,54.2635 C158.6345,57.2515 161.0645,59.6825 164.0535,59.6825 L193.6555,59.6825 C196.6435,59.6825 199.0765,57.2515 199.0765,54.2635 C199.0765,53.5795 198.9495,52.9115 198.7035,52.2805 L198.6415,52.1085 L195.1355,41.1325 C194.4205,38.8645 192.3545,37.3485 189.9845,37.3485 C187.0105,37.3485 184.5905,39.7675 184.5905,42.7415 C184.5905,44.6985 185.6555,46.5045 187.3665,47.4585 L187.3575,47.4745 C188.2125,47.9535 188.7985,48.8575 188.7985,49.9075 C188.7985,51.4525 187.5465,52.7045 186.0015,52.7045 C185.5065,52.7045 185.0475,52.5645 184.6455,52.3385 L184.6355,52.3555 C184.5675,52.3175 184.5075,52.2675 184.4395,52.2265 C184.4395,52.2265 184.4375,52.2265 184.4365,52.2255 C181.0735,50.2525 178.9865,46.6475 178.9865,42.7415 C178.9865,36.6755 183.9195,31.7425 189.9845,31.7425 C194.8155,31.7425 199.0325,34.8355 200.4795,39.4405 L203.9555,50.3235 C204.4375,51.5825 204.6805,52.9085 204.6805,54.2635 C204.6805,60.3425 199.7345,65.2875 193.6555,65.2875 L164.0535,65.2875 C157.9735,65.2875 153.0295,60.3425 153.0295,54.2635 C153.0295,52.9015 153.2745,51.5755 153.7565,50.3175 L155.0465,46.3215 L162.8685,22.5585 L152.6495,22.5585 L152.6495,22.5515 C151.1055,22.5515 149.8525,21.2995 149.8525,19.7545 C149.8525,18.2095 151.1055,16.9575 152.6495,16.9575 L152.6495,16.9525 L204.0605,16.9525 L204.0605,16.9575 L204.0615,16.9575 C205.6065,16.9575 206.8585,18.2095 206.8585,19.7545 C206.8585,21.2995 205.6065,22.5515 204.0615,22.5515 L204.0605,22.5515 L204.0605,22.5585 L168.7715,22.5585 Z M156.9532,5.5995 C155.4092,5.5995 154.1572,4.3475 154.1572,2.8025 C154.1572,1.2585 155.4092,0.0055 156.9532,0.0055 L156.9532,-0.0005 L199.7572,-0.0005 L199.7572,0.0055 C201.3022,0.0055 202.5542,1.2585 202.5542,2.8025 C202.5542,4.3475 201.3022,5.5995 199.7572,5.5995 L199.7572,5.6065 L156.9532,5.6065 L156.9532,5.5995 Z M37.9825,59.6874 C39.5275,59.6874 40.7795,60.9404 40.7795,62.4854 C40.7795,64.0294 39.5275,65.2824 37.9825,65.2824 L37.9825,65.2874 L19.5105,65.2874 C12.1985,65.2874 6.2485,59.3374 6.2485,52.0254 L6.2575,39.5764 L6.2485,32.7984 C6.2485,24.0584 13.3555,16.9524 22.0905,16.9524 C30.8265,16.9524 37.9325,24.0584 37.9325,32.7934 C37.9325,41.5304 30.8265,48.6364 22.0905,48.6364 C21.0205,48.6364 19.9485,48.5294 18.9035,48.3164 L18.9045,48.3104 C17.6285,48.0514 16.6665,46.9224 16.6665,45.5694 C16.6665,44.0244 17.9195,42.7724 19.4625,42.7724 C19.6545,42.7724 19.8405,42.7914 20.0215,42.8294 L20.0225,42.8234 C20.7005,42.9604 21.3955,43.0314 22.0905,43.0314 C27.7355,43.0314 32.3285,38.4384 32.3285,32.7934 C32.3285,27.1504 27.7355,22.5584 22.0905,22.5584 C16.4465,22.5584 11.8545,27.1504 11.8545,32.7934 L11.8645,43.4714 L11.8545,52.0284 C11.8545,56.2474 15.2895,59.6824 19.5105,59.6824 L37.9825,59.6824 L37.9825,59.6874 Z" id="Combined-Shape"></path>
                    </g>
                    <g id="Group-2" transform="translate(162.000000, 86.000000)">
                        <path d="M17.9415,22.9227 C18.6705,22.9227 19.2605,23.5137 19.2605,24.2417 L19.2605,37.9437 C19.2605,38.6717 18.6705,39.2627 17.9415,39.2627 C17.2125,39.2627 16.6225,38.6717 16.6225,37.9437 L16.6225,24.2417 C16.6225,23.5137 17.2125,22.9227 17.9415,22.9227 Z M44.3067,27.5243 C45.0357,27.5243 45.6257,28.1153 45.6257,28.8443 L45.6257,37.9433 C45.6257,38.6713 45.0357,39.2623 44.3067,39.2623 C43.6877,39.2623 43.1917,38.8273 43.0487,38.2523 C42.1107,38.8893 40.9777,39.2623 39.7567,39.2623 C36.5157,39.2623 33.8877,36.6353 33.8877,33.3933 L33.8877,28.8443 L33.8887,28.8443 C33.8887,28.1153 34.4787,27.5243 35.2077,27.5243 C35.9367,27.5243 36.5277,28.1153 36.5277,28.8443 L36.5277,33.3933 C36.5277,35.1773 37.9737,36.6243 39.7567,36.6243 C41.5407,36.6243 42.9877,35.1773 42.9877,33.3933 L42.9877,28.8443 C42.9877,28.1153 43.5777,27.5243 44.3067,27.5243 Z M8.6231,25.5624 C5.5681,25.5624 3.0921,28.0384 3.0921,31.0924 C3.0921,34.1474 5.5681,36.6244 8.6231,36.6244 C10.3201,36.6244 11.8231,35.8444 12.8361,34.6394 C12.8391,34.6364 12.8521,34.6424 12.8551,34.6404 C13.0991,34.3584 13.4471,34.1714 13.8491,34.1714 C14.5821,34.1714 15.1771,34.7664 15.1771,35.5004 C15.1771,35.8364 15.0411,36.1354 14.8351,36.3704 L14.8461,36.3794 C13.3471,38.1414 11.1171,39.2624 8.6231,39.2624 C4.1111,39.2624 0.4531,35.6054 0.4531,31.0924 C0.4531,26.5814 4.1111,22.9224 8.6231,22.9224 C11.1171,22.9224 13.3471,24.0434 14.8461,25.8054 L14.8351,25.8154 C15.0411,26.0494 15.1771,26.3484 15.1771,26.6854 C15.1771,27.4194 14.5821,28.0144 13.8491,28.0144 C13.4511,28.0144 13.1051,27.8324 12.8621,27.5554 C12.8581,27.5534 12.8471,27.5594 12.8451,27.5564 C11.8311,26.3454 10.3251,25.5624 8.6231,25.5624 Z M22.7383,7.8436 C20.9543,7.8436 19.5093,9.2886 19.5093,11.0726 L19.5093,15.6226 C19.5093,16.3516 18.9183,16.9426 18.1883,16.9426 C17.4603,16.9426 16.8693,16.3516 16.8693,15.6226 L16.8693,1.9216 C16.8693,1.1936 17.4603,0.6026 18.1883,0.6026 C18.9183,0.6026 19.5093,1.1936 19.5093,1.9216 L19.5093,6.1786 C20.4353,5.5656 21.5443,5.2036 22.7383,5.2036 C25.9793,5.2036 28.6073,7.8316 28.6073,11.0726 L28.6073,15.6226 C28.6073,16.3516 28.0163,16.9426 27.2883,16.9426 C26.5593,16.9426 25.9673,16.3516 25.9673,15.6226 L25.9673,11.0726 C25.9673,9.2896 24.5223,7.8436 22.7383,7.8436 Z M36.168,16.9423 C32.927,16.9423 30.299,14.3153 30.299,11.0733 L30.299,6.5243 L30.3,6.5243 C30.3,5.7953 30.891,5.2043 31.619,5.2043 C32.348,5.2043 32.939,5.7953 32.939,6.5243 L32.939,11.0733 C32.939,12.8573 34.385,14.3033 36.168,14.3033 C37.952,14.3033 39.398,12.8573 39.398,11.0733 L39.398,6.5243 C39.398,5.7953 39.989,5.2043 40.718,5.2043 C41.446,5.2043 42.037,5.7953 42.037,6.5243 L42.037,15.6233 C42.037,16.3513 41.446,16.9423 40.718,16.9423 C40.099,16.9423 39.603,16.5063 39.461,15.9313 C38.522,16.5693 37.389,16.9423 36.168,16.9423 Z M117.9464,5.204 C118.6754,5.204 119.2654,5.795 119.2654,6.524 L119.2654,15.623 C119.2654,16.351 118.6754,16.942 117.9464,16.942 C117.3264,16.942 116.8304,16.507 116.6884,15.932 C115.7504,16.569 114.6174,16.942 113.3964,16.942 C110.1544,16.942 107.5274,14.315 107.5274,11.073 L107.5274,6.524 C107.5274,5.795 108.1184,5.204 108.8464,5.204 C109.5754,5.204 110.1664,5.795 110.1664,6.524 L110.1664,11.073 C110.1664,12.857 111.6124,14.304 113.3964,14.304 C115.1794,14.304 116.6264,12.857 116.6264,11.073 L116.6264,6.524 C116.6264,5.795 117.2174,5.204 117.9464,5.204 Z M63.0294,5.204 C66.2704,5.204 68.8984,7.832 68.8984,11.073 L68.8984,15.623 C68.8984,16.351 68.3074,16.942 67.5784,16.942 C66.8494,16.942 66.2584,16.351 66.2584,15.623 L66.2584,11.073 C66.2584,9.29 64.8124,7.844 63.0294,7.844 C61.2454,7.844 59.7994,9.29 59.7994,11.073 L59.7994,15.623 C59.7994,16.351 59.2084,16.942 58.4794,16.942 C57.7514,16.942 57.1604,16.351 57.1604,15.623 L57.1604,6.524 C57.1604,5.795 57.7514,5.204 58.4794,5.204 C59.0984,5.204 59.5944,5.64 59.7364,6.216 C60.6754,5.578 61.8084,5.204 63.0294,5.204 Z M8.6231,3.2421 C5.5681,3.2421 3.0921,5.7181 3.0921,8.7721 C3.0921,11.8271 5.5681,14.3041 8.6231,14.3041 C10.3201,14.3041 11.8231,13.5241 12.8361,12.3191 C12.8391,12.3151 12.8521,12.3221 12.8551,12.3191 C13.0991,12.0381 13.4471,11.8511 13.8491,11.8511 C14.5821,11.8511 15.1771,12.4461 15.1771,13.1801 C15.1771,13.5161 15.0411,13.8151 14.8351,14.0501 L14.8461,14.0591 C13.3471,15.8211 11.1171,16.9421 8.6231,16.9421 C4.1111,16.9421 0.4531,13.2851 0.4531,8.7721 C0.4531,4.2611 4.1111,0.6021 8.6231,0.6021 C11.1171,0.6021 13.3471,1.7231 14.8461,3.4851 L14.8351,3.4951 C15.0411,3.7291 15.1771,4.0281 15.1771,4.3651 C15.1771,5.0991 14.5821,5.6941 13.8491,5.6941 C13.4511,5.6941 13.1051,5.5121 12.8621,5.2351 C12.8581,5.2331 12.8471,5.2391 12.8451,5.2361 C11.8311,4.0251 10.3251,3.2421 8.6231,3.2421 Z M104.9171,0.6005 C105.6461,0.6005 106.2381,1.1925 106.2381,1.9215 C106.2381,1.9905 106.2091,2.0475 106.1991,2.1135 L106.2221,2.1165 L104.0901,15.8485 L104.0651,15.8445 C103.9561,16.4645 103.4391,16.9445 102.7891,16.9445 C102.2211,16.9445 101.7461,16.5815 101.5601,16.0785 L101.5511,16.0805 L98.3211,7.0465 L95.0971,16.0675 L95.0871,16.0635 C94.9041,16.5745 94.4281,16.9445 93.8541,16.9445 C93.2031,16.9445 92.6871,16.4645 92.5781,15.8445 L92.5541,15.8485 L90.4211,2.1135 L90.4431,2.1095 C90.4341,2.0455 90.4051,1.9885 90.4051,1.9215 C90.4051,1.1925 90.9971,0.6005 91.7271,0.6005 C92.3821,0.6005 92.9001,1.0855 93.0051,1.7115 L93.0281,1.7075 L94.3601,10.2865 L97.0861,2.6625 L97.0931,2.6635 C97.2821,2.1655 97.7561,1.8085 98.3201,1.8085 C98.8981,1.8085 99.3771,2.1855 99.5561,2.7035 L99.5691,2.6985 L102.2821,10.2865 L103.6141,1.7105 L103.6381,1.7145 C103.7401,1.0875 104.2611,0.6005 104.9171,0.6005 Z" id="Combined-Shape" fill="url(#linearGradient-2)"></path>
                        <path d="M26.5743,36.6239 C24.7913,36.6239 23.3453,35.1779 23.3453,33.3939 C23.3453,31.6099 24.7913,30.1639 26.5743,30.1639 C28.3583,30.1639 29.8043,31.6099 29.8043,33.3939 C29.8043,35.1779 28.3583,36.6239 26.5743,36.6239 M26.5743,27.5239 C23.3333,27.5239 20.7053,30.1519 20.7053,33.3939 C20.7053,36.6359 23.3333,39.2629 26.5743,39.2629 C29.8163,39.2629 32.4433,36.6359 32.4433,33.3939 C32.4433,30.1519 29.8163,27.5239 26.5743,27.5239" id="Fill-21" fill="url(#linearGradient-3)"></path>
                        <path d="M52.9395,36.6239 C51.1565,36.6239 49.7105,35.1779 49.7105,33.3939 C49.7105,31.6099 51.1565,30.1639 52.9395,30.1639 C54.7235,30.1639 56.1695,31.6099 56.1695,33.3939 C56.1695,35.1779 54.7235,36.6239 52.9395,36.6239 M57.4895,22.9229 C56.7605,22.9229 56.1695,23.5139 56.1695,24.2419 L56.1695,28.4989 C55.2435,27.8859 54.1345,27.5239 52.9395,27.5239 C49.6985,27.5239 47.0705,30.1519 47.0705,33.3939 C47.0705,36.6359 49.6985,39.2629 52.9395,39.2629 C54.1605,39.2629 55.2935,38.8899 56.2325,38.2519 C56.3745,38.8269 56.8705,39.2629 57.4895,39.2629 C58.2175,39.2629 58.8085,38.6719 58.8085,37.9429 L58.8085,24.2419 C58.8085,23.5139 58.2175,22.9229 57.4895,22.9229" id="Fill-27" fill="url(#linearGradient-4)"></path>
                        <path d="M49.5987,7.8436 C51.3827,7.8436 52.8287,9.2896 52.8287,11.0726 C52.8287,12.8576 51.3827,14.3036 49.5987,14.3036 C47.8147,14.3036 46.3697,12.8576 46.3697,11.0726 C46.3697,9.2896 47.8147,7.8436 49.5987,7.8436 M49.5987,16.9426 C50.8197,16.9426 51.9527,16.5696 52.8907,15.9316 C53.0337,16.5066 53.5297,16.9426 54.1487,16.9426 C54.8767,16.9426 55.4677,16.3516 55.4677,15.6226 L55.4677,6.5246 C55.4677,5.7946 54.8767,5.2036 54.1487,5.2036 C53.5297,5.2036 53.0337,5.6396 52.8907,6.2156 C51.9527,5.5776 50.8197,5.2036 49.5987,5.2036 C46.3577,5.2036 43.7297,7.8316 43.7297,11.0726 C43.7297,14.3156 46.3577,16.9426 49.5987,16.9426" id="Fill-39" fill="url(#linearGradient-5)"></path>
                        <path d="M76.459,14.3036 C74.676,14.3036 73.23,12.8576 73.23,11.0736 C73.23,9.2896 74.676,7.8436 76.459,7.8436 C78.243,7.8436 79.688,9.2886 79.688,11.0736 L79.688,11.0746 C79.688,12.8576 78.243,14.3036 76.459,14.3036 M81.007,5.2036 C80.388,5.2036 79.892,5.6386 79.749,6.2136 C78.811,5.5766 77.679,5.2036 76.459,5.2036 C73.218,5.2036 70.59,7.8316 70.59,11.0736 C70.59,14.3156 73.218,16.9426 76.459,16.9426 C77.653,16.9426 78.762,16.5806 79.688,15.9686 L79.688,16.9426 C79.688,18.7266 78.243,20.1726 76.459,20.1726 C75.316,20.1726 74.312,19.5786 73.738,18.6826 C73.732,18.6736 73.71,18.6796 73.701,18.6736 C73.463,18.3216 73.08,18.0746 72.623,18.0746 C71.893,18.0746 71.301,18.6666 71.301,19.3986 C71.301,19.7096 71.425,19.9856 71.605,20.2116 L71.593,20.2246 C72.647,21.7846 74.434,22.8116 76.459,22.8116 C79.7,22.8116 82.327,20.1846 82.328,16.9446 L82.328,6.5256 C82.328,5.7956 81.736,5.2036 81.007,5.2036" id="Fill-43" fill="url(#linearGradient-6)"></path>
                    </g>
                    <g id="Group-3">
                        <path d="M68.6761,0.0001 C106.5791,0.0001 137.3521,30.7721 137.3521,68.6761 C137.3521,106.5791 106.5791,137.3521 68.6761,137.3521 C30.7731,137.3521 0.0001,106.5791 0.0001,68.6761 C0.0001,30.7721 30.7731,0.0001 68.6761,0.0001" id="Fill-1" fill="#0C0E28"></path>
                        <path d="M27.4935,69.5451 C25.5695,70.7121 23.4855,71.6581 21.2745,72.1201 C20.9165,72.1951 20.5565,72.2581 20.1925,72.3071 C19.6665,72.3771 19.1365,72.4181 18.6055,72.4301 C17.7495,72.4481 16.8915,72.3871 16.0475,72.2511 C14.6085,72.0211 13.2105,71.5751 11.8805,70.9841 C10.2295,70.2521 8.6915,69.2971 7.2355,68.2311 C7.6665,67.9161 8.0905,67.5921 8.5365,67.3001 C9.3955,66.7371 10.2865,66.2221 11.2115,65.7721 C12.5805,65.1041 14.0265,64.5821 15.5235,64.2871 C16.3995,64.1141 17.2915,64.0201 18.1845,64.0121 C18.7715,64.0071 19.3595,64.0391 19.9425,64.1071 C20.3335,64.1521 20.7225,64.2131 21.1075,64.2901 C23.5785,64.7791 25.8905,65.8741 28.0075,67.2171 C28.3545,67.4391 28.6975,67.6661 29.0365,67.9001 C29.1885,68.0061 29.3335,68.1201 29.4825,68.2281 C29.1095,68.4941 28.7325,68.7551 28.3495,69.0061 C28.0675,69.1911 27.7825,69.3701 27.4935,69.5451 M109.9185,87.6251 C109.7025,87.2441 109.3935,86.9191 109.0245,86.6831 C108.7495,86.5061 108.4415,86.3801 108.1205,86.3131 C107.8005,86.2441 107.4675,86.2351 107.1425,86.2861 C106.8185,86.3371 106.5055,86.4461 106.2205,86.6081 C106.1255,86.6631 106.0375,86.7281 105.9455,86.7871 L105.6945,86.9981 L105.5105,87.1741 L105.3275,87.3461 C103.2715,89.2831 101.1645,91.1671 98.9615,92.9351 C97.2365,94.3181 95.4545,95.6351 93.5805,96.8091 C92.4355,97.5251 91.2565,98.1901 90.0345,98.7661 C88.9795,99.2631 87.8925,99.6941 86.7755,100.0291 C85.4645,100.4231 84.1135,100.6791 82.7475,100.7761 C81.7925,100.8451 80.8345,100.8371 79.8805,100.7691 C78.7405,100.6891 77.6085,100.5241 76.4865,100.3141 C75.6375,100.1541 74.7895,99.9771 73.9505,99.7661 C73.1215,99.5591 72.2995,99.3211 71.4875,99.0531 C68.7475,98.1491 66.1275,96.8981 63.7005,95.3381 C61.7095,94.0591 59.8525,92.5761 58.1465,90.9371 C57.4505,90.2681 56.7795,89.5731 56.1335,88.8561 C55.8225,88.5111 55.5185,88.1601 55.2185,87.8061 C55.1165,87.6851 55.0145,87.5641 54.9145,87.4411 C52.8965,84.9931 50.8905,82.5351 48.8565,80.1011 C47.3835,78.3371 45.8935,76.5871 44.3675,74.8691 C43.2655,73.6301 42.1445,72.4081 40.9935,71.2141 C40.1295,70.3171 39.2485,69.4371 38.3465,68.5791 C38.2155,68.4561 38.0775,68.3401 37.9465,68.2171 C38.3325,67.8561 38.7265,67.5031 39.1055,67.1331 C40.1355,66.1281 41.1385,65.0951 42.1205,64.0431 C43.3965,62.6781 44.6405,61.2821 45.8635,59.8691 C47.5135,57.9611 49.1305,56.0241 50.7365,54.0791 C51.6215,53.0071 52.5045,51.9331 53.3885,50.8581 C53.9465,50.1781 54.5055,49.4971 55.0665,48.8181 C55.3665,48.4611 55.6705,48.1081 55.9805,47.7601 C56.5765,47.0901 57.1945,46.4411 57.8345,45.8121 C59.5805,44.0971 61.4885,42.5451 63.5405,41.2101 C65.9655,39.6321 68.5875,38.3621 71.3315,37.4421 C72.1935,37.1531 73.0675,36.8991 73.9505,36.6781 C74.7215,36.4851 75.4985,36.3191 76.2785,36.1701 C77.4055,35.9541 78.5425,35.7811 79.6865,35.6911 C80.6405,35.6141 81.5995,35.5971 82.5565,35.6551 C83.9865,35.7421 85.4025,36.0031 86.7755,36.4151 C87.8925,36.7501 88.9795,37.1821 90.0345,37.6791 C91.2105,38.2331 92.3475,38.8691 93.4505,39.5551 C95.3155,40.7151 97.0915,42.0171 98.8065,43.3871 C100.8725,45.0351 102.8515,46.7881 104.7855,48.5901 C105.0895,48.8741 105.3925,49.1591 105.6945,49.4461 C105.7785,49.5171 105.8575,49.5921 105.9455,49.6571 C106.2085,49.8521 106.5075,49.9991 106.8235,50.0881 C107.1395,50.1771 107.4705,50.2091 107.7965,50.1811 C108.0145,50.1611 108.2295,50.1161 108.4355,50.0451 C108.7465,49.9401 109.0365,49.7771 109.2905,49.5681 C109.6275,49.2901 109.8935,48.9291 110.0625,48.5251 C110.1895,48.2231 110.2605,47.8991 110.2715,47.5701 C110.2905,47.0241 110.1395,46.4751 109.8445,46.0141 C109.6865,45.7691 109.6255,45.7231 109.4275,45.5101 L109.2395,45.3311 C107.9285,44.0931 106.5985,42.8741 105.2375,41.6911 C103.6255,40.2891 101.9735,38.9341 100.2625,37.6561 C98.7555,36.5311 97.2015,35.4681 95.5865,34.5051 C93.9835,33.5511 92.3175,32.6951 90.5845,32.0051 C89.0255,31.3851 87.4115,30.9001 85.7615,30.5941 C84.8915,30.4331 84.0145,30.3201 83.1325,30.2581 C82.6025,30.2201 82.0715,30.2001 81.5415,30.1961 L81.2985,30.1961 C80.3785,30.2021 79.4605,30.2541 78.5455,30.3481 C77.1265,30.4941 75.7175,30.7381 74.3205,31.0311 C73.6395,31.1741 72.9585,31.3301 72.2835,31.5051 C71.0105,31.8361 69.7545,32.2291 68.5195,32.6821 C65.3875,33.8341 62.4055,35.3861 59.6585,37.2821 C57.4455,38.8101 55.3885,40.5571 53.5025,42.4721 C52.8435,43.1431 52.2035,43.8331 51.5855,44.5421 C51.2975,44.8731 51.0145,45.2091 50.7325,45.5481 C49.4645,47.0881 48.1965,48.6311 46.9285,50.1721 C45.3435,52.0941 43.7515,54.0101 42.1265,55.8981 C41.0025,57.2021 39.8625,58.4941 38.6945,59.7611 C37.6525,60.8911 36.5895,62.0011 35.4925,63.0791 C34.9395,63.6221 34.3645,64.1441 33.7935,64.6681 C33.5035,64.4451 33.2145,64.2201 32.9185,64.0041 C30.3475,62.1331 27.5385,60.5341 24.4955,59.5701 C24.0565,59.4321 23.6155,59.3061 23.1695,59.1941 C22.5745,59.0461 21.9735,58.9231 21.3685,58.8281 C20.7225,58.7261 20.0705,58.6561 19.4175,58.6191 C19.0695,58.5991 18.7205,58.5891 18.3715,58.5871 C18.2555,58.5871 18.1385,58.5881 18.0205,58.5891 C17.6285,58.5961 17.2375,58.6121 16.8465,58.6421 C16.0905,58.6981 15.3385,58.8001 14.5935,58.9411 C14.0715,59.0411 13.5545,59.1611 13.0415,59.3001 C9.7525,60.1911 6.7205,61.8521 3.9845,63.8581 C3.2835,64.3731 2.6125,64.9271 1.9465,65.4841 C1.8805,65.5041 1.8095,65.5101 1.7455,65.5341 C1.3365,65.6911 0.9685,65.9461 0.6795,66.2741 C0.4615,66.5211 0.2905,66.8051 0.1745,67.1111 C0.0975,67.3161 0.0455,67.5301 0.0185,67.7471 C-0.0015,67.9191 -0.0025,68.0931 0.0105,68.2661 C0.0085,68.3011 0.0005,68.3351 0.0005,68.3701 C-0.0005,68.6981 0.0585,69.0251 0.1745,69.3321 C0.2515,69.5371 0.3525,69.7321 0.4765,69.9121 C0.7245,70.2731 1.0595,70.5711 1.4465,70.7741 C1.6045,70.8571 1.7705,70.9221 1.9415,70.9731 C2.1345,71.1331 2.3215,71.2971 2.5155,71.4541 C4.5405,73.0881 6.7225,74.5471 9.0755,75.6651 C10.8315,76.4991 12.6825,77.1381 14.5935,77.5031 C15.8765,77.7481 17.1815,77.8691 18.4875,77.8571 C19.4145,77.8481 20.3395,77.7731 21.2555,77.6341 C21.8985,77.5361 22.5375,77.4081 23.1695,77.2501 C23.6155,77.1391 24.0565,77.0141 24.4955,76.8741 C27.2255,76.0091 29.7715,74.6311 32.1215,73.0051 C32.5235,72.7281 32.9215,72.4411 33.3135,72.1491 C33.4745,72.0281 33.6305,71.9001 33.7895,71.7771 C34.1805,72.1361 34.5815,72.4831 34.9625,72.8501 C35.9955,73.8451 36.9985,74.8701 37.9795,75.9151 C39.2705,77.2901 40.5275,78.6971 41.7625,80.1251 C43.3845,82.0021 44.9735,83.9061 46.5545,85.8181 C47.4365,86.8891 48.3165,87.9601 49.1975,89.0311 C49.7645,89.7221 50.3315,90.4121 50.9015,91.1001 C51.2395,91.5031 51.5805,91.9011 51.9305,92.2941 C52.6065,93.0531 53.3075,93.7891 54.0325,94.5021 C56.0365,96.4711 58.2265,98.2491 60.5815,99.7811 C63.3915,101.6091 66.4305,103.0791 69.6075,104.1451 C70.6045,104.4791 71.6145,104.7741 72.6355,105.0281 C73.4265,105.2271 74.2235,105.3991 75.0225,105.5571 C76.1105,105.7711 77.2055,105.9471 78.3065,106.0711 C79.3805,106.1921 80.4605,106.2541 81.5415,106.2481 C82.8265,106.2401 84.1115,106.1321 85.3815,105.9181 C86.9735,105.6491 88.5365,105.2141 90.0495,104.6471 C91.9235,103.9421 93.7195,103.0421 95.4415,102.0241 C97.0535,101.0731 98.6015,100.0201 100.1035,98.9051 C101.6875,97.7321 103.2215,96.4881 104.7165,95.2031 C106.0625,94.0481 107.3785,92.8571 108.6745,91.6461 C108.9265,91.4091 109.1775,91.1721 109.4275,90.9351 C109.6255,90.7221 109.6865,90.6761 109.8445,90.4301 C110.0805,90.0631 110.2245,89.6381 110.2635,89.2011 C110.2915,88.8751 110.2605,88.5441 110.1715,88.2281 C110.1115,88.0181 110.0265,87.8151 109.9185,87.6251" id="Fill-4" fill="url(#linearGradient-7)"></path>
                        <path d="M22.7855,93.4308 C23.5995,93.8258 24.4285,94.1908 25.2715,94.5158 C26.7115,95.0728 28.1915,95.5218 29.7005,95.8508 C31.2915,96.1988 32.9115,96.4128 34.5385,96.4928 C36.1685,96.5718 37.8045,96.5158 39.4255,96.3358 C41.0095,96.1608 42.5795,95.8688 44.1235,95.4748 C46.6995,94.8198 49.1995,93.8858 51.6125,92.7768 C52.2645,92.4778 52.9085,92.1658 53.5485,91.8438 C54.1585,91.5348 54.7645,91.2178 55.3625,90.8838 C58.3275,89.2198 61.0825,87.2138 63.8045,85.1818 C64.7085,84.5038 65.6105,83.8238 66.5165,83.1478 C67.3965,82.4928 68.2785,81.8418 69.1745,81.2088 C69.7515,80.8008 70.3335,80.3998 70.9225,80.0098 C71.4225,79.6788 71.9295,79.3558 72.4405,79.0418 C72.9005,78.7618 73.3665,78.4908 73.8375,78.2298 C76.0195,77.0248 78.3675,76.0448 80.8485,75.6908 C81.4895,75.5988 82.1345,75.5518 82.7805,75.5438 C82.9315,75.5438 83.0815,75.5448 83.2315,75.5468 C83.6815,75.5558 84.1315,75.5768 84.5805,75.6148 C85.4495,75.6868 86.3135,75.8168 87.1675,76.0028 C87.9665,76.1768 88.7545,76.4008 89.5275,76.6698 C90.0285,76.8448 90.5235,77.0388 91.0115,77.2498 C94.1365,78.6078 96.9075,80.6748 99.3415,83.0388 C99.7795,83.4638 100.2075,83.9008 100.6255,84.3448 C101.1535,84.9068 101.6685,85.4828 102.1685,86.0708 C102.7235,86.7228 103.2595,87.3898 103.7835,88.0658 C103.9255,88.2498 104.0645,88.4348 104.2045,88.6188 C104.1005,88.7148 103.9975,88.8118 103.8925,88.9078 C103.6885,89.0988 103.4855,89.2908 103.2815,89.4838 C102.3895,90.3328 101.5035,91.1908 100.6085,92.0388 C99.5565,93.0378 98.4935,94.0258 97.4135,94.9948 C94.5345,97.5768 91.5295,100.0238 88.3575,102.2378 C87.5975,102.7678 86.8275,103.2848 86.0485,103.7868 C85.3315,104.2488 84.6065,104.6988 83.8745,105.1328 C79.2485,107.8788 74.2655,110.0798 69.0205,111.3278 C68.0275,111.5648 67.0265,111.7658 66.0185,111.9308 C64.6885,112.1498 63.3485,112.3028 62.0025,112.3878 C60.0805,112.5088 58.1505,112.4898 56.2315,112.3278 C54.4445,112.1778 52.6655,111.9058 50.9155,111.5108 C49.7585,111.2498 48.6135,110.9368 47.4835,110.5728 C43.5095,109.2938 39.7495,107.4068 36.2555,105.1298 C33.1235,103.0888 30.1985,100.7388 27.4655,98.1928 C26.3175,97.1228 25.2035,96.0198 24.1195,94.8858 C23.6535,94.3988 23.1925,93.9068 22.7385,93.4078 L22.7855,93.4308 Z M108.8765,91.7118 L108.8645,91.7168 C108.8015,91.7418 108.7385,91.7638 108.6745,91.7818 C108.7415,91.7588 108.8085,91.7358 108.8765,91.7118 Z M22.7605,43.0138 C23.8115,41.8668 24.8895,40.7418 26.0025,39.6508 C26.8865,38.7838 27.7915,37.9358 28.7165,37.1128 C29.3505,36.5478 29.9945,35.9948 30.6485,35.4538 C35.1295,31.7498 40.1155,28.5928 45.5705,26.5388 C46.4145,26.2218 47.2665,25.9318 48.1295,25.6698 C49.3205,25.3088 50.5285,25.0018 51.7485,24.7558 C53.3895,24.4248 55.0525,24.1978 56.7225,24.0778 C57.5825,24.0168 58.4445,23.9858 59.3075,23.9788 L59.7865,23.9788 C60.4735,23.9858 61.1595,24.0068 61.8455,24.0478 C63.0895,24.1208 64.3295,24.2528 65.5615,24.4418 C66.6235,24.6028 67.6795,24.8058 68.7235,25.0468 C74.2645,26.3238 79.5135,28.6698 84.3645,31.6058 C85.0905,32.0448 85.8085,32.4978 86.5185,32.9628 C87.3665,33.5188 88.2025,34.0918 89.0285,34.6808 C90.1105,35.4518 91.1745,36.2508 92.2205,37.0738 C93.3935,37.9958 94.5455,38.9488 95.6775,39.9228 C96.7555,40.8508 97.8135,41.8008 98.8585,42.7658 C99.5385,43.3928 100.2105,44.0268 100.8805,44.6628 C101.6105,45.3598 102.3385,46.0598 103.0675,46.7558 C103.2755,46.9548 103.4855,47.1538 103.6945,47.3508 C103.8635,47.5098 104.0335,47.6678 104.2045,47.8258 C103.6425,48.5698 103.0665,49.3018 102.4685,50.0188 C101.9735,50.6118 101.4645,51.1938 100.9395,51.7628 C100.5245,52.2118 100.0995,52.6538 99.6665,53.0848 C99.3445,53.4068 99.0155,53.7218 98.6815,54.0308 C96.3075,56.2258 93.6205,58.1238 90.6195,59.3598 C90.0615,59.5888 89.4965,59.7938 88.9225,59.9748 C88.0695,60.2428 87.1995,60.4548 86.3195,60.6078 C85.5225,60.7448 84.7185,60.8338 83.9105,60.8748 C83.4985,60.8958 83.0855,60.9058 82.6725,60.8988 C81.2645,60.8778 79.8665,60.6388 78.5175,60.2388 C76.6475,59.6808 74.8775,58.8268 73.1925,57.8498 C71.1005,56.6368 69.1295,55.2298 67.1855,53.7938 C66.8125,53.5188 66.4405,53.2418 66.0685,52.9628 C64.3125,51.6468 62.5665,50.3168 60.7785,49.0448 C59.1875,47.9148 57.5625,46.8298 55.8735,45.8528 C55.4485,45.6068 55.0195,45.3678 54.5865,45.1368 C54.2425,44.9528 53.8955,44.7758 53.5485,44.6008 C53.0035,44.3268 52.4545,44.0598 51.9015,43.8018 C48.9875,42.4418 45.9475,41.3348 42.7995,40.6598 C40.8655,40.2428 38.8955,39.9908 36.9185,39.9308 C34.8475,39.8678 32.7695,40.0178 30.7305,40.3878 C29.2365,40.6588 27.7645,41.0458 26.3295,41.5408 C25.4495,41.8448 24.5855,42.1908 23.7345,42.5698 C23.5765,42.6408 23.4185,42.7138 23.2615,42.7868 C23.0865,42.8688 22.9115,42.9518 22.7385,43.0368 L22.7605,43.0138 Z M108.6905,44.6678 C108.7545,44.6868 108.8155,44.7068 108.8765,44.7328 C108.8085,44.7088 108.7415,44.6858 108.6745,44.6628 L108.6905,44.6678 Z M10.8305,60.5588 C11.4925,59.6808 12.1765,58.8208 12.8845,57.9798 C13.4415,57.3178 14.0145,56.6688 14.6025,56.0348 C15.0555,55.5468 15.5175,55.0688 15.9895,54.6008 C18.7925,51.8228 21.9745,49.3778 25.5605,47.6998 C26.0765,47.4578 26.5995,47.2338 27.1315,47.0258 C27.8885,46.7288 28.6595,46.4688 29.4415,46.2468 C30.5445,45.9358 31.6695,45.7018 32.8065,45.5508 C34.5735,45.3168 36.3665,45.2828 38.1425,45.4328 C41.1935,45.6908 44.1755,46.4868 47.0185,47.6028 C48.1565,48.0498 49.2725,48.5478 50.3725,49.0808 C50.9315,49.3538 51.4855,49.6308 52.0345,49.9238 C52.5265,50.1858 53.0135,50.4608 53.4945,50.7438 C55.5535,51.9618 57.5055,53.3508 59.4305,54.7688 C59.8055,55.0468 60.1805,55.3268 60.5545,55.6058 C61.6125,56.3998 62.6685,57.1968 63.7305,57.9868 C64.4955,58.5538 65.2655,59.1158 66.0425,59.6648 C66.5875,60.0498 67.1365,60.4298 67.6895,60.7998 C68.0865,61.0648 68.4845,61.3248 68.8875,61.5788 C71.6145,63.3078 74.5275,64.8038 77.6635,65.6308 C78.1765,65.7668 78.6945,65.8838 79.2165,65.9818 C79.9865,66.1248 80.7645,66.2258 81.5465,66.2798 C82.3765,66.3358 83.2095,66.3358 84.0405,66.2998 C85.3445,66.2418 86.6415,66.0828 87.9205,65.8258 C89.9405,65.4188 91.9065,64.7638 93.7755,63.8988 C94.2945,63.6588 94.8055,63.4028 95.3075,63.1318 C98.9465,61.1738 102.1385,58.4668 104.9285,55.4378 C105.3955,54.9308 105.8525,54.4138 106.2995,53.8888 C106.8545,53.2368 107.3945,52.5718 107.9215,51.8948 C108.4955,51.1578 109.0525,50.4078 109.5955,49.6458 C109.7415,49.4398 109.8875,49.2338 110.0315,49.0268 C110.1445,48.8658 110.2475,48.7238 110.3415,48.5478 C110.3915,48.4518 110.4365,48.3548 110.4745,48.2538 C110.5535,48.0528 110.6065,47.8428 110.6355,47.6288 C110.6775,47.3088 110.6615,46.9808 110.5895,46.6658 C110.4915,46.2448 110.2935,45.8508 110.0155,45.5218 C109.8755,45.3568 109.7165,45.2088 109.5425,45.0828 C109.4545,45.0188 109.3605,44.9658 109.2695,44.9088 L108.9785,44.7678 L108.9645,44.7628 L108.9405,44.7458 C108.7475,44.6028 108.5635,44.4468 108.3835,44.2878 C108.1155,44.0538 107.8535,43.8118 107.5935,43.5698 C107.4005,43.3898 107.2095,43.2088 107.0165,43.0278 C106.1245,42.1778 105.2375,41.3198 104.3435,40.4708 C103.3095,39.4908 102.2665,38.5218 101.2095,37.5678 C98.4045,35.0388 95.4815,32.6368 92.4135,30.4328 C91.6975,29.9178 90.9735,29.4138 90.2405,28.9228 C84.8955,25.3338 79.0895,22.3658 72.9015,20.5388 C71.9235,20.2498 70.9365,19.9908 69.9425,19.7608 C68.6505,19.4628 67.3465,19.2168 66.0335,19.0278 C64.6325,18.8248 63.2225,18.6848 61.8075,18.6128 C61.0865,18.5768 60.3655,18.5578 59.6425,18.5538 C59.5215,18.5538 59.3995,18.5538 59.2785,18.5548 C58.2965,18.5618 57.3145,18.5968 56.3345,18.6668 C54.4995,18.7988 52.6725,19.0448 50.8665,19.4008 C49.3485,19.6998 47.8475,20.0798 46.3705,20.5348 C45.2755,20.8718 44.1935,21.2508 43.1275,21.6668 C42.3615,21.9658 41.6035,22.2838 40.8545,22.6188 C35.3585,25.0848 30.3345,28.5148 25.7965,32.4568 C25.0175,33.1328 24.2545,33.8248 23.5045,34.5298 C22.4585,35.5118 21.4385,36.5218 20.4435,37.5548 C19.1505,38.8968 17.8995,40.2788 16.6865,41.6938 C15.1025,43.5418 13.5855,45.4468 12.1295,47.3978 C10.5705,49.4848 9.0835,51.6238 7.6635,53.8078 C6.1915,56.0708 4.7915,58.3798 3.4685,60.7328 C2.6975,62.1038 1.9525,63.4908 1.2415,64.8938 C0.9805,65.4098 0.7245,65.9278 0.4755,66.4498 C0.4185,66.5708 0.3615,66.6908 0.3065,66.8118 C0.2355,66.9598 0.1835,67.0718 0.1295,67.2418 C0.0275,67.5578 -0.0145,67.8918 0.0045,68.2228 C0.0065,68.2518 0.0165,68.2798 0.0195,68.3078 C0.0175,68.3898 0.0005,68.4708 0.0065,68.5538 C0.0205,68.7748 0.0615,68.9928 0.1295,69.2028 C0.1865,69.3818 0.2345,69.4808 0.3065,69.6328 L0.3775,69.7868 C1.2155,71.5568 2.1265,73.2918 3.0745,75.0048 C4.3345,77.2818 5.6665,79.5178 7.0665,81.7098 C8.7225,84.3048 10.4725,86.8408 12.3205,89.3028 C13.7865,91.2558 15.3155,93.1618 16.9105,95.0118 C18.1315,96.4258 19.3895,97.8058 20.6905,99.1458 C21.6075,100.0898 22.5445,101.0138 23.5045,101.9148 C24.2105,102.5778 24.9285,103.2298 25.6575,103.8668 C26.3025,104.4298 26.9555,104.9808 27.6185,105.5208 C32.1065,109.1738 37.0545,112.3048 42.4215,114.4958 C43.4205,114.9048 44.4325,115.2788 45.4585,115.6178 C46.7985,116.0618 48.1595,116.4448 49.5355,116.7598 C51.8315,117.2868 54.1705,117.6318 56.5195,117.7898 C59.8675,118.0158 63.2375,117.8578 66.5525,117.3398 C68.9735,116.9608 71.3665,116.3928 73.7065,115.6608 C76.1195,114.9068 78.4765,113.9788 80.7675,112.9098 C86.5535,110.2138 91.8945,106.6408 96.8405,102.6228 C98.4475,101.3158 100.0155,99.9598 101.5515,98.5688 C102.5865,97.6298 103.6065,96.6738 104.6215,95.7098 C105.2805,95.0808 105.9375,94.4498 106.5965,93.8188 C107.0395,93.3948 107.4835,92.9708 107.9355,92.5578 C108.1265,92.3838 108.3175,92.2108 108.5135,92.0438 C108.6595,91.9188 108.8075,91.7948 108.9645,91.6818 L108.9785,91.6768 C109.0765,91.6298 109.1765,91.5888 109.2695,91.5358 C109.4585,91.4308 109.6335,91.3028 109.7915,91.1568 C110.0285,90.9368 110.2245,90.6738 110.3705,90.3858 C110.6125,89.9028 110.7055,89.3508 110.6355,88.8158 C110.5935,88.4948 110.4925,88.1828 110.3415,87.8978 C110.2475,87.7208 110.1445,87.5788 110.0315,87.4178 C109.8875,87.2108 109.7415,87.0038 109.5955,86.7988 C109.2505,86.3158 108.8995,85.8368 108.5435,85.3628 C108.0295,84.6798 107.5025,84.0068 106.9605,83.3458 C106.5235,82.8148 106.0775,82.2888 105.6225,81.7748 C102.9535,78.7588 99.9185,76.0268 96.4495,73.9598 C94.7065,72.9208 92.8585,72.0568 90.9315,71.4188 C88.9765,70.7708 86.9445,70.3578 84.8905,70.1978 C83.5815,70.0948 82.2645,70.0848 80.9565,70.2148 C78.9865,70.4098 77.0565,70.9018 75.2095,71.6068 C73.9225,72.0978 72.6755,72.6878 71.4655,73.3448 C70.8385,73.6848 70.2205,74.0408 69.6125,74.4138 C68.7195,74.9598 67.8435,75.5338 66.9805,76.1258 C65.5675,77.0948 64.1905,78.1138 62.8185,79.1388 C61.9135,79.8178 61.0105,80.4978 60.1035,81.1748 C57.9955,82.7418 55.8645,84.2878 53.6055,85.6338 C53.1255,85.9188 52.6395,86.1968 52.1465,86.4608 C51.6435,86.7318 51.1335,86.9898 50.6205,87.2418 C49.5335,87.7768 48.4285,88.2778 47.3035,88.7288 C44.4795,89.8618 41.5195,90.6838 38.4865,90.9808 C36.6585,91.1598 34.8115,91.1448 32.9885,90.9168 C31.8225,90.7718 30.6685,90.5378 29.5365,90.2238 C28.7555,90.0058 27.9845,89.7498 27.2275,89.4568 C26.6975,89.2518 26.1745,89.0298 25.6585,88.7908 C22.1695,87.1748 19.0565,84.8288 16.3075,82.1578 C15.8375,81.6988 15.3755,81.2298 14.9235,80.7518 C14.3735,80.1708 13.8375,79.5768 13.3145,78.9708 C12.6075,78.1508 11.9255,77.3108 11.2645,76.4538 C10.4355,75.3808 9.6405,74.2818 8.8765,73.1618 C7.8465,71.6538 6.8725,70.1078 5.9395,68.5358 C5.8805,68.4348 5.8215,68.3318 5.7615,68.2308 C6.5845,66.8288 7.4325,65.4438 8.3335,64.0888 C9.1315,62.8888 9.9615,61.7088 10.8305,60.5588 Z" id="Fill-6" fill="url(#linearGradient-8)"></path>
                    </g>
                </g>
            </g>
        </g>
    </g>
</svg>