<?xml version="1.0" encoding="UTF-8"?>
<svg width="225px" height="225px" viewBox="0 0 225 225" version="1.1" xmlns="http://www.w3.org/2000/svg" xmlns:xlink="http://www.w3.org/1999/xlink">
    <!-- Generator: Sketch 49.1 (51147) - http://www.bohemiancoding.com/sketch -->
    <title>PCEWTRERT</title>
    <desc>Created with Sketch.</desc>
    <defs>
        <circle id="path-1" cx="90.5" cy="90.5" r="90.5"></circle>
        <filter x="-19.6%" y="-16.9%" width="139.2%" height="139.2%" filterUnits="objectBoundingBox" id="filter-2">
            <feOffset dx="0" dy="5" in="SourceAlpha" result="shadowOffsetOuter1"></feOffset>
            <feGaussianBlur stdDeviation="11" in="shadowOffsetOuter1" result="shadowBlurOuter1"></feGaussianBlur>
            <feColorMatrix values="0 0 0 0 0.298039216   0 0 0 0 0.749019608   0 0 0 0 0.980392157  0 0 0 0.4 0" type="matrix" in="shadowBlurOuter1"></feColorMatrix>
        </filter>
    </defs>
    <g id="Page-1" stroke="none" stroke-width="1" fill="none" fill-rule="evenodd">
        <g id="传统呼叫" transform="translate(-204.000000, -325.000000)">
            <g id="Group-4" transform="translate(226.000000, 342.000000)">
                <g id="Group">
                    <g id="Oval-Copy-2">
                        <use fill="black" fill-opacity="1" filter="url(#filter-2)" xlink:href="#path-1"></use>
                        <use fill="#FFFFFF" fill-rule="evenodd" xlink:href="#path-1"></use>
                    </g>
                    <g id="医疗服务效率" transform="translate(43.000000, 40.000000)" fill="#41A4DF" fill-rule="nonzero">
                        <path d="M0,59.9728026 C0.393444459,59.4435335 0.724070055,59.1524355 0.991876787,59.1028165 C1.25968352,59.0531976 7.94823932,58.0376625 21.0608505,56.0595193 C23.328942,56.0595193 25.4548646,56.5987122 27.4386182,57.6770979 C29.4223718,58.7521758 36.4448594,62.0336441 48.5093874,67.5181949 C51.8850747,71.0279105 52.5959198,74.3060708 50.6419225,77.349368 C47.7125797,81.9143139 42.872221,81.7952283 40.6933983,80.3728177 C39.241952,79.4234413 34.1205615,76.8730259 25.3226144,72.7248795 L25.3226144,75.5928563 L41.8704255,83.5748956 C47.7059672,83.8163746 51.759437,81.3188861 54.0275286,76.0725064 C57.8925418,73.5022434 68.5320735,67.3726459 85.9494299,57.6770979 C93.2959306,56.7376453 96.1690671,60.0191136 94.5721454,67.5181949 C93.7687252,69.8833661 80.1006631,80.4919032 53.5745715,99.3404983 C50.3675033,102.231631 46.4661212,102.764208 41.8704255,100.944845 C37.2780359,99.1254827 28.6024203,95.5529165 15.8435786,90.2271463 L0.991876787,90.2271463 C0.330625596,90.1378322 0,89.5390965 0,88.4243235 L0,59.9761105 L0,59.9728026 Z M14.9112144,50.2540991 L14.6367951,50.2540991 C12.971372,45.9831294 12.119132,41.4381637 12.1240406,36.8536676 C12.1240406,16.4999636 28.6156453,0 48.9590382,0 C69.3024311,0 85.7940359,16.4999636 85.7940359,36.8503597 C85.7940359,41.5807021 84.9013467,46.0993368 83.2812813,50.2540991 L83.0928247,50.2540991 C83.0928247,52.1065409 81.2710777,54.0052937 79.4228806,54.0052937 C77.5713773,54.0052937 75.4719048,52.3513278 76.0372745,50.452575 L76.0967871,50.2540991 L75.9645369,50.2540991 C76.1199309,49.9431535 76.2687124,49.6255921 76.4141877,49.3080306 C76.5232941,49.0169326 76.6390131,48.7456822 76.7712633,48.4876636 C82.1257987,35.6526048 78.0108242,20.8184254 66.8106198,12.5802778 C55.6104153,4.34213025 40.231285,4.83770432 29.5841344,13.7798568 C18.9369837,22.7220092 15.7846069,37.7903704 21.9535396,50.2540991 L21.804758,50.2540991 C22.3833528,51.4945735 20.7467561,53.605034 18.8225152,53.605034 C16.8949679,53.605034 14.9112144,52.103233 14.9112144,50.2540991 Z M50.6121662,10.0494966 L50.6551475,10.0494966 C51.5681449,10.0494966 52.3082755,10.7900024 52.3082755,11.7034625 L52.3082755,15.0974005 C52.3082755,16.0108606 51.5681449,16.7513664 50.6551475,16.7513664 L50.6121662,16.7513664 C49.6991688,16.7513664 48.9590382,16.0108606 48.9590382,15.0974005 L48.9590382,11.7034625 C48.9590382,10.7900024 49.6991688,10.0494966 50.6121662,10.0494966 Z M28.8140207,17.2674037 L28.8404707,17.2343244 C29.1283204,16.9028106 29.5361237,16.6994356 29.9739867,16.6690303 C30.4118496,16.638625 30.8438239,16.7836856 31.1746874,17.0722357 L33.7337295,19.2984738 C34.4216222,19.8979564 34.4941249,20.9416367 33.8957361,21.6305657 L33.869286,21.663645 C33.5818994,21.9956357 33.1743367,22.199634 32.7364604,22.2306608 C32.2985842,22.2616876 31.8663533,22.1171949 31.5350693,21.8290416 L28.9760272,19.5994956 C28.2871338,19.0009694 28.2131462,17.9572146 28.8107144,17.2674037 L28.8140207,17.2674037 Z M22.2279588,35.3154793 L22.2279588,35.2724762 C22.2279588,34.3590161 22.9680894,33.6185103 23.8810868,33.6185103 L27.2699991,33.6185103 C28.1829965,33.6185103 28.9231271,34.3590161 28.9231271,35.2724762 L28.9231271,35.3154793 C28.9231271,36.2289395 28.1829965,36.9694452 27.2699991,36.9694452 L23.8810868,36.9694452 C22.9680894,36.9694452 22.2279588,36.2289395 22.2279588,35.3154793 Z M69.1106683,35.1963938 L69.1106683,35.1566986 C69.1253243,34.7179533 69.3137126,34.3030352 69.6343318,34.0033494 C69.954951,33.7036636 70.3814968,33.5437969 70.8200026,33.5589676 L74.208915,33.6780531 C75.1208408,33.7103722 75.8341272,34.4758411 75.8025304,35.3882538 L75.8025304,35.4312569 C75.7702276,36.3436449 75.0051465,37.0572929 74.093196,37.02568 L70.7042837,36.9099024 C70.2651669,36.8952504 69.8499432,36.7063084 69.550314,36.3848041 C69.2506848,36.0632998 69.0913009,35.6356835 69.107362,35.1963938 L69.1106683,35.1963938 Z M47.2860727,40.2046025 C45.4604943,40.2514628 43.7531843,39.3038169 42.8266062,37.7293665 C41.9000282,36.1549161 41.9000282,34.2014842 42.8266062,32.6270338 C43.7531843,31.0525834 45.4604943,30.1049375 47.2860727,30.1517979 C50.0104803,30.2217301 52.1826908,32.4515147 52.1826908,35.1782002 C52.1826908,37.9048856 50.0104803,40.1346702 47.2860727,40.2046025 Z M67.7683284,16.331259 L67.7980847,16.3610304 C68.443436,17.0069038 68.443436,18.0538647 67.7980847,18.6997382 L54.7615174,31.742913 L52.3909319,29.3744339 L65.4308054,16.331259 C66.0763516,15.6855806 67.1227821,15.6855806 67.7683284,16.331259 Z" id="Shape"></path>
                    </g>
                </g>
            </g>
        </g>
    </g>
</svg>