<?xml version="1.0" encoding="UTF-8"?>
<svg width="466px" height="207px" viewBox="0 0 466 207" version="1.1" xmlns="http://www.w3.org/2000/svg" xmlns:xlink="http://www.w3.org/1999/xlink">
    <!-- Generator: Sketch 49.1 (51147) - http://www.bohemiancoding.com/sketch -->
    <title>pclogo</title>
    <desc>Created with Sketch.</desc>
    <defs>
        <filter x="-8.1%" y="-23.6%" width="116.2%" height="147.2%" filterUnits="objectBoundingBox" id="filter-1">
            <feOffset dx="0" dy="0" in="SourceAlpha" result="shadowOffsetOuter1"></feOffset>
            <feGaussianBlur stdDeviation="12.5" in="shadowOffsetOuter1" result="shadowBlurOuter1"></feGaussianBlur>
            <feColorMatrix values="0 0 0 0 0.293502357   0 0 0 0 0.635921322   0 0 0 0 0.947039753  0 0 0 0.362658514 0" type="matrix" in="shadowBlurOuter1" result="shadowMatrixOuter1"></feColorMatrix>
            <feMerge>
                <feMergeNode in="shadowMatrixOuter1"></feMergeNode>
                <feMergeNode in="SourceGraphic"></feMergeNode>
            </feMerge>
        </filter>
        <polygon id="path-2" points="0 158.857143 461.287873 158.857143 461.287873 0.505989418 0 0.505989418"></polygon>
        <path d="M79.2791667,0.505989418 C35.51,0.505989418 0.0323888889,35.9546667 0.0323888889,79.6786243 C0.0323888889,123.408466 35.51,158.857143 79.2791667,158.857143 C123.045389,158.857143 158.525944,123.408466 158.525944,79.6786243" id="path-4"></path>
        <path d="M79.2791667,0.505989418 C35.51,0.505989418 0.0323888889,35.9546667 0.0323888889,79.6786243 C0.0323888889,123.408466 35.51,158.857143 79.2791667,158.857143 C123.045389,158.857143 158.525944,123.408466 158.525944,79.6786243" id="path-6"></path>
        <path d="M79.2791667,0.505989418 C35.51,0.505989418 0.0323888889,35.9546667 0.0323888889,79.6786243 C0.0323888889,123.408466 35.51,158.857143 79.2791667,158.857143 C123.045389,158.857143 158.525944,123.408466 158.525944,79.6786243" id="path-8"></path>
        <path d="M79.2791667,0.505989418 C35.51,0.505989418 0.0323888889,35.9546667 0.0323888889,79.6786243 C0.0323888889,123.408466 35.51,158.857143 79.2791667,158.857143 C123.045389,158.857143 158.525944,123.408466 158.525944,79.6786243" id="path-10"></path>
        <path d="M79.2791667,0.505989418 C35.51,0.505989418 0.0323888889,35.9546667 0.0323888889,79.6786243 C0.0323888889,123.408466 35.51,158.857143 79.2791667,158.857143 C123.045389,158.857143 158.525944,123.408466 158.525944,79.6786243" id="path-12"></path>
        <path d="M79.2791667,0.505989418 C35.51,0.505989418 0.0323888889,35.9546667 0.0323888889,79.6786243 C0.0323888889,123.408466 35.51,158.857143 79.2791667,158.857143 C123.045389,158.857143 158.525944,123.408466 158.525944,79.6786243" id="path-14"></path>
    </defs>
    <g id="Page-1" stroke="none" stroke-width="1" fill="none" fill-rule="evenodd">
        <g id="创物云PC端" transform="translate(-193.000000, -13272.000000)">
            <g id="Group-70" transform="translate(173.000000, 13296.000000)">
                <g id="Page-1" filter="url(#filter-1)">
                    <g id="Group-11">
                        <path d="M253.780131,117.775215 C253.780131,117.101543 253.68008,116.674982 253.479978,116.498474 C253.282819,116.324908 252.897329,116.236654 252.329392,116.236654 L242.956972,116.236654 C242.386093,116.236654 242.021201,116.36021 241.859354,116.601437 C241.70045,116.845606 241.618055,117.248633 241.618055,117.8164 L241.618055,121.093564 C241.618055,121.658389 241.723991,122.043765 241.935864,122.246749 C242.144794,122.449733 242.45966,122.549754 242.883405,122.549754 L252.179316,122.549754 C252.850246,122.549754 253.282819,122.423257 253.479978,122.164379 C253.68008,121.908442 253.780131,121.470114 253.780131,120.849395 L253.780131,117.775215 Z M258.16766,122.711553 C258.16766,124.27659 257.888106,125.382707 257.328997,126.029903 C256.772832,126.677098 255.763494,127.000696 254.300985,127.000696 L241.023634,127.000696 C239.61115,127.000696 238.619469,126.671215 238.04859,126.00931 C237.477711,125.350347 237.192271,124.250114 237.192271,122.711553 L237.192271,116.074855 C237.192271,114.536294 237.477711,113.430178 238.04859,112.756506 C238.619469,112.082834 239.61115,111.744527 241.023634,111.744527 L254.300985,111.744527 C255.763494,111.744527 256.772832,112.082834 257.328997,112.756506 C257.888106,113.430178 258.16766,114.536294 258.16766,116.074855 L258.16766,122.711553 Z M266.201163,127.768506 C266.201163,129.630665 265.789189,131.060379 264.974068,132.06059 C264.153061,133.05786 262.740577,133.67858 260.733673,133.919807 C260.112768,133.975702 259.518348,134.002178 258.947469,134.002178 C258.37659,134.002178 257.788055,133.981585 257.181864,133.943342 C256.57273,133.899215 255.934169,133.819786 255.266182,133.699172 C254.595252,133.578559 253.877239,133.422643 253.109201,133.234368 C252.067494,132.990199 251.390679,132.59894 251.081698,132.06059 C250.772717,131.519299 250.693265,130.872104 250.840399,130.116061 C250.990475,129.415913 251.299456,128.889331 251.770284,128.539257 C252.244055,128.189183 253.020921,128.147998 254.112654,128.418643 C255.030768,128.633395 255.866488,128.795194 256.625698,128.90404 C257.381966,129.009945 258.191201,129.077606 259.05929,129.107024 C259.653711,129.130559 260.124539,129.112908 260.471775,129.045247 C260.821953,128.977585 261.083851,128.856971 261.272182,128.680463 C261.457571,128.503956 261.581163,128.256844 261.645902,127.933247 C261.704755,127.609649 261.737125,127.20368 261.737125,126.718284 L261.737125,103.813437 C261.737125,103.139765 261.631189,102.707321 261.422259,102.519046 C261.210386,102.33077 260.842552,102.233691 260.324641,102.233691 L238.64301,102.233691 C237.848488,102.233691 237.248182,102.033649 236.83915,101.62768 C236.430118,101.224654 236.227074,100.671596 236.227074,99.9685058 C236.227074,99.2418815 236.412462,98.6741143 236.786182,98.2710878 C237.156959,97.8651196 237.777864,97.6621354 238.64301,97.6621354 L261.663558,97.6621354 C262.57873,97.6621354 263.329112,97.7503894 263.911762,97.9239556 C264.497354,98.1034053 264.953469,98.3769926 265.288934,98.7564847 C265.621456,99.1330349 265.85687,99.6449079 265.995176,100.292104 C266.130539,100.939299 266.201163,101.721818 266.201163,102.639659 L266.201163,127.768506 Z M260.100997,106.72876 C260.100997,107.537754 259.877354,108.076104 259.43301,108.346749 C258.985724,108.614453 258.400131,108.749776 257.682118,108.749776 L237.268781,108.749776 C236.550768,108.749776 235.965176,108.637987 235.520832,108.405585 C235.073545,108.176125 234.849902,107.658368 234.849902,106.849374 C234.849902,106.066855 235.055889,105.540273 235.461978,105.269628 C235.873953,105.001924 236.474259,104.866601 237.268781,104.866601 L257.682118,104.866601 C258.476641,104.866601 259.079889,104.981331 259.485978,105.210792 C259.89501,105.440252 260.100997,105.946241 260.100997,106.72876 Z" id="Fill-1" fill="#5BB8DE"></path>
                        <path d="M312.053045,112.716203 C312.921134,112.716203 313.645032,112.795632 314.227682,112.960372 C314.810331,113.122171 315.275274,113.398701 315.62251,113.78996 C315.969745,114.181219 316.21693,114.719568 316.367006,115.407949 C316.517083,116.09633 316.59065,116.964161 316.59065,118.017325 C316.59065,119.826531 316.543567,121.403335 316.458229,122.753621 C316.372892,124.100965 316.243414,125.289452 316.066854,126.313198 C315.896178,127.339886 315.675478,128.222425 315.419465,128.963759 C315.157567,129.705092 314.866242,130.37288 314.54549,130.967124 C313.95107,131.964394 313.006471,132.746912 311.71758,133.314679 C310.428688,133.879505 308.966178,134.164859 307.330051,134.164859 C306.26186,134.164859 305.158357,134.091314 304.022484,133.941283 C302.880726,133.794193 301.750739,133.423526 300.635465,132.829283 C299.720293,132.287992 299.134701,131.764351 298.887516,131.249537 C298.637389,130.737663 298.740382,130.049283 299.184726,129.187335 C299.505478,128.513663 299.935108,128.107695 300.467732,127.972372 C301.000357,127.83705 301.724255,127.972372 302.645312,128.378341 C303.586968,128.781367 304.41386,129.046129 305.134815,129.166743 C305.855771,129.287357 306.585554,129.349134 307.330051,129.349134 C308.195197,129.349134 308.951465,129.225579 309.598854,128.984351 C310.243299,128.740182 310.699414,128.404817 310.973083,127.972372 L310.937771,127.972372 C311.111389,127.701727 311.270293,127.33106 311.420369,126.860372 C311.570446,126.386743 311.699924,125.780732 311.811745,125.039399 C311.920624,124.298066 312.008904,123.374341 312.070701,122.268224 C312.132497,121.162108 312.176637,119.826531 312.203121,118.261494 C312.203121,118.099695 312.164866,117.955547 312.091299,117.834933 C312.01479,117.71432 311.935338,117.626066 311.85,117.573113 C311.758777,117.517219 311.679325,117.478976 311.605758,117.449558 C311.532191,117.426023 311.505707,117.411314 311.532191,117.411314 L291.672076,117.411314 C290.680395,117.411314 289.871159,117.328944 289.238484,117.167145 C288.605809,117.005346 288.114382,116.737642 287.767146,116.35815 C287.422854,115.9816 287.205096,115.475611 287.116815,114.840182 C287.031478,114.207695 287.037363,113.419293 287.134471,112.472034 L287.134471,112.513219 C287.210981,111.733642 287.272777,111.077621 287.322803,110.551039 C287.369885,110.024457 287.428739,109.533177 287.487592,109.074256 C287.552331,108.615335 287.605299,108.124055 287.658268,107.597473 C287.708293,107.070891 287.767146,106.417812 287.840713,105.635293 C287.917223,104.770404 288.140866,104.164394 288.511643,103.81432 C288.885363,103.461304 289.367962,103.287738 289.962382,103.287738 C290.880497,103.287738 291.501401,103.490722 291.822153,103.893748 C292.142904,104.299716 292.28121,104.973388 292.231185,105.917706 L291.636764,111.948394 C291.636764,112.324944 291.704446,112.548521 291.839809,112.616182 C291.978115,112.683843 292.316522,112.716203 292.86386,112.716203 L306.550242,112.716203 L307.253541,103.611335 C307.253541,102.937663 307.018127,102.599357 306.550242,102.599357 L286.913771,102.599357 C286.069223,102.599357 285.489516,102.405198 285.165822,102.013939 C284.842127,101.622679 284.68028,101.019611 284.68028,100.213558 C284.68028,99.4839915 284.868611,98.8956317 285.239389,98.4514201 C285.613108,98.0072085 286.157503,97.8101079 286.875516,97.8660021 L307.924471,97.8660021 C308.69251,97.8660021 309.336955,97.9336635 309.857809,98.0689862 C310.378662,98.2013672 310.781809,98.4514201 311.067248,98.8162032 C311.352688,99.1780444 311.538076,99.6869757 311.623414,100.334171 C311.711694,100.981367 311.71758,101.816838 311.64107,102.843526 C311.543962,104.299716 311.43214,105.885346 311.308548,107.597473 C311.184955,109.3096 311.061363,111.015843 310.937771,112.716203 L312.053045,112.716203 Z M310.231529,123.724415 C310.231529,124.642256 310.066739,125.274743 309.745987,125.624817 C309.422293,125.974891 308.839643,126.151399 307.998038,126.151399 L284.347758,126.151399 C283.506153,126.151399 282.932331,125.974891 282.638064,125.624817 C282.337911,125.274743 282.190777,124.642256 282.190777,123.724415 C282.190777,122.780097 282.337911,122.144669 282.638064,121.821071 C282.932331,121.497473 283.506153,121.335674 284.347758,121.335674 L308.036293,121.335674 C308.827873,121.335674 309.395809,121.497473 309.728331,121.821071 C310.060854,122.144669 310.231529,122.780097 310.231529,123.724415 Z" id="Fill-3" fill="#5BB8DE"></path>
                        <path d="M352.848233,107.213274 C352.971825,107.024999 353.030679,106.889676 353.030679,106.807306 C353.030679,106.727877 352.933571,106.686692 352.736411,106.686692 L343.923099,106.686692 C343.873074,106.739644 343.831876,106.801422 343.793622,106.869084 C343.755367,106.936745 343.714169,106.998523 343.661201,107.051475 C345.100169,108.669465 346.698042,110.072703 348.460704,111.258248 C349.328794,110.666946 350.114488,110.031517 350.823673,109.357846 C351.526972,108.684174 352.200845,107.969316 352.848233,107.213274 Z M357.424093,128.214777 C357.347583,128.376576 357.259303,128.511898 357.162195,128.620745 L359.539876,128.620745 C359.863571,128.620745 360.110755,128.470713 360.284373,128.173592 C360.457991,127.87647 360.546271,127.473443 360.546271,126.96157 L360.546271,102.356364 C360.546271,101.979814 360.44622,101.697401 360.249061,101.506184 C360.048959,101.317909 359.689953,101.223771 359.169099,101.223771 L344.293876,101.223771 C344.491036,101.276724 344.641112,101.329676 344.741163,101.38557 C345.161966,101.573846 345.497431,101.818015 345.744615,102.115137 C345.9918,102.412258 346.091851,102.762332 346.041825,103.165359 L354.446106,103.165359 C355.314195,103.165359 356.014552,103.306565 356.547176,103.59192 C357.0798,103.874332 357.450577,104.239115 357.665392,104.683327 C357.874322,105.13048 357.930233,105.633528 357.830182,106.201295 C357.730131,106.769062 357.494717,107.333888 357.12394,107.901655 C356.429469,108.981295 355.6938,109.957972 354.911048,110.834629 C354.131239,111.711285 353.280806,112.529105 352.365634,113.282205 C353.083647,113.579327 353.839915,113.844089 354.631494,114.073549 C355.426017,114.30301 356.267622,114.497168 357.162195,114.658967 C358.324552,114.873719 359.051392,115.217909 359.336832,115.691539 C359.622271,116.162226 359.689953,116.697634 359.539876,117.288935 C359.416284,117.883179 359.127902,118.289147 358.668845,118.503898 C358.206845,118.71865 357.521201,118.71865 356.603087,118.503898 C353.825201,117.936131 351.209163,117.01829 348.754972,115.750375 C347.963392,116.212237 347.145329,116.615263 346.300781,116.965338 C347.592615,117.262459 348.819711,117.586057 349.982068,117.936131 C351.15031,118.289147 352.424488,118.774544 353.813431,119.395263 C354.334284,119.610015 354.68152,119.907137 354.85808,120.283687 C355.028755,120.663179 354.966959,121.175052 354.669749,121.822248 C354.39608,122.413549 354.016475,122.740089 353.533876,122.793041 C353.051278,122.845994 352.474513,122.740089 351.806526,122.469443 C351.188564,122.228216 350.608857,122.010523 350.079176,121.822248 C349.543609,121.633972 348.996271,121.457465 348.440106,121.295666 C347.88394,121.133867 347.307176,120.972068 346.712755,120.810269 C346.118335,120.64847 345.459176,120.460195 344.741163,120.242502 C344.093775,120.083644 343.675915,119.783581 343.475813,119.351137 C343.278654,118.921634 343.34045,118.462713 343.661201,117.977316 C343.016755,118.192068 342.348768,118.395052 341.654297,118.583327 C340.959825,118.774544 340.253583,118.94811 339.535571,119.109909 C338.667482,119.298184 338.002437,119.280533 337.546322,119.048131 C337.087265,118.821613 336.807711,118.32739 336.710603,117.571348 C336.657634,116.924152 336.787112,116.453465 337.096093,116.156343 C337.408017,115.859221 337.937698,115.615052 338.679252,115.426777 C339.868093,115.129655 340.971596,114.808999 341.989762,114.455983 C343.004985,114.105909 343.958411,113.726417 344.852985,113.32339 C343.487583,112.24375 342.310513,111.072914 341.318832,109.802057 C341.145214,109.990332 340.977482,110.172724 340.815634,110.349232 C340.653787,110.522798 340.488997,110.693422 340.31538,110.855221 C339.744501,111.39357 339.185392,111.684808 338.640997,111.725994 C338.096603,111.764237 337.611061,111.528893 337.193201,111.01702 C336.869507,110.666946 336.722373,110.219793 336.742972,109.681443 C336.769456,109.143094 337.116692,108.601803 337.787622,108.063454 C338.702794,107.333888 339.529685,106.51901 340.259469,105.615877 C340.992195,104.709803 341.639583,103.733126 342.213405,102.679962 C342.731316,101.818015 343.225685,101.329676 343.699456,101.223771 L336.598781,101.223771 C336.272144,101.223771 336.039673,101.306142 335.889596,101.464999 C335.742462,101.62974 335.665953,101.938629 335.665953,102.397549 L335.665953,126.96157 C335.665953,128.067687 336.101469,128.620745 336.969558,128.620745 L354.075329,128.620745 C351.965431,127.891179 349.864361,127.276343 347.769176,126.779179 C345.673991,126.279073 343.425787,125.802502 341.021622,125.343581 C340.300666,125.208258 339.823953,124.943496 339.588539,124.555179 C339.353125,124.16392 339.288386,123.654988 339.385494,123.034269 C339.535571,122.334121 339.77687,121.881084 340.112335,121.678099 C340.444857,121.478057 340.895087,121.430988 341.468908,121.539835 C342.957902,121.836957 344.343902,122.110544 345.632794,122.36648 C346.921685,122.625359 348.148781,122.896004 349.31408,123.178417 C350.47938,123.46083 351.621138,123.757951 352.736411,124.06684 C353.851685,124.378671 354.966959,124.722861 356.085176,125.099412 C357.050373,125.396533 357.600654,125.814269 357.738959,126.352618 C357.874322,126.893909 357.768386,127.514629 357.424093,128.214777 Z M364.598335,128.57956 C364.598335,130.118121 364.312896,131.236004 363.742017,131.939094 C363.17408,132.639242 362.144144,132.992258 360.65515,132.992258 L335.445252,132.992258 C333.956259,132.992258 332.943978,132.639242 332.414297,131.939094 C331.87873,131.236004 331.613889,130.118121 331.613889,128.57956 L331.613889,101.144343 C331.613889,99.605782 331.861074,98.4996656 332.355443,97.8259937 C332.852755,97.1493799 333.844437,96.811073 335.333431,96.811073 L360.65515,96.811073 C362.144144,96.811073 363.17408,97.1493799 363.742017,97.8259937 C364.312896,98.4996656 364.598335,99.605782 364.598335,101.144343 L364.598335,128.57956 Z" id="Fill-5" fill="#5BB8DE"></path>
                        <mask id="mask-3" fill="white">
                            <use xlink:href="#path-2"></use>
                        </mask>
                        <g id="Clip-8"></g>
                        <path d="M386.170204,114.821354 L396.619643,114.821354 L396.619643,113.041566 L386.170204,113.041566 L386.170204,114.821354 Z M386.170204,109.682032 L396.619643,109.682032 L396.619643,107.981672 L386.170204,107.981672 L386.170204,109.682032 Z M386.170204,104.704508 L396.619643,104.704508 L396.619643,102.965905 L386.170204,102.965905 L386.170204,104.704508 Z M388.285987,99.6034286 L397.361197,99.6034286 C397.18758,99.3886772 397.019847,99.1739259 396.858,98.9591746 C396.699096,98.7414815 396.504879,98.485545 396.284178,98.1884233 C395.589707,97.270582 395.81335,96.4351111 396.955108,95.6790688 C398.090981,94.9259683 399.182713,95.3025185 400.22442,96.8116614 C400.498089,97.2176296 400.768815,97.6353651 401.042484,98.0678095 C401.316153,98.4973122 401.625134,99.012127 401.975312,99.6034286 L411.082892,99.6034286 C411.653771,99.6034286 412.106943,99.7387513 412.439465,100.009397 C412.777873,100.280042 412.942662,100.712487 412.942662,101.303788 C412.942662,101.924508 412.777873,102.356952 412.439465,102.59818 C412.106943,102.842349 411.653771,102.962963 411.082892,102.962963 L400.636395,102.962963 L400.636395,104.704508 L409.894051,104.704508 C410.538497,104.704508 411.01521,104.825122 411.324191,105.069291 C411.636115,105.310519 411.792076,105.742963 411.792076,106.363683 C411.792076,106.984402 411.636115,107.408021 411.324191,107.637481 C411.01521,107.866942 410.538497,107.981672 409.894051,107.981672 L400.636395,107.981672 L400.636395,109.682032 L409.820484,109.682032 C411.082892,109.682032 411.715567,110.205672 411.715567,111.258836 C411.715567,112.447323 411.082892,113.041566 409.820484,113.041566 L400.636395,113.041566 L400.636395,114.821354 L411.306535,114.821354 C411.950981,114.821354 412.427694,114.956677 412.739618,115.224381 C413.048599,115.495026 413.204561,115.94218 413.204561,116.559958 C413.204561,117.721968 412.571885,118.301503 411.306535,118.301503 L398.105694,118.301503 C398.305796,118.598624 398.402904,118.989884 398.402904,119.47528 L398.402904,120.728487 L411.792076,120.728487 C412.583656,120.728487 413.142764,120.869693 413.463516,121.155048 C413.784268,121.43746 413.946115,121.890497 413.946115,122.508275 C413.946115,123.184889 413.784268,123.664402 413.463516,123.946815 C413.142764,124.229228 412.583656,124.370434 411.792076,124.370434 L401.786981,124.370434 C402.605045,124.911725 403.455478,125.429481 404.332395,125.929587 C405.212255,126.429693 406.100943,126.900381 406.995516,127.344593 C407.884204,127.788804 408.764064,128.194772 409.632153,128.559556 C410.500242,128.924339 411.306535,129.227344 412.048089,129.471513 C412.648395,129.686265 413.10451,129.909841 413.425261,130.13636 C413.748955,130.36582 413.978484,130.609989 414.11679,130.865926 C414.24921,131.121862 414.299236,131.386624 414.260981,131.654328 C414.228611,131.924974 414.143274,132.207386 414.019682,132.504508 C413.672446,133.287026 413.222217,133.672402 412.663108,133.657693 C412.106943,133.645926 411.356561,133.448825 410.414904,133.072275 C408.628701,132.342709 406.745389,131.357206 404.762025,130.115767 C402.778662,128.87727 400.656994,127.447556 398.402904,125.826624 L398.402904,132.260339 C398.402904,132.910476 398.311682,133.416466 398.12335,133.781249 C397.937962,134.14309 397.399452,134.325481 396.504879,134.325481 C395.81335,134.325481 395.289554,134.178392 394.945261,133.88127 C394.598025,133.584148 394.424408,133.045799 394.424408,132.260339 L394.424408,126.676804 C392.711771,128.053566 390.872599,129.295005 388.901006,130.401122 C386.929414,131.507238 384.963707,132.451556 383.006828,133.234074 C382.362382,133.501778 381.809159,133.692995 381.353045,133.798899 C380.893987,133.907746 380.502611,133.934222 380.178917,133.88127 C379.858166,133.825376 379.584497,133.678286 379.363796,133.434116 C379.140153,133.192889 378.940051,132.842815 378.769376,132.383894 C378.492764,131.70728 378.539847,131.154222 378.898854,130.72472 C379.25786,130.292275 379.931732,129.915725 380.923414,129.592127 C383.030369,128.889037 385.001962,128.147704 386.838191,127.365185 C388.671478,126.582667 390.369401,125.585397 391.934904,124.370434 L381.111745,124.370434 C380.317223,124.370434 379.758115,124.229228 379.43442,123.946815 C379.113669,123.664402 378.951822,123.184889 378.951822,122.508275 C378.951822,121.890497 379.113669,121.43746 379.43442,121.155048 C379.758115,120.869693 380.317223,120.728487 381.111745,120.728487 L394.424408,120.728487 L394.424408,119.47528 C394.424408,118.960466 394.521516,118.572148 394.721618,118.301503 L386.170204,118.301503 C386.117236,119.028127 385.955389,119.489989 385.68172,119.678265 C385.410994,119.86654 384.904854,119.960677 384.160357,119.960677 C383.318752,119.960677 382.765529,119.798878 382.503631,119.47528 C382.244675,119.151683 382.115197,118.530963 382.115197,117.613122 L382.115197,108.508254 C381.470752,109.128974 380.870446,109.405503 380.311338,109.337841 C379.752229,109.27018 379.275516,108.978942 378.878255,108.467069 C378.457452,107.92872 378.283834,107.434497 378.357401,106.990286 C378.433911,106.546074 378.769376,106.040085 379.363796,105.472317 C380.652688,104.257354 381.791503,102.921778 382.783185,101.465587 C383.774866,100.009397 384.642955,98.470836 385.387452,96.8528466 C385.734688,96.1526984 386.105465,95.7143704 386.502726,95.5378624 C386.899987,95.3613545 387.456153,95.4231323 388.177108,95.720254 C388.671478,96.0173757 388.945146,96.4409947 388.992229,96.9940529 C389.042255,97.5471111 388.971631,98.0942857 388.771529,98.6326349 L388.285987,99.6034286 Z" id="Fill-7" fill="#5BB8DE" mask="url(#mask-3)"></path>
                        <path d="M456.005771,109.114853 C456.005771,109.9768 455.796841,110.550451 455.373096,110.832863 C454.955236,111.118218 454.381414,111.259424 453.663401,111.259424 L451.023822,111.259424 L451.023822,121.941096 C451.123873,123.829731 450.776637,125.262387 449.982115,126.233181 C449.190535,127.203975 448.010522,127.689371 446.450904,127.689371 C445.953592,127.689371 445.503363,127.683488 445.091389,127.668779 C444.682357,127.65407 444.288038,127.62171 443.902548,127.565816 C443.517057,127.512863 443.140395,127.445202 442.769618,127.365774 C442.395898,127.283403 441.986866,127.177498 441.542522,127.042176 C440.621465,126.798006 440.059414,126.400863 439.850484,125.847805 C439.638611,125.294747 439.668038,124.626959 439.941707,123.84444 C440.188892,123.223721 440.574382,122.832461 441.095236,122.670662 C441.613146,122.508863 442.186968,122.523572 442.807873,122.711848 C443.649478,122.956017 444.261554,123.103107 444.647045,123.156059 C445.032535,123.211953 445.397427,123.23843 445.744662,123.23843 C446.015389,123.23843 446.24786,123.150176 446.430306,122.973668 C446.618637,122.800102 446.70986,122.361774 446.70986,121.658684 L446.70986,114.295361 C445.297376,116.345795 443.808382,118.113816 442.245822,119.596483 C440.686204,121.079149 439.035363,122.38825 437.302127,123.520842 C436.333987,124.141562 435.521809,124.418091 434.865592,124.35043 C434.209376,124.282768 433.706178,123.94152 433.361885,123.317858 C432.517338,121.726345 433.035248,120.446662 434.921503,119.472927 C436.310446,118.746303 437.761185,117.707848 439.270777,116.357562 C440.783312,115.010218 442.322331,113.309858 443.884892,111.259424 L435.924955,111.259424 C434.462446,111.259424 433.732662,110.544567 433.732662,109.114853 C433.732662,108.332334 433.897452,107.746916 434.23586,107.352715 C434.568382,106.964398 435.130433,106.767297 435.924955,106.767297 L446.70986,106.767297 L446.70986,104.866895 C446.70986,104.137329 446.907019,103.578387 447.30428,103.187128 C447.701541,102.795869 448.219452,102.598768 448.866841,102.598768 C450.305809,102.598768 451.023822,103.422472 451.023822,105.069879 L451.023822,106.767297 L453.663401,106.767297 C454.457924,106.767297 455.046459,106.923213 455.431949,107.232102 C455.817439,107.543932 456.005771,108.170535 456.005771,109.114853 Z M433.285376,101.222006 C432.961682,101.222006 432.72921,101.304377 432.579134,101.466176 C432.429057,101.627975 432.35549,101.939805 432.35549,102.395784 L432.35549,126.959805 C432.35549,128.065922 432.788064,128.61898 433.656153,128.61898 L456.229414,128.61898 C456.553108,128.61898 456.800293,128.47189 456.973911,128.174768 C457.147529,127.877647 457.235809,127.471678 457.235809,126.959805 L457.235809,102.357541 C457.235809,101.978049 457.135758,101.695636 456.935656,101.507361 C456.738497,101.319086 456.37949,101.222006 455.858637,101.222006 L433.285376,101.222006 Z M461.287873,128.580737 C461.287873,130.116356 461.002433,131.237181 460.431554,131.937329 C459.863618,132.640419 458.833682,132.990493 457.344688,132.990493 L432.13479,132.990493 C430.645796,132.990493 429.633516,132.640419 429.100892,131.937329 C428.568268,131.237181 428.303427,130.116356 428.303427,128.580737 L428.303427,101.142578 C428.303427,99.6040169 428.550611,98.4979005 429.044981,97.8242286 C429.542293,97.1505566 430.533975,96.8122497 432.022968,96.8122497 L457.344688,96.8122497 C458.833682,96.8122497 459.863618,97.1505566 460.431554,97.8242286 C461.002433,98.4979005 461.287873,99.6040169 461.287873,101.142578 L461.287873,128.580737 Z" id="Fill-9" fill="#5BB8DE" mask="url(#mask-3)"></path>
                        <path d="M202.570521,79.681272 C202.570521,123.408171 167.111285,158.856849 123.371362,158.856849 C79.6314382,158.856849 44.1722025,123.408171 44.1722025,79.681272 C44.1722025,35.9543725 79.6314382,0.505695238 123.371362,0.505695238 C167.111285,0.505695238 202.570521,35.9543725 202.570521,79.681272" id="Fill-10" fill="#0C0E28" mask="url(#mask-3)"></path>
                    </g>
                    <g id="Group-30" transform="translate(45.000000, 0.000000)">
                        <g id="Group-14">
                            <mask id="mask-5" fill="white">
                                <use xlink:href="#path-4"></use>
                            </mask>
                            <g id="Clip-13"></g>
                            <path d="M114.4482,40.2411619 L122.616089,34.2340085 C123.284478,33.742728 123.213811,32.7219238 122.480644,32.3336063 C116.471033,29.1652889 93.8606444,18.2394476 67.4607556,18.2394476 C36.5823667,18.2394476 14.1398111,38.1701354 0.5247,40.6618392 C11.8372556,40.8530561 39.4708667,25.8057545 72.7107,28.6857757 C93.4925889,30.4861566 109.952033,38.6025799 113.267478,40.3352995 C113.647311,40.5353418 114.100756,40.4941566 114.4482,40.2411619" id="Fill-12" fill="#5BB8DE" mask="url(#mask-5)"></path>
                        </g>
                        <g id="Group-17">
                            <mask id="mask-7" fill="white">
                                <use xlink:href="#path-6"></use>
                            </mask>
                            <g id="Clip-16"></g>
                            <path d="M134.760156,59.7723534 L126.3891,66.2501947 C125.994544,66.5561418 125.449822,66.567909 125.043489,66.2737291 C120.291156,62.8465333 90.9379889,42.7687556 55.8107667,42.7687556 C17.4004889,42.7687556 9.48876667,56.2804381 -9.35567778,56.5657926 C5.17221111,54.2653058 26.3192111,31.2722053 66.3106556,33.4256021 C101.608656,35.328946 128.835933,53.6945968 134.739544,57.9778561 C135.3461,58.4191259 135.354933,59.3134328 134.760156,59.7723534" id="Fill-15" fill="#5BB8DE" mask="url(#mask-7)"></path>
                        </g>
                        <g id="Group-20">
                            <mask id="mask-9" fill="white">
                                <use xlink:href="#path-8"></use>
                            </mask>
                            <g id="Clip-19"></g>
                            <path d="M79.5777333,54.1129206 L70.3734,61.0967513 C70.0819,61.3173862 69.7079556,61.3850476 69.3605111,61.2762011 C66.3895667,60.3436508 51.5436778,56.0780423 33.9417889,58.0049206 C14.2375667,60.1583175 -2.73715556,69.9309735 -18.9934333,73.8112063 C-3.89137778,68.9278201 5.03028889,59.0110159 24.5931778,52.8302963 C43.5141778,46.8525608 59.6114556,45.7170265 79.2567889,52.1477989 C80.1165667,52.4302116 80.2961778,53.565746 79.5777333,54.1129206" id="Fill-18" fill="#5BB8DE" mask="url(#mask-9)"></path>
                        </g>
                        <g id="Group-23">
                            <mask id="mask-11" fill="white">
                                <use xlink:href="#path-10"></use>
                            </mask>
                            <g id="Clip-22"></g>
                            <path d="M61.1060556,66.7102921 L51.2922222,73.5529164 C51.0537222,73.7176571 50.7651667,73.7853185 50.4795556,73.7411915 C47.541,73.2763873 30.316,70.8023344 15.2433889,73.8117947 C-1.2985,77.1183767 -12.5197778,83.8727471 -23.3082222,86.6027365 C-12.2312222,81.8605566 5.02911111,68.4930222 24.4506667,65.189382 C42.5266111,62.1122603 49.2635,62.5241122 60.6673333,64.6804508 C61.6448889,64.8657841 61.9216667,66.1425249 61.1060556,66.7102921" id="Fill-21" fill="#5BB8DE" mask="url(#mask-11)"></path>
                        </g>
                        <g id="Group-26">
                            <mask id="mask-13" fill="white">
                                <use xlink:href="#path-12"></use>
                            </mask>
                            <g id="Clip-25"></g>
                            <path d="M155.782606,142.079475 L146.001161,148.401401 C146.001161,148.401401 94.6471056,87.4679196 26.8954389,87.4679196 C-8.06100556,87.4679196 -30.93345,102.123962 -37.1197278,103.994946 C-37.1197278,103.994946 -1.15628333,77.6923217 34.3772722,77.6923217 C69.9049389,77.6923217 114.451439,97.2876444 155.782606,142.079475" id="Fill-24" fill="#5BB8DE" mask="url(#mask-13)"></path>
                        </g>
                        <g id="Group-29">
                            <mask id="mask-15" fill="white">
                                <use xlink:href="#path-14"></use>
                            </mask>
                            <g id="Clip-28"></g>
                            <path d="M104.3093,122.466502 L96.9364111,128.603094 C96.5271333,128.944343 95.9441333,128.959052 95.5289667,128.632512 C90.5646333,124.761105 59.6862444,102.173972 14.7157444,102.173972 C-12.0286444,102.173972 -44.1672556,118.65393 -44.1672556,118.65393 C-44.1672556,118.65393 -9.83503333,92.4013164 21.6204667,92.4013164 C52.6078,92.4013164 77.6385222,101.885676 104.235689,120.674946 C104.8393,121.101507 104.877578,121.992872 104.3093,122.466502" id="Fill-27" fill="#5BB8DE" mask="url(#mask-15)"></path>
                        </g>
                    </g>
                    <g id="Group-57" transform="translate(234.000000, 22.000000)" fill="#FFFFFF">
                        <path d="M4.83865375,6.27237778 C4.83865375,6.72134074 4.9773459,7.11418333 5.25177929,7.44499815 C5.52326179,7.77876667 5.85966402,8.07118333 6.26098597,8.32520185 C6.65935703,8.58217407 7.08133526,8.79484074 7.52101887,8.97206296 C7.96365338,9.14928519 8.35612265,9.31469259 8.71023025,9.47123889 C9.58664658,9.86112778 10.3509288,10.2539704 10.9942243,10.6438593 C11.6404707,11.0367019 12.1716321,11.4561278 12.5936103,11.9080444 C13.0155886,12.3570074 13.31658,12.8650444 13.5024865,13.4321556 C13.688393,13.9992667 13.7680672,14.6461278 13.7533128,15.3697852 C13.7120002,17.3044611 13.1070664,18.8669704 11.9326095,20.0484519 C10.7611035,21.232887 8.97286006,21.8620259 6.56787923,21.9417759 C5.68851201,21.9801741 4.86521182,21.8767944 4.09207688,21.6345907 C3.31894194,21.3894333 2.65203928,21.1206463 2.08251622,20.8282296 C1.57791288,20.5712574 1.17068913,20.2847481 0.866746766,19.9598407 C0.5657553,19.637887 0.344438046,19.3129796 0.208696797,18.9792111 C0.0700046506,18.6454426 0.0050849227,18.3234889 0.0168885096,18.0103963 C0.0257411998,17.6973037 0.108366308,17.4314704 0.264763834,17.2188037 C0.539197229,16.787563 0.866746766,16.548313 1.24741244,16.4981 C1.62807812,16.4508407 1.98513662,16.5335444 2.31858795,16.7491648 C2.61072673,16.9441093 2.92057088,17.1538222 3.24221863,17.3783037 C3.56386637,17.6027852 3.90617039,17.8095444 4.26913069,17.9956278 C4.62914009,18.1817111 5.00980576,18.33235 5.41112772,18.4504981 C5.80949878,18.5686463 6.24623149,18.6277204 6.71542407,18.6277204 C7.10789333,18.6277204 7.49150991,18.5568315 7.87217558,18.4209611 C8.25284126,18.282137 8.58924349,18.0871926 8.88433316,17.8331741 C9.17942283,17.5791556 9.41254367,17.2631093 9.58664658,16.8791278 C9.76370038,16.4981 9.85222729,16.0639056 9.85222729,15.5735907 C9.85222729,15.1039519 9.74304411,14.693387 9.53057954,14.3418963 C9.31516408,13.9904056 9.05548517,13.6802667 8.75154281,13.417387 C8.45055134,13.1545074 8.11710001,12.9329796 7.75413972,12.7587111 C7.39413032,12.5814889 7.06658078,12.4456185 6.774442,12.3481463 C5.95409271,12.0527759 5.18685957,11.7367296 4.47274256,11.3941 C3.75862555,11.0514704 3.13893724,10.6438593 2.61072673,10.1742204 C2.08251622,9.70753519 1.66348888,9.14928519 1.35069383,8.50242407 C1.03789878,7.85851667 0.881501249,7.09350741 0.881501249,6.2133037 C0.881501249,5.27697963 1.07330954,4.44994259 1.45397521,3.7351463 C1.83464089,3.02035 2.33629333,2.42960926 2.96188344,1.95997037 C3.58747354,1.49033148 4.29568876,1.13884074 5.08947998,0.902544444 C5.8803203,0.669201852 6.6859151,0.559914815 7.50626439,0.580590741 C8.42694417,0.601266667 9.27680242,0.745998148 10.0587901,1.02069259 C10.8378268,1.29538704 11.489975,1.63801667 12.0063819,2.04858148 C12.5227888,2.45619259 12.8768964,2.90220185 13.0628029,3.38070185 C13.2487094,3.86215556 13.2132987,4.31702593 12.9595215,4.74531296 C12.8208294,4.96388704 12.6496774,5.13224815 12.4460655,5.25925741 C12.2424536,5.38922037 12.0270382,5.47487778 11.7998191,5.52509074 C11.575551,5.5753037 11.3571846,5.57825741 11.1417692,5.53985926 C10.9263537,5.50146111 10.7522508,5.42171111 10.6135586,5.30356296 C10.4187995,5.16769259 10.1915804,5.0170537 9.94075419,4.8516463 C9.68697707,4.68328519 9.41844547,4.5326463 9.13220848,4.39382222 C8.8489224,4.25795185 8.54793093,4.1398037 8.22333229,4.04233148 C7.90168455,3.94485926 7.57708591,3.8946463 7.24068369,3.8946463 C6.8688707,3.8946463 6.53837027,3.96848889 6.24623149,4.11617407 C5.95409271,4.26385926 5.70326649,4.44994259 5.49965462,4.67442407 C5.29309185,4.89890556 5.13374343,5.15292407 5.01570756,5.43647963 C4.90062259,5.72003519 4.83865375,6.00063704 4.83865375,6.27237778" id="Fill-31"></path>
                        <path d="M38.5520586,19.5353935 C38.5904203,19.8307639 38.6051748,20.1143194 38.5963221,20.3860602 C38.5845185,20.6607546 38.5195988,20.9000046 38.4045138,21.1067639 C38.2864779,21.3105694 38.1005714,21.4759769 37.8467943,21.6059398 C37.5930172,21.7329491 37.2418605,21.7949769 36.7903733,21.7949769 C36.1647832,21.8126991 35.7428049,21.673875 35.5185368,21.3696435 C35.2942686,21.0683657 35.1319693,20.5721435 35.0345897,19.8868843 L33.627012,9.29490278 C33.5473378,8.84593981 33.4322528,8.62145833 33.2758553,8.62145833 C33.1165069,8.62145833 32.968962,8.84593981 32.8361717,9.29490278 L29.5518236,20.5632824 C29.454444,20.9354491 29.2921447,21.2337731 29.0678766,21.4582546 C28.8436084,21.6827361 28.4157284,21.7949769 27.7930892,21.7949769 C27.4596378,21.7949769 27.1852045,21.7713472 26.969789,21.7211343 C26.7573244,21.673875 26.5802706,21.594125 26.4415785,21.4877917 C26.3087881,21.3814583 26.2025558,21.2544491 26.1346852,21.1067639 C26.0697655,20.9590787 26.0048458,20.7789028 25.9458278,20.5632824 C25.3792557,18.6670046 24.8185853,16.7914028 24.2579149,14.9423843 C23.7031463,13.0963194 23.1483777,11.2236713 22.6054127,9.32443981 C22.4667206,8.85480093 22.3250776,8.62145833 22.1775327,8.62145833 C22.0299879,8.62145833 21.9178538,8.85480093 21.8411305,9.32443981 L20.4630617,19.7126157 C20.3656821,20.4155972 20.1738738,20.9413565 19.8935387,21.2810324 C19.6073017,21.623662 19.0938456,21.7949769 18.3531706,21.7949769 C17.7452858,21.7949769 17.3292094,21.623662 17.0931377,21.2810324 C16.8570659,20.9413565 16.8098516,20.3565231 16.9455928,19.5353935 L19.4656586,2.90013426 C19.5630382,2.214875 19.8227171,1.68616204 20.2446954,1.31399537 C20.6637227,0.941828704 21.1860314,0.75574537 21.8116215,0.75574537 C22.4372116,0.75574537 22.9654221,0.912291667 23.3933022,1.22538426 C23.8241331,1.53847685 24.1782407,2.16466204 24.4526741,3.10393981 L27.7930892,15.3677176 L31.0449774,3.04486574 C31.2987545,2.12626389 31.6469603,1.51484722 32.0895948,1.21061574 C32.5263275,0.909337963 33.0397835,0.75574537 33.627012,0.75574537 C34.1906333,0.75574537 34.7040893,0.947736111 35.1673801,1.32876389 C35.6247691,1.70979167 35.9110061,2.26213426 36.0319928,2.98579167 L38.5520586,19.5353935 Z" id="Fill-33"></path>
                        <path d="M52.5053738,13.5500083 L50.2449869,6.27208241 L47.9905018,13.5500083 L52.5053738,13.5500083 Z M47.2586794,16.8670176 L45.9661866,20.2401472 C45.7920837,20.7097861 45.5471593,21.0849065 45.2343643,21.368462 C44.9215692,21.6520176 44.4612293,21.7967491 43.8562955,21.7967491 C43.2484108,21.7967491 42.7674146,21.628388 42.4044543,21.2975731 C42.0444449,20.9638046 41.9972306,20.3966935 42.2716639,19.5932861 L48.3121495,1.959675 C48.4095291,1.64658241 48.6219937,1.36598056 48.9436414,1.12377685 C49.2652892,0.878619444 49.699071,0.754563889 50.2449869,0.754563889 C50.7938537,0.754563889 51.2276355,0.878619444 51.5522341,1.12377685 C51.8738819,1.36598056 52.0833955,1.64658241 52.183726,1.959675 L58.2802787,19.6523602 C58.5133995,20.3966935 58.4514307,20.940175 58.0914213,21.2828046 C57.728461,21.6224806 57.241563,21.7967491 56.6366292,21.7967491 C56.0316954,21.8144713 55.5831591,21.6815546 55.2880694,21.3979991 C54.9959306,21.1173972 54.7716625,20.7777213 54.6152649,20.3848787 L53.2076872,16.8670176 L47.2586794,16.8670176 Z" id="Fill-35"></path>
                        <path d="M66.0756625,9.58820556 L69.1534478,9.58820556 C70.2275742,9.58820556 71.0449726,9.41689074 71.5997412,9.07426111 C72.1604116,8.73163148 72.434845,8.01388148 72.434845,6.91805741 C72.434845,6.41002037 72.349269,5.99059444 72.1722152,5.65682593 C71.9981123,5.32601111 71.7590896,5.06608519 71.4551473,4.88000185 C71.1512049,4.69391852 70.8000482,4.56690926 70.3987262,4.49602037 C69.9974043,4.42808519 69.5813278,4.39559444 69.1534478,4.39559444 L66.0756625,4.39559444 L66.0756625,9.58820556 Z M62.263104,2.98667778 C62.263104,2.57611296 62.2985147,2.24234444 62.3663854,1.98832593 C62.4372069,1.73430741 62.5581936,1.53936296 62.7322965,1.40349259 C62.9093504,1.26466852 63.1601766,1.1731037 63.4818243,1.12289074 C63.8034721,1.07563148 64.2195485,1.04904815 64.7271027,1.04904815 L69.1534478,1.04904815 C70.3072484,1.04904815 71.3253078,1.14356667 72.2164786,1.32965 C73.1076494,1.51573333 73.8483245,1.83473333 74.4444056,2.28074259 C75.0404868,2.73265926 75.4890231,3.33521481 75.7929654,4.08840926 C76.0969078,4.8416037 76.2474035,5.77202037 76.2474035,6.88852037 C76.2474035,8.59280741 75.8608361,9.89243704 75.090652,10.790363 C74.3175171,11.6912426 73.2758505,12.2878907 71.9686033,12.5832611 L71.3813748,12.6984556 C71.1836648,12.7368537 70.9800529,12.7693444 70.7675883,12.7870667 L76.5100333,18.4493167 C76.9025026,18.8421593 77.1061145,19.2911222 77.1267708,19.7991593 C77.147427,20.3071963 76.9585696,20.759113 76.5720022,21.1490019 C76.1795329,21.5388907 75.7103403,21.7574648 75.1614735,21.795863 C74.6155576,21.8342611 74.175874,21.6865759 73.8453736,21.3557611 L66.0756625,13.1680944 L66.0756625,20.2687981 C66.0756625,20.6616407 65.919265,21.0131315 65.60647,21.3262241 C65.2936749,21.6393167 64.7949734,21.795863 64.1103653,21.795863 C63.4287082,21.795863 62.947712,21.6304556 62.6762295,21.296687 C62.4017961,20.9658722 62.263104,20.6202889 62.263104,20.2687981 L62.263104,2.98667778 Z" id="Fill-37"></path>
                        <path d="M89.3254827,4.45378241 L89.3254827,20.267912 C89.3254827,20.6607546 89.1779379,21.0122454 88.8857991,21.325338 C88.5907094,21.6384306 88.1038115,21.7949769 87.4192034,21.7949769 C86.7345954,21.7949769 86.2447465,21.6295694 85.9526078,21.2958009 C85.660469,20.9649861 85.5129242,20.6223565 85.5129242,20.267912 L85.5129242,4.45378241 L81.7623344,4.45378241 C81.4082268,4.45378241 81.0659228,4.32677315 80.7354224,4.07275463 C80.4049219,3.81873611 80.2367208,3.37863426 80.2367208,2.75244907 C80.2367208,2.14693981 80.3931183,1.70979167 80.7059134,1.44691204 C81.0187084,1.1810787 81.3698652,1.05111574 81.7623344,1.05111574 L93.0760725,1.05111574 C93.4655908,1.05111574 93.8167475,1.1810787 94.1324935,1.44691204 C94.4423376,1.70979167 94.6016861,2.14693981 94.6016861,2.75244907 C94.6016861,3.37863426 94.4334849,3.81873611 94.1029845,4.07275463 C93.7695332,4.32677315 93.4301801,4.45378241 93.0760725,4.45378241 L89.3254827,4.45378241 Z" id="Fill-39"></path>
                        <path d="M119.664242,19.5353935 C119.702604,19.8307639 119.717358,20.1143194 119.708506,20.3860602 C119.696702,20.6607546 119.631782,20.9000046 119.516697,21.1067639 C119.398661,21.3105694 119.212755,21.4759769 118.958978,21.6059398 C118.705201,21.7329491 118.354044,21.7949769 117.902557,21.7949769 C117.276967,21.8126991 116.854988,21.673875 116.63072,21.3696435 C116.406452,21.0683657 116.244153,20.5721435 116.146773,19.8868843 L114.739195,9.29490278 C114.659521,8.84593981 114.544436,8.62145833 114.388039,8.62145833 C114.22869,8.62145833 114.081146,8.84593981 113.948355,9.29490278 L110.664007,20.5632824 C110.566628,20.9354491 110.404328,21.2337731 110.18006,21.4582546 C109.955792,21.6827361 109.527912,21.7949769 108.905273,21.7949769 C108.571821,21.7949769 108.297388,21.7713472 108.081972,21.7211343 C107.869508,21.673875 107.692454,21.594125 107.553762,21.4877917 C107.420972,21.3814583 107.314739,21.2544491 107.246869,21.1067639 C107.181949,20.9590787 107.117029,20.7789028 107.058011,20.5632824 C106.491439,18.6670046 105.930769,16.7914028 105.370098,14.9423843 C104.81533,13.0963194 104.260561,11.2236713 103.717596,9.32443981 C103.578904,8.85480093 103.437261,8.62145833 103.289716,8.62145833 C103.142171,8.62145833 103.030037,8.85480093 102.953314,9.32443981 L101.575245,19.7126157 C101.477866,20.4155972 101.286057,20.9413565 101.005722,21.2810324 C100.719485,21.623662 100.206029,21.7949769 99.465354,21.7949769 C98.8574693,21.7949769 98.4413929,21.623662 98.2053211,21.2810324 C97.9692494,20.9413565 97.9220351,20.3565231 98.0577763,19.5353935 L100.577842,2.90013426 C100.675222,2.214875 100.934901,1.68616204 101.356879,1.31399537 C101.775906,0.941828704 102.298215,0.75574537 102.923805,0.75574537 C103.549395,0.75574537 104.077606,0.912291667 104.505486,1.22538426 C104.936317,1.53847685 105.290424,2.16466204 105.564858,3.10393981 L108.905273,15.3677176 L112.157161,3.04486574 C112.410938,2.12626389 112.759144,1.51484722 113.201778,1.21061574 C113.638511,0.909337963 114.151967,0.75574537 114.739195,0.75574537 C115.302817,0.75574537 115.816273,0.947736111 116.279564,1.32876389 C116.736953,1.70979167 117.02319,2.26213426 117.144176,2.98579167 L119.664242,19.5353935 Z" id="Fill-41"></path>
                        <path d="M133.617852,13.5500083 L131.357465,6.27208241 L129.10298,13.5500083 L133.617852,13.5500083 Z M128.371158,16.8670176 L127.078665,20.2401472 C126.904562,20.7097861 126.659638,21.0849065 126.346843,21.368462 C126.034048,21.6520176 125.573708,21.7967491 124.968774,21.7967491 C124.360889,21.7967491 123.879893,21.628388 123.516933,21.2975731 C123.156923,20.9638046 123.109709,20.3966935 123.384143,19.5932861 L129.424628,1.959675 C129.522008,1.64658241 129.734472,1.36598056 130.05612,1.12377685 C130.377768,0.878619444 130.81155,0.754563889 131.357465,0.754563889 C131.906332,0.754563889 132.340114,0.878619444 132.664713,1.12377685 C132.98636,1.36598056 133.195874,1.64658241 133.296205,1.959675 L139.392757,19.6523602 C139.625878,20.3966935 139.563909,20.940175 139.2039,21.2828046 C138.84094,21.6224806 138.354042,21.7967491 137.749108,21.7967491 C137.144174,21.8144713 136.695638,21.6815546 136.400548,21.3979991 C136.108409,21.1173972 135.884141,20.7777213 135.727744,20.3848787 L134.320166,16.8670176 L128.371158,16.8670176 Z" id="Fill-43"></path>
                        <path d="M147.190797,11.0564917 L150.268582,11.0564917 C151.519762,11.0564917 152.375522,10.7817972 152.832911,10.235362 C153.2903,9.68597315 153.523421,8.79690833 153.523421,7.56521389 C153.523421,6.91835278 153.437845,6.38963981 153.275546,5.979075 C153.107345,5.56851019 152.877175,5.24064907 152.585036,4.99549167 C152.292897,4.75328796 151.947642,4.58492685 151.558124,4.49631574 C151.168606,4.41065833 150.737775,4.36635278 150.268582,4.36635278 L147.190797,4.36635278 L147.190797,11.0564917 Z M143.378238,2.98697315 C143.378238,2.57640833 143.413649,2.24263981 143.48152,1.9886213 C143.552341,1.73460278 143.685132,1.53965833 143.87694,1.40083426 C144.071699,1.26496389 144.352034,1.17339907 144.712044,1.12318611 C145.075004,1.07592685 145.547147,1.04934352 146.137327,1.04934352 L150.268582,1.04934352 C151.558124,1.04934352 152.649956,1.15863056 153.535225,1.37425093 C154.426396,1.58691759 155.152316,1.95022315 155.721839,2.45826019 C156.288412,2.96629722 156.698586,3.63678796 156.952363,4.46973241 C157.20614,5.29972315 157.33598,6.32170463 157.33598,7.53567685 C157.33598,8.74669537 157.197288,9.78344537 156.922854,10.6459269 C156.648421,11.5054546 156.229394,12.2113898 155.662821,12.757825 C155.096249,13.3042602 154.367378,13.7059639 153.479158,13.9599824 C152.587987,14.2140009 151.519762,14.3410102 150.268582,14.3410102 L147.190797,14.3410102 L147.190797,20.2690935 C147.190797,20.6589824 147.043252,21.0134269 146.751113,21.3265194 C146.458975,21.639612 145.969126,21.7961583 145.284518,21.7961583 C144.59991,21.7961583 144.113012,21.6307509 143.817922,21.2969824 C143.525783,20.9632139 143.378238,20.6205843 143.378238,20.2690935 L143.378238,2.98697315 Z" id="Fill-45"></path>
                        <path d="M15.4810628,48.9655065 L12.3442596,48.9655065 C11.6389953,48.9655065 11.131441,48.8414509 10.818646,48.5962935 C10.5058509,48.3540898 10.3524043,47.9198954 10.3524043,47.2937102 C10.3524043,46.667525 10.5147036,46.2156083 10.8511058,45.9438676 C11.1816063,45.6691731 11.6891605,45.5303491 12.3737685,45.5303491 L17.2663553,45.5303491 C18.0689992,45.5303491 18.6090133,45.7371083 18.8804958,46.1476731 C19.1549292,46.558238 19.2906705,47.2730343 19.2906705,48.2891083 C19.2906705,49.5208028 19.1401747,50.6963769 18.8391833,51.8099231 C18.53229,52.9264231 18.0335884,53.9100065 17.3430786,54.7606731 C16.6496179,55.6113398 15.7554962,56.287738 14.6607135,56.7839602 C13.5659308,57.2831361 12.2262237,57.5312472 10.6415922,57.5312472 C9.10122407,57.5312472 7.71135171,57.2772287 6.48082778,56.7691917 C5.25030385,56.2611546 4.19978461,55.5434046 3.32927008,54.612988 C2.45875555,53.685525 1.79480378,52.5631176 1.33741479,51.2516731 C0.877074904,49.9431824 0.649855857,48.4751917 0.649855857,46.8536083 C0.649855857,45.3058676 0.868222214,43.8703676 1.30495493,42.5382472 C1.74758944,41.2090806 2.38793403,40.0541824 3.22893959,39.0765065 C4.06699426,38.0988306 5.09685722,37.3279139 6.32147936,36.7578491 C7.5431506,36.190738 8.93302296,35.9071824 10.4999491,35.9071824 C11.3940708,35.9071824 12.2350764,35.981025 13.017064,36.1287102 C13.8020025,36.2734417 14.6312045,36.6013028 15.5105718,37.1093398 C16.0358314,37.4431083 16.5256802,37.8005065 16.9771674,38.1815343 C17.4257037,38.562562 17.7857131,38.9435898 18.0601465,39.3246176 C18.3345799,39.7085991 18.4880265,40.077812 18.5145846,40.4411176 C18.5440936,40.8014694 18.3817943,41.1116083 18.0306376,41.3656269 C17.8565346,41.5221731 17.6440701,41.6580435 17.3991457,41.7761917 C17.1542212,41.8913861 16.8945423,41.962275 16.6260107,41.9799972 C16.3515773,42.0006731 16.0771439,41.9711361 15.8027105,41.8913861 C15.531228,41.8145898 15.2774509,41.6580435 15.0413792,41.4247009 C14.2593915,40.5828954 13.5216674,40.0098769 12.8282066,39.7085991 C12.131795,39.4043676 11.3173475,39.250775 10.3789624,39.250775 C9.55861306,39.250775 8.78547812,39.4279972 8.06250842,39.7824417 C7.33953873,40.1339324 6.71394862,40.6331083 6.188689,41.2770157 C5.66047849,41.9238769 5.23850026,42.7036546 4.9286561,43.6252102 C4.61291015,44.543812 4.45946353,45.5717009 4.45946353,46.7059231 C4.45946353,47.8578676 4.60700836,48.8975713 4.91390162,49.8161731 C5.21489309,50.734775 5.63982221,51.5175065 6.188689,52.1643676 C6.7346049,52.808275 7.38970397,53.3074509 8.15398622,53.6589417 C8.91236668,54.0104324 9.75632314,54.1876546 10.674052,54.1876546 C11.3380038,54.1876546 11.9576921,54.054738 12.5360679,53.7918583 C13.1085418,53.526025 13.619047,53.1656731 14.0587306,52.7078491 C14.4984142,52.2470713 14.8436691,51.6976824 15.1003971,51.0626361 C15.3541742,50.4275898 15.4810628,49.727562 15.4810628,48.9655065" id="Fill-47"></path>
                        <path d="M27.3247819,45.03265 L30.4025671,45.03265 C31.4766936,45.03265 32.2940919,44.8613352 32.8488605,44.5187056 C33.4095309,44.1760759 33.6839643,43.4583259 33.6839643,42.3625019 C33.6839643,41.8544648 33.5983883,41.4350389 33.4213345,41.1012704 C33.2472316,40.7704556 33.008209,40.5105296 32.7042666,40.3244463 C32.4003242,40.138363 32.0491675,40.0113537 31.6478456,39.9404648 C31.2465236,39.8725296 30.8304472,39.8400389 30.4025671,39.8400389 L27.3247819,39.8400389 L27.3247819,45.03265 Z M23.5122233,38.4311222 C23.5122233,38.0205574 23.5476341,37.6867889 23.6155047,37.4327704 C23.6863262,37.1787519 23.807313,36.9838074 23.9814159,36.847937 C24.1584697,36.709113 24.4092959,36.6175481 24.7309436,36.5673352 C25.0525914,36.5200759 25.4686678,36.4934926 25.9762221,36.4934926 L30.4025671,36.4934926 C31.5563678,36.4934926 32.5744271,36.5880111 33.4655979,36.7740944 C34.3567688,36.9601778 35.0974438,37.2791778 35.693525,37.725187 C36.2896061,38.1771037 36.7381424,38.7796593 37.0420848,39.5328537 C37.3460271,40.2860481 37.4965229,41.2164648 37.4965229,42.3329648 C37.4965229,44.0372519 37.1099554,45.3368815 36.3397714,46.2348074 C35.5666364,47.135687 34.5249699,47.7323352 33.2177226,48.0277056 L32.6304942,48.1429 C32.4327841,48.1812981 32.2291722,48.2137889 32.0167077,48.2315111 L37.7591527,53.8937611 C38.1516219,54.2866037 38.3552338,54.7355667 38.3758901,55.2436037 C38.3965464,55.7516407 38.207689,56.2035574 37.8211215,56.5934463 C37.4286522,56.9833352 36.9594597,57.2019093 36.4105929,57.2403074 C35.864677,57.2787056 35.4249934,57.1310204 35.0944929,56.8002056 L27.3247819,48.6125389 L27.3247819,55.7132426 C27.3247819,56.1060852 27.1683843,56.4575759 26.8555893,56.7706685 C26.5427942,57.0837611 26.0440927,57.2403074 25.3594847,57.2403074 C24.6778275,57.2403074 24.1968313,57.0749 23.9253488,56.7411315 C23.6509154,56.4103167 23.5122233,56.0647333 23.5122233,55.7132426 L23.5122233,38.4311222 Z" id="Fill-49"></path>
                        <path d="M50.6584075,54.18795 C51.6941723,54.18795 52.5617359,53.998913 53.2522457,53.6149315 C53.9457065,53.2339037 54.5093277,52.7110981 54.9372078,52.0465148 C55.3680387,51.3819315 55.6719811,50.5992 55.8490349,49.6983204 C56.0231378,48.7974407 56.1116647,47.8315796 56.1116647,46.7948296 C56.1116647,45.7580796 56.0113342,44.77745 55.816575,43.8588481 C55.6247667,42.9402463 55.3090208,42.1368389 54.8811407,41.4515796 C54.4503098,40.7692741 53.8896394,40.2317 53.1932278,39.8388574 C52.4997671,39.4489685 51.6558106,39.2510704 50.6584075,39.2510704 C49.6610044,39.2510704 48.817048,39.4548759 48.1235872,39.8536259 C47.4271756,40.2553296 46.8665052,40.7929037 46.4356743,41.4663481 C46.0077943,42.1427463 45.6920483,42.9284315 45.50024,43.8293111 C45.3054809,44.7301907 45.2051504,45.6901444 45.2051504,46.7062185 C45.2051504,47.6248204 45.2936773,48.5345611 45.4707311,49.4354407 C45.6477849,50.3333667 45.9487764,51.1367741 46.3796073,51.8397556 C46.8074873,52.5456907 47.3711086,53.1128019 48.0645693,53.5410889 C48.7550791,53.9723296 49.6226428,54.18795 50.6584075,54.18795 M50.6584075,35.9074778 C52.2400882,35.9074778 53.615206,36.1851259 54.7778593,36.7433759 C55.9405127,37.3016259 56.902505,38.0636815 57.6638363,39.0324963 C58.4281186,40.0013111 58.9917399,41.1414407 59.3635529,42.4499315 C59.7353658,43.7613759 59.9242232,45.1791537 59.9242232,46.7062185 C59.9242232,48.2303296 59.7353658,49.6540148 59.3635529,50.9743204 C58.9917399,52.2946259 58.4281186,53.440663 57.6638363,54.4094778 C56.902505,55.3753389 55.9405127,56.1403481 54.7778593,56.6985981 C53.615206,57.2538944 52.2400882,57.5315426 50.6584075,57.5315426 C49.1327939,57.5315426 47.7930868,57.2657093 46.6422371,56.7251815 C45.4884365,56.1876074 44.5205423,55.4403204 43.7385547,54.4803667 C42.959518,53.5233667 42.3722895,52.3802833 41.9827712,51.048163 C41.5903019,49.7189963 41.3955427,48.2716815 41.3955427,46.7062185 C41.3955427,45.1998296 41.5725965,43.7879593 41.9237532,42.4647 C42.2749099,41.1443944 42.8267276,40.0013111 43.5792063,39.0324963 C44.3287341,38.0636815 45.2907264,37.3016259 46.4504288,36.7433759 C47.616033,36.1851259 49.014758,35.9074778 50.6584075,35.9074778" id="Fill-51"></path>
                        <path d="M64.1419399,37.7263685 C64.1419399,37.3748778 64.2894847,37.0322481 64.5816235,36.6984796 C64.8767132,36.3676648 65.3636112,36.1993037 66.0482192,36.1993037 C66.7328272,36.1993037 67.2226761,36.3588037 67.5148149,36.6718963 C67.8069536,36.9849889 67.9544985,37.3364796 67.9544985,37.7263685 L67.9544985,48.5841833 C67.9544985,49.405313 68.0223691,50.1496463 68.1581104,50.8142296 C68.2968025,51.478813 68.5240215,52.0459241 68.8486202,52.515563 C69.1702679,52.9852019 69.6129024,53.3485074 70.167671,53.6025259 C70.7224396,53.8565444 71.4336057,53.9835537 72.2923167,53.9835537 C73.1333222,53.9835537 73.826783,53.8594981 74.3756497,53.6143407 C74.9215656,53.372137 75.3582984,53.0206463 75.6769952,52.5598685 C76.0015938,52.0990907 76.2229111,51.537887 76.3379961,50.8733037 C76.4560319,50.2087204 76.512099,49.4437111 76.512099,48.5841833 L76.512099,37.7263685 C76.512099,37.3748778 76.6507911,37.0322481 76.9252245,36.6984796 C77.1996579,36.3676648 77.6983595,36.1993037 78.4213292,36.1993037 C79.1029863,36.1993037 79.5898843,36.3588037 79.8849739,36.6718963 C80.1800636,36.9849889 80.3246575,37.3364796 80.3246575,37.7263685 L80.3246575,50.4036648 C80.3246575,51.5762852 80.0944876,52.5982667 79.6370986,53.4696093 C79.1767587,54.3409519 78.5718249,55.067563 77.8193462,55.65535 C77.0668676,56.243137 76.2081566,56.6773315 75.2402625,56.960887 C74.2723684,57.2444426 73.2808671,57.3862204 72.2628077,57.3862204 C71.2654046,57.3862204 70.2857069,57.2444426 69.3178128,56.960887 C68.3499186,56.6773315 67.4853059,56.2490444 66.7239745,55.6701185 C65.9596923,55.0941463 65.340004,54.3704889 64.8619587,53.4991463 C64.3809625,52.6278037 64.1419399,51.5969611 64.1419399,50.4036648 L64.1419399,37.7263685 Z" id="Fill-53"></path>
                        <path d="M88.6798265,46.5009361 L91.7576118,46.5009361 C93.008792,46.5009361 93.8645521,46.2262417 94.3219411,45.6798065 C94.77933,45.1304176 95.0124509,44.2413528 95.0124509,43.0096583 C95.0124509,42.3627972 94.9268749,41.8340843 94.7645756,41.4235194 C94.5963744,41.0129546 94.3662045,40.6850935 94.0740657,40.4399361 C93.781927,40.1977324 93.436672,40.0293713 93.0471537,39.9407602 C92.6576353,39.8551028 92.2268044,39.8107972 91.7576118,39.8107972 L88.6798265,39.8107972 L88.6798265,46.5009361 Z M84.867268,38.4314176 C84.867268,38.0208528 84.9026787,37.6870843 84.9705493,37.4330657 C85.0413709,37.1790472 85.1741612,36.9841028 85.3659695,36.8452787 C85.5607287,36.7094083 85.8410639,36.6178435 86.2010733,36.5676306 C86.5640336,36.5203713 87.036177,36.493788 87.6263564,36.493788 L91.7576118,36.493788 C93.0471537,36.493788 94.1389855,36.603075 95.0242545,36.8186954 C95.9154253,37.031362 96.6413459,37.3946676 97.2108689,37.9027046 C97.7774411,38.4107417 98.1876158,39.0812324 98.4413929,39.9141769 C98.69517,40.7441676 98.8250094,41.7661491 98.8250094,42.9801213 C98.8250094,44.1911398 98.6863173,45.2278898 98.4118839,46.0903713 C98.1374505,46.9498991 97.7184232,47.6558343 97.151851,48.2022694 C96.5852788,48.7487046 95.8564073,49.1504083 94.9681874,49.4044269 C94.0770166,49.6584454 93.008792,49.7854546 91.7576118,49.7854546 L88.6798265,49.7854546 L88.6798265,55.713538 C88.6798265,56.1034269 88.5322817,56.4578713 88.2401429,56.7709639 C87.9480041,57.0840565 87.4581553,57.2406028 86.7735472,57.2406028 C86.0889392,57.2406028 85.6020412,57.0751954 85.3069516,56.7414269 C85.0148128,56.4076583 84.867268,56.0650287 84.867268,55.713538 L84.867268,38.4314176 Z" id="Fill-55"></path>
                    </g>
                </g>
            </g>
        </g>
    </g>
</svg>