<?xml version="1.0" encoding="UTF-8"?>
<svg width="124px" height="124px" viewBox="0 0 124 124" version="1.1" xmlns="http://www.w3.org/2000/svg" xmlns:xlink="http://www.w3.org/1999/xlink">
    <!-- Generator: Sketch 49.1 (51147) - http://www.bohemiancoding.com/sketch -->
    <title>pcqinxu@2x</title>
    <desc>Created with Sketch.</desc>
    <defs></defs>
    <g id="Page-1" stroke="none" stroke-width="1" fill="none" fill-rule="evenodd">
        <g id="创物云PC端" transform="translate(-258.000000, -2559.000000)" fill="#000000" fill-rule="nonzero">
            <g id="Group-38" transform="translate(258.000000, 2559.000000)">
                <g id="情绪管理测验">
                    <path d="M61.5602837,36.0567376 C63.9780592,36.0567376 65.9574468,34.0906344 65.9574468,31.6595745 C65.9574468,29.2285145 63.9913437,27.2624113 61.5602837,27.2624113 C59.1292237,27.2624113 57.1631206,29.2285145 57.1631206,31.6595745 C57.1631206,34.0906344 59.1292237,36.0567376 61.5602837,36.0567376 Z" id="Shape"></path>
                    <path d="M62,0 C27.7634697,0 0,27.7634697 0,62 C0,96.2365303 27.7634697,124 62,124 C96.2365303,124 124,96.2365303 124,62 C124,27.7634697 96.2365303,0 62,0 Z M61.9445562,23.272524 C66.5325285,23.272524 70.2611223,27.0011178 70.2611223,31.5890901 C70.2611223,36.1770624 66.5463894,39.9056562 61.9445562,39.9056562 C57.3565839,39.9056562 53.6279902,36.1770624 53.6279902,31.5890901 C53.6279902,27.0011178 57.3565839,23.272524 61.9445562,23.272524 Z M49.5528728,50.7033311 C49.5528728,46.7668232 52.7686117,43.5510843 56.7051196,43.5510843 L67.1701319,43.5510843 C71.1066398,43.5510843 74.3223787,46.7668232 74.3223787,50.7033311 L74.3223787,64.3563604 C74.3223787,67.627543 72.1046278,70.3858708 69.096803,71.2313883 L69.096803,86.5338699 L65.5622625,86.5338699 L65.5622625,67.9602057 L67.1701319,67.9602057 C69.1661078,67.9602057 70.7878381,66.3384753 70.7878381,64.3424994 L70.7878381,50.7033311 C70.7878381,48.7073552 69.1661078,47.0856249 67.1701319,47.0856249 L56.7051196,47.0856249 C54.7091438,47.0856249 53.0874134,48.7073552 53.0874134,50.7033311 L53.0874134,64.3563604 C53.0874134,66.3523362 54.7091438,67.9740666 56.7051196,67.9740666 L58.312989,67.9740666 L58.2991281,86.5477308 L54.7645875,86.5477308 L54.7645875,71.2313883 C51.7567628,70.3858708 49.5390118,67.6136821 49.5390118,64.3563604 L49.5390118,50.7033311 L49.5528728,50.7033311 Z M62,91.1218422 C72.8808406,91.1218422 78.7578806,88.0447127 78.7578806,86.7833669 C78.7578806,86.0348759 76.6926,84.6626425 72.7699531,83.6507937 L72.7699531,79.7835904 C78.3143304,81.0033535 82.4864744,83.3042701 82.4864744,86.7833669 C82.4864744,92.3277442 71.8689917,94.8642969 62,94.8642969 C52.1310083,94.8642969 41.5135256,92.3416052 41.5135256,86.7833669 C41.5135256,83.331992 45.6302258,81.0449363 51.1191594,79.8113123 L51.1191594,83.6785155 C47.2658171,84.6765035 45.2421194,86.0348759 45.2421194,86.7833669 C45.2282584,88.0308518 51.1052985,91.1218422 62,91.1218422 Z M62,101.628437 C43.869886,101.628437 33.0306282,96.1810865 33.0306282,87.0605857 C33.0306282,79.1875699 41.3887771,75.0431478 51.1052985,73.3798346 L51.1052985,77.1777331 C43.121395,78.6469931 36.759222,81.8765929 36.759222,87.0605857 C36.759222,95.0583501 50.3568075,97.8998435 61.9861391,97.8998435 C73.6293315,97.8998435 87.2130561,95.0583501 87.2130561,87.0605857 C87.2130561,81.7657053 80.2687235,78.7024368 72.7560921,77.2608987 L72.7560921,73.4352783 C81.8765929,75.0431478 90.9416499,78.9519338 90.9416499,87.0744467 C90.9555108,96.1810865 80.130114,101.628437 62,101.628437 Z" id="Shape"></path>
                </g>
            </g>
        </g>
    </g>
</svg>