<?xml version="1.0" encoding="UTF-8"?>
<svg width="225px" height="225px" viewBox="0 0 225 225" version="1.1" xmlns="http://www.w3.org/2000/svg" xmlns:xlink="http://www.w3.org/1999/xlink">
    <!-- Generator: Sketch 49.1 (51147) - http://www.bohemiancoding.com/sketch -->
    <title>PCRTERT</title>
    <desc>Created with Sketch.</desc>
    <defs>
        <filter x="-19.6%" y="-16.9%" width="139.2%" height="139.2%" filterUnits="objectBoundingBox" id="filter-1">
            <feOffset dx="0" dy="5" in="SourceAlpha" result="shadowOffsetOuter1"></feOffset>
            <feGaussianBlur stdDeviation="11" in="shadowOffsetOuter1" result="shadowBlurOuter1"></feGaussianBlur>
            <feColorMatrix values="0 0 0 0 0.297348692   0 0 0 0 0.748483328   0 0 0 0 0.980548469  0 0 0 0.395776721 0" type="matrix" in="shadowBlurOuter1" result="shadowMatrixOuter1"></feColorMatrix>
            <feMerge>
                <feMergeNode in="shadowMatrixOuter1"></feMergeNode>
                <feMergeNode in="SourceGraphic"></feMergeNode>
            </feMerge>
        </filter>
    </defs>
    <g id="Page-1" stroke="none" stroke-width="1" fill="none" fill-rule="evenodd">
        <g id="传统呼叫" transform="translate(-848.000000, -325.000000)">
            <g id="Group-4" transform="translate(226.000000, 342.000000)">
                <g id="Group-6-Copy" filter="url(#filter-1)" transform="translate(644.000000, 0.000000)">
                    <circle id="Oval-Copy" fill="#FFFFFF" cx="90.5" cy="90.5" r="90.5"></circle>
                    <g id="人工客服" transform="translate(39.000000, 41.000000)" fill="#41A4DF" fill-rule="nonzero">
                        <path d="M60.5806565,92.8585544 L80.7201822,85.2704448 C79.8244296,84.4277557 78.8716392,83.663214 78.0938511,82.7527971 C76.9906884,81.464668 76.5084598,79.8873936 76.5071635,78.1942006 C76.5071635,71.3615156 76.4864225,64.5288307 76.5071635,57.6961457 C76.5226279,53.1464322 80.1541845,49.443277 84.6817161,49.3604264 C87.8110168,49.299211 90.9442064,49.3447969 94.0748033,49.3434945 L94.7229601,49.3434945 C94.5388835,39.8355646 92.1666299,31.0544052 86.5237775,23.3516796 C80.3481402,14.9208809 72.1424761,9.42321354 62.0234533,7.1256809 C46.6647316,3.6298886 32.7786219,6.80136932 20.9264281,17.4307139 C13.3779948,24.2034859 8.97052912,32.7996965 7.43828663,42.8442383 C7.15180136,44.7262874 7.09217094,46.6435029 6.91976125,48.6675197 L7.87773689,48.6675197 C10.9111104,48.6675197 13.9444838,48.6479829 16.9778573,48.6675197 C21.1260603,48.7013836 24.5275868,51.4586832 25.3416717,55.4533163 C25.4666594,56.1296756 25.5244133,56.8168442 25.5140814,57.5046847 C25.5270445,63.9935212 25.4609325,70.4823577 25.5400076,76.9698918 C25.6074159,82.4011339 21.2453212,85.7445389 16.9234121,85.7888224 C13.9885585,85.8187789 11.0524085,85.8396182 8.11885119,85.7888224 C3.763238,85.710675 0.081707808,82.0299339 0.0518925986,77.6523788 C0.00133637415,70.697263 -0.0440345966,63.7395423 0.0778188676,56.7870313 C0.128375092,53.9007885 0.566529038,51.0158482 0.921718923,48.1413274 C1.28209406,45.2251281 1.58802404,42.2802748 2.20895818,39.4148713 C6.12382479,21.3537119 16.9026711,9.25259179 34.098269,2.94609912 C41.6946658,0.158842963 49.6047705,-0.527551427 57.6509881,0.371143315 C65.2992374,1.22555455 72.4289614,3.62728368 78.9351586,7.7612795 C89.9036988,14.7389712 97.0157064,24.5534125 100.271182,37.2046032 C101.527309,42.1070481 102.010834,47.1032699 101.996575,52.163312 C101.974537,60.7595226 102.010834,69.3674553 101.996575,77.9701781 C101.996575,81.3122806 100.150624,83.9250076 96.9707676,85.1336869 C85.8414845,89.3727476 74.7070162,93.5992178 63.5673626,97.8130975 C63.2724744,97.9264101 62.9600706,97.9868064 62.6443875,97.991534 C57.7762984,98.002822 52.9082093,98.002822 48.0401202,97.991534 C46.203244,97.991534 44.9406347,97.1592646 44.7591508,95.5832926 C44.5865406,93.9970794 44.5821952,92.3969268 44.7461877,90.8097908 C44.8874858,89.3770891 46.0256491,88.457555 47.4956685,88.4341108 C50.8211446,88.380276 54.1483491,88.3741978 57.4772821,88.4158764 C59.2765651,88.4406231 60.3525053,89.588087 60.5106555,91.4571115 C60.5430634,91.8752 60.5521376,92.2919859 60.5806565,92.8585544 Z M95.1063416,67.6554026 L95.1063416,57.431061 C95.1063416,55.7775143 94.5485621,55.2205721 92.9003964,55.2165845 C90.2506124,55.2094953 87.6008284,55.2094953 84.9510444,55.2165845 C83.2604822,55.2165845 82.7093272,55.7642221 82.7080023,57.4762544 C82.7009362,64.242858 82.7009362,71.0090186 82.7080023,77.774736 C82.7080023,79.4708177 83.2843303,80.0450397 84.9536942,80.0503565 C87.5760971,80.0583319 90.1989416,80.0583319 92.8222278,80.0503565 C94.536638,80.0503565 95.0983922,79.4734761 95.101042,77.7335303 C95.1081081,74.3723821 95.1098746,71.0130062 95.1063416,67.6554026 Z M19.292601,67.6717007 L19.292601,57.3647996 C19.292601,55.7690982 18.7547759,55.2239002 17.1978446,55.2185812 C14.4951311,55.2088297 11.7919794,55.2088297 9.08838924,55.2185812 C8.6682171,55.2162318 8.24997959,55.2762673 7.84705214,55.3967679 C7.0094126,55.6627181 6.77534692,56.1414285 6.94234883,57.0031073 C7.00056705,57.3219167 7.02830942,57.645652 7.02519231,57.9698364 C7.02957556,64.5902241 7.03176718,71.2106118 7.03176718,77.8309995 C7.03176718,79.4931884 7.58800192,80.0450351 9.22120179,80.0503541 C11.8511533,80.0583327 14.4811047,80.0583327 17.1110562,80.0503541 C18.7376812,80.0503541 19.2939159,79.4745719 19.2965459,77.8216912 C19.2982992,74.4396908 19.2969842,71.0559174 19.292601,67.670371 L19.292601,67.6717007 Z" id="Shape"></path>
                    </g>
                </g>
            </g>
        </g>
    </g>
</svg>