<?xml version="1.0" encoding="UTF-8"?>
<svg width="54px" height="83px" viewBox="0 0 54 83" version="1.1" xmlns="http://www.w3.org/2000/svg" xmlns:xlink="http://www.w3.org/1999/xlink">
    <!-- Generator: Sketch 49.1 (51147) - http://www.bohemiancoding.com/sketch -->
    <title>pcshubiao</title>
    <desc>Created with Sketch.</desc>
    <defs></defs>
    <g id="Page-1" stroke="none" stroke-width="1" fill="none" fill-rule="evenodd">
        <g id="创物云PC端" transform="translate(-933.000000, -931.000000)" fill="#FFFFFF" fill-rule="nonzero">
            <g id="Group-36" transform="translate(933.000000, 931.000000)">
                <g id="鼠标">
                    <path d="M27,0 C12.1143151,0 0,12.1897843 0,27.1719012 L0,55.8280988 C0,70.8102157 12.1143151,83 27,83 C41.8856849,83 54,70.8102157 54,55.8280988 L54,27.1719012 C54,12.1897843 41.8856849,0 27,0 Z M50.8208033,55.8280988 C50.8208033,69.0476137 40.1338826,79.8087627 27,79.8087627 C13.8661174,79.8087627 3.1791967,69.0476137 3.1791967,55.8280988 L3.1791967,27.1719012 C3.1791967,13.9523863 13.8661174,3.19123729 27,3.19123729 C40.1338826,3.19123729 50.8208033,13.9431094 50.8208033,27.1719012 L50.8208033,55.8280988 Z M27,14.3883983 C26.1194645,14.3883983 25.415036,15.102716 25.415036,15.984017 L25.415036,28.7675198 C25.415036,29.6488208 26.1287333,30.3631385 27,30.3631385 C27.8805355,30.3631385 28.584964,29.6488208 28.584964,28.7675198 L28.584964,15.984017 C28.584964,15.102716 27.8805355,14.3883983 27,14.3883983 Z" id="Shape"></path>
                </g>
            </g>
        </g>
    </g>
</svg>