<?xml version="1.0" encoding="UTF-8"?>
<svg width="124px" height="124px" viewBox="0 0 124 124" version="1.1" xmlns="http://www.w3.org/2000/svg" xmlns:xlink="http://www.w3.org/1999/xlink">
    <!-- Generator: Sketch 49.1 (51147) - http://www.bohemiancoding.com/sketch -->
    <title>sadnjagas@2x</title>
    <desc>Created with Sketch.</desc>
    <defs></defs>
    <g id="Page-1" stroke="none" stroke-width="1" fill="none" fill-rule="evenodd">
        <g id="创物云PC端" transform="translate(-258.000000, -2559.000000)">
            <g id="Group-75" transform="translate(258.000000, 2559.000000)">
                <g id="Group-38">
                    <circle id="Oval-Copy-3" fill="#000000" cx="62" cy="62" r="62"></circle>
                    <g id="医疗服务效率" transform="translate(33.000000, 29.000000)" fill="#FFFFFF" fill-rule="nonzero">
                        <path d="M0,36.0875344 C0.240208196,35.7737995 0.442063823,35.6012453 0.605566881,35.5718327 C0.769069939,35.5424201 4.85260927,34.9404413 12.8582034,33.7678571 C14.242933,33.7678571 15.5408647,34.0874746 16.7519985,34.7267094 C17.9631322,35.3639833 22.2505458,37.3091396 29.6162576,40.5602173 C31.6772035,42.6406717 32.1111931,44.5838671 30.9182264,46.3878427 C29.1297855,49.093806 26.1746191,49.0232157 24.8443906,48.1800532 C23.9582444,47.6172912 20.8315007,46.1054813 15.4601225,43.6465842 L15.4601225,45.3466351 L25.5629966,50.0781492 C29.1257484,50.2212907 31.6004984,48.7408543 32.985228,45.6309573 C35.3449203,44.1073823 41.8406343,40.4739402 52.4743888,34.7267094 C56.9596208,34.16983 58.7137462,36.1149862 57.7387835,40.5602173 C57.2482743,41.96222 48.9035627,48.2506435 32.7086858,59.4235269 C30.7506862,61.1373037 28.3687898,61.4529994 25.5629966,60.3745358 C22.7592219,59.2960721 17.4625303,57.1783617 9.67292164,54.0214045 L0.605566881,54.0214045 C0.201855627,53.9684617 0,53.6135491 0,52.952745 L0,36.0894953 L0,36.0875344 Z M9.35788816,30.4087258 L9.19075609,30.4087258 C8.1764482,27.8243645 7.6574007,25.0742085 7.6603902,22.3001326 C7.6603902,9.98411823 17.7044232,0 30.094346,0 C42.4842689,0 52.5283019,9.98411823 52.5283019,22.2981309 C52.5283019,25.1604583 51.9846193,27.8946816 50.997936,30.4087258 L50.8831585,30.4087258 C50.8831585,31.5296372 49.7736433,32.6785714 48.6480189,32.6785714 C47.5203809,32.6785714 46.2417199,31.6777577 46.5860522,30.5288234 L46.6222977,30.4087258 L46.5417521,30.4087258 C46.6363932,30.2205728 46.727007,30.0284165 46.8156071,29.8362603 C46.8820572,29.6601171 46.9525346,29.4959836 47.0330801,29.3398567 C50.2942018,21.5733702 47.7880213,12.597217 40.9666582,7.61231871 C34.1452951,2.62742046 24.7788026,2.92729204 18.294271,8.33818322 C11.8097393,13.7490744 9.88981838,22.8669309 13.6469399,30.4087258 L13.5563262,30.4087258 C13.9087131,31.1593361 12.9119616,32.4363745 11.7400235,32.4363745 C10.5660718,32.4363745 9.35788816,31.5276356 9.35788816,30.4087258 Z M30.6274656,6.53571429 L30.6555533,6.53571429 C31.2521842,6.53571429 31.7358491,7.01714551 31.7358491,7.61102101 L31.7358491,9.81755042 C31.7358491,10.4114259 31.2521842,10.8928571 30.6555533,10.8928571 L30.6274656,10.8928571 C30.0308347,10.8928571 29.5471698,10.4114259 29.5471698,9.81755042 L29.5471698,7.61102101 C29.5471698,7.01714551 30.0308347,6.53571429 30.6274656,6.53571429 Z M17.7362591,10.1569777 L17.7509913,10.1375695 C17.9113181,9.94306497 18.1384567,9.82374152 18.3823381,9.80590222 C18.6262194,9.78806292 18.8668208,9.87317235 19.0511055,10.0424695 L20.4764431,11.3486399 C20.8595862,11.7003661 20.8999688,12.3127104 20.5666777,12.7169164 L20.5519455,12.7363246 C20.3918766,12.931109 20.164872,13.0507981 19.9209832,13.0690021 C19.6770945,13.087206 19.4363502,13.0024298 19.2518313,12.8333655 L17.8264937,11.5252543 C17.4427932,11.1740891 17.4015835,10.561701 17.7344176,10.1569777 L17.7362591,10.1569777 Z M13.1320755,20.7104076 L13.1320755,20.6824496 C13.1320755,20.0885741 13.6159792,19.6071429 14.2129047,19.6071429 L16.4286047,19.6071429 C17.0255302,19.6071429 17.509434,20.0885741 17.509434,20.6824496 L17.509434,20.7104076 C17.509434,21.3042831 17.0255302,21.7857143 16.4286047,21.7857143 L14.2129047,21.7857143 C13.6159792,21.7857143 13.1320755,21.3042831 13.1320755,20.7104076 Z M42.6821292,20.6361715 L42.6821292,20.6112404 C42.6917084,20.3356805 42.8148394,20.0750857 43.0243967,19.886864 C43.233954,19.6986423 43.5127452,19.5982359 43.7993535,19.607764 L46.0143532,19.6825573 C46.6103897,19.7028557 47.0765951,20.1836187 47.0559433,20.7566718 L47.0559433,20.7836805 C47.0348302,21.356718 46.5347717,21.8049342 45.9387191,21.7850793 L43.7237193,21.7123636 C43.4367118,21.7031612 43.1653207,21.5844937 42.9694825,21.3825686 C42.7736443,21.1806435 42.6694707,20.9120734 42.6799683,20.6361715 L42.6821292,20.6361715 Z M29.6313705,25.052492 C28.4387733,25.0829477 27.3234373,24.4670502 26.7181308,23.4437776 C26.1128243,22.4205051 26.1128243,21.1509235 26.7181308,20.1276509 C27.3234373,19.1043784 28.4387733,18.4884809 29.6313705,18.5189366 C31.4111468,18.5643872 32.8301887,20.0135769 32.8301887,21.7857143 C32.8301887,23.5578516 31.4111468,25.0070414 29.6313705,25.052492 Z M41.2664805,10.102231 L41.2849229,10.120592 C41.6848999,10.518925 41.6848999,11.1646228 41.2849229,11.5629558 L33.205095,19.6071429 L31.7358491,18.146418 L39.8177261,10.102231 C40.217824,9.70401825 40.8663826,9.70401825 41.2664805,10.102231 Z" id="Shape"></path>
                    </g>
                </g>
            </g>
        </g>
    </g>
</svg>