<?xml version="1.0" encoding="UTF-8"?>
<svg width="85px" height="85px" viewBox="0 0 85 85" version="1.1" xmlns="http://www.w3.org/2000/svg" xmlns:xlink="http://www.w3.org/1999/xlink">
    <!-- Generator: Sketch 49.1 (51147) - http://www.bohemiancoding.com/sketch -->
    <title>SBsfaf@2x</title>
    <desc>Created with Sketch.</desc>
    <defs></defs>
    <g id="Page-1" stroke="none" stroke-width="1" fill="none" fill-rule="evenodd" opacity="0.503566576">
        <g id="创物云PC端" transform="translate(-1770.000000, -12537.000000)" fill="#000000" fill-rule="nonzero">
            <g id="上拉-(1)" transform="translate(1758.000000, 12537.000000)">
                <path d="M104.828921,32.6182126 L105,32.7538738 C104.944447,32.7068106 104.88739,32.6615666 104.828921,32.6182126 Z M0.58395677,32.8134115 L0.892661957,32.5676054 C0.526830934,32.8220311 0.221917232,33.1549737 0,33.5423244 L0.58395677,32.8134115 Z M11.4593386,84.4041966 C11.4268513,84.5883386 11.3923335,84.7703541 11.3623843,84.9553466 C11.4278081,84.7419068 11.4613975,84.5224955 11.4623843,84.3021319 L11.4593386,84.4041966 Z M5.97399387,84.0720607 C5.99792897,83.9342732 6.02288257,83.7973363 6.04834547,83.6591235 C5.99491842,83.850163 5.96707792,84.0455687 5.96533647,84.2417435 L5.97399387,84.0720607 Z M99.6846807,83.4316041 C99.7194047,83.647216 99.7498941,83.864529 99.7812304,84.0809914 C99.7733474,83.8291675 99.7323394,83.5794961 99.6592728,83.33847 L99.6846807,83.4316041 Z M94.1902361,84.8494544 C94.1667282,84.6795772 94.1418842,84.5098892 94.1157065,84.3404062 C94.1288339,84.5734542 94.1677926,84.7920429 94.2300417,85 L94.1902361,84.8494544 Z M92.858442,2.49506592e-08 L16.0632574,2.49506592e-08 C15.1043234,-0.000112796933 14.1846327,0.382396989 13.506564,1.06335772 C12.8284953,1.74431845 12.44761,2.66793179 12.4477223,3.63095568 L12.4477223,80.7532533 C12.44761,81.7162772 12.8284953,82.6398905 13.506564,83.3208513 C14.1846327,84.001812 15.1043234,84.3843218 16.0632574,84.384209 L92.858442,84.384209 C94.8550816,84.3839741 96.4735537,82.7584087 96.4735537,80.7532533 L96.4735537,3.63095568 C96.4735537,1.62580029 94.8550816,0.000234849079 92.858442,2.49506592e-08 Z M75.9114154,53.2297759 C75.4523574,53.6845445 74.7147688,53.6849233 74.2552479,53.2306265 L54.6789337,33.5746449 L34.6545945,53.2289254 C34.1932576,53.6628522 33.4723592,53.6510955 33.0252952,53.2023542 C32.5782311,52.7536129 32.5661557,52.0296459 32.9980036,51.5661195 L53.7735678,31.1540078 C53.9943446,30.9350061 54.2923926,30.8125573 54.6027101,30.8133665 C54.9258131,30.8133665 55.2175798,30.9430739 55.4305821,31.1535825 L75.9114154,51.5661195 C76.362828,52.1717041 76.362828,52.7772886 75.9114154,53.2297759 Z" id="Shape"></path>
            </g>
        </g>
    </g>
</svg>